<svg width="34" height="34" viewBox="0 0 34 34" fill="none" xmlns="http://www.w3.org/2000/svg">
<g id="Group">
<g id="&#227;&#131;&#172;&#227;&#130;&#164;&#227;&#131;&#164;&#227;&#131;&#188;_1">
<g id="Clip path group">
<mask id="mask0_218_1210" style="mask-type:luminance" maskUnits="userSpaceOnUse" x="0" y="0" width="34" height="34">
<g id="clippath">
<path id="Vector" d="M33.6118 0.230469H0.82666V33.0156H33.6118V0.230469Z" fill="white"/>
</g>
</mask>
<g mask="url(#mask0_218_1210)">
<g id="Group_2">
<path id="Vector_2" d="M29.2232 9.09701C24.8769 4.74595 18.1044 3.97316 12.8869 7.22825C11.449 8.18371 10.2032 9.40144 9.21492 10.8159C9.21492 10.8159 9.21023 10.8253 9.20555 10.8299H6.4797L1.3418 22.4499H8.00655C8.97137 24.2484 10.4327 25.7284 12.2124 26.7167C15.6127 28.5901 19.7671 28.4309 23.0175 26.3092C23.3922 26.061 23.5654 25.602 23.439 25.1664C23.3125 24.7355 22.9191 24.4358 22.4695 24.4311C22.3664 24.4311 22.2681 24.4451 22.1697 24.4779C21.5047 24.6793 20.8162 24.7777 20.123 24.7777C18.1278 24.7824 16.2216 23.9346 14.8914 22.4499H21.1159L22.1838 20.9606H26.3335C26.3335 20.9606 26.207 21.2837 26.1367 21.4383L25.6918 22.4499H32.483L32.6282 21.9207C33.874 17.3448 32.5767 12.4505 29.2232 9.09701ZM31.935 21.7333H26.8018C27.0126 21.2509 27.1905 20.7545 27.3264 20.244H21.8138L20.7506 21.7333H15.8094L23.2001 11.3826C22.2259 10.9845 21.1815 10.7831 20.1324 10.7878C19.9966 10.7878 19.8654 10.7878 19.7343 10.7972C15.7251 10.9985 12.5262 14.2162 12.5262 18.1457C12.5262 22.0752 12.5403 18.6562 12.5684 18.9091H16.9335L15.6314 20.7404C15.2193 21.2931 14.676 21.738 13.847 21.738H13.491C14.7931 23.9862 17.2801 25.5083 20.1324 25.5083C20.8958 25.5083 21.6545 25.3959 22.3899 25.1758C22.418 25.1664 22.4508 25.1617 22.4835 25.1617C22.6147 25.1664 22.7271 25.2554 22.7599 25.3819C22.7927 25.5083 22.7458 25.6441 22.6334 25.7144C20.2729 27.2553 17.3597 27.7049 14.6432 26.9415C11.9267 26.1781 9.67391 24.2812 8.45618 21.738H2.44712L6.94806 11.5559H9.54745C11.3506 9.2141 14.114 7.8137 17.0646 7.74345C17.1349 7.74345 17.2051 7.74345 17.2754 7.74345C21.4391 7.74345 24.9284 10.2351 26.3428 13.8977L23.7856 17.4853H27.6823C27.6683 14.0101 25.926 10.7691 23.0362 8.83473C20.1464 6.90509 16.4839 6.53508 13.2662 7.85117C17.6313 5.13 23.2142 5.3595 27.3357 8.43194C31.462 11.4997 33.2839 16.7828 31.9303 21.7427M17.4534 18.1879H13.2428C13.2428 18.1738 13.2428 18.1598 13.2428 18.1457C13.2428 14.6143 16.1092 11.7011 19.7671 11.5184C19.8888 11.5137 20.0106 11.5091 20.1324 11.5091C20.7787 11.5091 21.425 11.5934 22.048 11.7573L17.458 18.1879H17.4534ZM26.5817 14.811C26.7643 15.4433 26.8814 16.0943 26.933 16.75H25.1953L26.5817 14.811Z" fill="#003594"/>
</g>
</g>
</g>
<g id="Clip path group_2">
<mask id="mask1_218_1210" style="mask-type:luminance" maskUnits="userSpaceOnUse" x="13" y="5" width="20" height="17">
<g id="clippath-1">
<path id="Vector_3" d="M13.2661 7.84021C17.2097 6.22906 21.7434 7.17046 24.7175 10.2242C27.6916 13.2779 28.5159 17.8303 26.8017 21.7318H31.9349C33.2885 16.7718 31.4666 11.4887 27.3403 8.4163C25.1343 6.77236 22.5115 5.94336 19.8793 5.94336C17.5891 5.94336 15.2988 6.57096 13.2661 7.83553" fill="white"/>
</g>
</mask>
<g mask="url(#mask1_218_1210)">
<g id="Group_3">
<path id="Vector_4" d="M33.2885 5.94336H13.2661V21.7271H33.2885V5.94336Z" fill="url(#paint0_linear_218_1210)"/>
</g>
</g>
</g>
<g id="Clip path group_3">
<mask id="mask2_218_1210" style="mask-type:luminance" maskUnits="userSpaceOnUse" x="0" y="0" width="34" height="34">
<g id="clippath-2">
<path id="Vector_5" d="M33.6118 0.230469H0.82666V33.0156H33.6118V0.230469Z" fill="white"/>
</g>
</mask>
<g mask="url(#mask2_218_1210)">
<g id="Group_4">
<path id="Vector_6" d="M26.3475 13.8874L25.3593 15.2737C24.4132 14.2995 23.1112 13.7515 21.7529 13.7515C21.6686 13.7515 21.5843 13.7515 21.5 13.7562L23.2001 11.377C24.4694 11.8968 25.5607 12.768 26.3522 13.8874M27.3264 20.243C27.5653 19.3531 27.687 18.4398 27.687 17.5171V17.475H26.6192C26.8674 18.3836 26.8533 19.3437 26.5817 20.243H27.3264Z" fill="#D7D2CB"/>
<path id="Vector_7" d="M22.6289 25.7094C19.6032 27.6859 15.7299 27.8311 12.5638 26.0888C11.7816 25.1053 11.2056 23.9718 10.8683 22.7588C11.9643 22.7073 13.5474 22.8009 14.7183 23.3068C16.1655 24.7212 18.1092 25.508 20.1325 25.4987C20.8959 25.4987 21.6547 25.3863 22.39 25.1661C22.4181 25.1568 22.4509 25.1521 22.4837 25.1521C22.6148 25.1568 22.7272 25.2458 22.76 25.3722C22.7928 25.4987 22.7459 25.6345 22.6335 25.7048M12.5591 18.9089C12.531 18.6559 12.517 18.3983 12.517 18.1454C12.517 14.2159 15.7159 10.9983 19.725 10.7969C15.0789 10.9842 11.2711 14.4501 10.6201 18.9089H12.5591Z" fill="#FFD100"/>
<path id="Vector_8" d="M13.4863 21.7324H10.6387C10.6949 22.079 10.7698 22.4256 10.8635 22.7628C11.9594 22.7113 13.5425 22.805 14.7134 23.3108C14.2357 22.8424 13.8235 22.3132 13.4863 21.7324Z" fill="#FFA300"/>
<path id="Vector_9" d="M8.45166 21.7324C8.80761 22.4724 9.25255 23.1703 9.7818 23.7979C10.0581 23.3717 10.4281 23.0157 10.8684 22.7628C10.7747 22.4256 10.6998 22.079 10.6436 21.7324H8.45166Z" fill="#FF8200"/>
</g>
</g>
</g>
<g id="Clip path group_4">
<mask id="mask3_218_1210" style="mask-type:luminance" maskUnits="userSpaceOnUse" x="7" y="7" width="20" height="20">
<g id="clippath-3">
<path id="Vector_10" d="M10.8636 22.7586C10.428 23.0162 10.0533 23.3721 9.77702 23.7936C10.5545 24.721 11.5006 25.4985 12.5591 26.0839C11.7769 25.1004 11.2008 23.9669 10.8636 22.7539V22.7586ZM17.0694 7.73828C14.114 7.80854 11.3507 9.20893 9.5522 11.5507H11.2383L7.97852 18.9087H10.6247C11.2758 14.4499 15.0788 10.984 19.7297 10.7967C19.8608 10.792 19.9966 10.7873 20.1278 10.7873C21.1816 10.7826 22.2213 10.984 23.1955 11.3821C24.4648 11.902 25.556 12.7731 26.3476 13.8925C24.9331 10.2253 21.4438 7.73828 17.2801 7.73828C13.1164 7.73828 17.1396 7.73828 17.0694 7.73828Z" fill="white"/>
</g>
</mask>
<g mask="url(#mask3_218_1210)">
<g id="Group_5">
<path id="Vector_11" d="M26.3474 7.73438H7.97363V26.0894H26.3474V7.73438Z" fill="url(#paint1_linear_218_1210)"/>
</g>
</g>
</g>
<g id="Clip path group_5">
<mask id="mask4_218_1210" style="mask-type:luminance" maskUnits="userSpaceOnUse" x="0" y="0" width="34" height="34">
<g id="clippath-4">
<path id="Vector_12" d="M33.6118 0.230469H0.82666V33.0156H33.6118V0.230469Z" fill="white"/>
</g>
</mask>
<g mask="url(#mask4_218_1210)">
<g id="Group_6">
<path id="Vector_13" d="M26.7926 18.7959C26.7926 19.2877 26.7223 19.7748 26.5818 20.2431H21.8139L20.7507 21.7325H15.8096L21.5001 13.761C21.5844 13.761 21.6687 13.7564 21.753 13.7564C23.1113 13.7564 24.4133 14.3043 25.3594 15.2785L23.7904 17.4751H26.6193C26.7364 17.906 26.7973 18.351 26.7973 18.7959M6.9482 11.5457L2.44727 21.7278H13.8424C14.6714 21.7278 15.2147 21.2829 15.6269 20.7302L16.9289 18.8989H7.97859L11.2384 11.541H6.95288L6.9482 11.5457Z" fill="white"/>
</g>
</g>
</g>
</g>
</g>
<defs>
<linearGradient id="paint0_linear_218_1210" x1="22.652" y1="5.94336" x2="22.652" y2="21.7271" gradientUnits="userSpaceOnUse">
<stop stop-color="#FFD100"/>
<stop offset="0.2" stop-color="#FFD100"/>
<stop offset="0.3" stop-color="#FFD724"/>
<stop offset="0.5" stop-color="#FFE87F"/>
<stop offset="0.7" stop-color="white"/>
<stop offset="1" stop-color="white"/>
</linearGradient>
<linearGradient id="paint1_linear_218_1210" x1="7.97363" y1="17.3404" x2="26.3474" y2="17.3404" gradientUnits="userSpaceOnUse">
<stop stop-color="#FFA300"/>
<stop offset="0.1" stop-color="#FFA800"/>
<stop offset="0.3" stop-color="#FFB600"/>
<stop offset="0.5" stop-color="#FFD100"/>
<stop offset="1" stop-color="#FFD100"/>
</linearGradient>
</defs>
</svg>
