<?xml version="1.0" encoding="UTF-8"?>
<svg xmlns="http://www.w3.org/2000/svg" width="246.9mm" height="246.9mm" xmlns:xlink="http://www.w3.org/1999/xlink" version="1.1" viewBox="0 0 700 700">
  <defs>
    <style>
      .cls-1 {
        fill: none;
      }

      .cls-2 {
        fill: #ffd100;
      }

      .cls-3 {
        fill: #d7d2cb;
      }

      .cls-4 {
        fill: url(#_名称未設定グラデーション_2);
      }

      .cls-5 {
        clip-path: url(#clippath-1);
      }

      .cls-6 {
        clip-path: url(#clippath-3);
      }

      .cls-7 {
        clip-path: url(#clippath-4);
      }

      .cls-8 {
        clip-path: url(#clippath-2);
      }

      .cls-9 {
        fill: #003594;
      }

      .cls-10 {
        fill: #fff;
      }

      .cls-11 {
        fill: #ffa300;
      }

      .cls-12 {
        fill: #ff8200;
      }

      .cls-13 {
        fill: url(#_名称未設定グラデーション);
      }

      .cls-14 {
        clip-path: url(#clippath);
      }
    </style>
    <clipPath id="clippath">
      <rect class="cls-1" width="700" height="700"/>
    </clipPath>
    <clipPath id="clippath-1">
      <path class="cls-1" d="M265.6,162.5c84.2-34.4,181-14.3,244.5,50.9,63.5,65.2,81.1,162.4,44.5,245.7h109.6c28.9-105.9-10-218.7-98.1-284.3-47.1-35.1-103.1-52.8-159.3-52.8-48.9,0-97.8,13.4-141.2,40.4"/>
    </clipPath>
    <linearGradient id="_名称未設定グラデーション" data-name="名称未設定グラデーション" x1="0" y1="700" x2="1" y2="700" gradientTransform="translate(286066 122) rotate(90) scale(337 408)" gradientUnits="userSpaceOnUse">
      <stop offset="0" stop-color="#ffd100"/>
      <stop offset=".2" stop-color="#ffd100"/>
      <stop offset=".3" stop-color="#ffd724"/>
      <stop offset=".5" stop-color="#ffe87f"/>
      <stop offset=".7" stop-color="#fff"/>
      <stop offset="1" stop-color="#fff"/>
    </linearGradient>
    <clipPath id="clippath-2">
      <rect class="cls-1" width="700" height="700"/>
    </clipPath>
    <clipPath id="clippath-3">
      <path class="cls-1" d="M214.3,481c-9.3,5.5-17.3,13.1-23.2,22.1,16.6,19.8,36.8,36.4,59.4,48.9-16.7-21-29-45.2-36.2-71.1h0ZM346.8,160.3c-63.1,1.5-122.1,31.4-160.5,81.4h36l-69.6,157.1h56.5c13.9-95.2,95.1-169.2,194.4-173.2,2.8-.1,5.7-.2,8.5-.2,22.5-.1,44.7,4.2,65.5,12.7,27.1,11.1,50.4,29.7,67.3,53.6h0c-30.2-78.3-104.7-131.4-193.6-131.4s-3,0-4.5,0"/>
    </clipPath>
    <linearGradient id="_名称未設定グラデーション_2" data-name="名称未設定グラデーション 2" x1="0" y1="700" x2="1" y2="700" gradientTransform="translate(152.6 -273964.7) scale(392.3 391.9)" gradientUnits="userSpaceOnUse">
      <stop offset="0" stop-color="#ffa300"/>
      <stop offset=".1" stop-color="#ffa800"/>
      <stop offset=".3" stop-color="#ffb600"/>
      <stop offset=".5" stop-color="#ffcd00"/>
      <stop offset=".5" stop-color="#ffd100"/>
      <stop offset="1" stop-color="#ffd100"/>
    </linearGradient>
    <clipPath id="clippath-4">
      <rect class="cls-1" width="700" height="700"/>
    </clipPath>
  </defs>
  <!-- Generator: Adobe Illustrator 28.7.1, SVG Export Plug-In . SVG Version: 1.2.0 Build 142)  -->
  <g>
    <g id="_レイヤー_1" data-name="レイヤー_1">
      <g class="cls-14">
        <path class="cls-9" d="M606.3,189.3c-92.8-92.9-237.4-109.4-348.8-39.9-30.7,20.4-57.3,46.4-78.4,76.6,0,0-.1.2-.2.3h-58.2L11,474.4h142.3c20.6,38.4,51.8,70,89.8,91.1,72.6,40,161.3,36.6,230.7-8.7,8-5.3,11.7-15.1,9-24.4-2.7-9.2-11.1-15.6-20.7-15.7-2.2,0-4.3.3-6.4,1-14.2,4.3-28.9,6.4-43.7,6.4-42.6.1-83.3-18-111.7-49.7h132.9l22.8-31.8h88.6s-2.7,6.9-4.2,10.2l-9.5,21.6h145l3.1-11.3c26.6-97.7-1.1-202.2-72.7-273.8M664.2,459.1h-109.6c4.5-10.3,8.3-20.9,11.2-31.8h-117.7l-22.7,31.8h-105.5l157.8-221h0c-20.8-8.5-43.1-12.8-65.5-12.7-2.9,0-5.7,0-8.5.2-85.6,4.3-153.9,73-153.9,156.9s.3,10.9.9,16.3h93.2l-27.8,39.1c-8.8,11.8-20.4,21.3-38.1,21.3h-7.6c27.8,48,80.9,80.5,141.8,80.5,16.3,0,32.5-2.4,48.2-7.1.6-.2,1.3-.3,2-.3,2.8.1,5.2,2,5.9,4.7.7,2.7-.3,5.6-2.7,7.1-50.4,32.9-112.6,42.5-170.6,26.2-58-16.3-106.1-56.8-132.1-111.1H34.6l96.1-217.4h55.5c38.5-50,97.5-79.9,160.5-81.4,1.5,0,3,0,4.5,0,88.9,0,163.4,53.2,193.6,131.4l-54.6,76.6h83.2c-.3-74.2-37.5-143.4-99.2-184.7-61.7-41.2-139.9-49.1-208.6-21,93.2-58.1,212.4-53.2,300.4,12.4,88.1,65.5,127,178.3,98.1,284.2M355,383.4h-89.9c0-.3,0-.6,0-.9,0-75.4,61.2-137.6,139.3-141.5,2.6-.1,5.2-.2,7.8-.2,13.8,0,27.6,1.8,40.9,5.3l-98,137.3ZM549.9,311.3c3.9,13.5,6.4,27.4,7.5,41.4h-37.1l29.6-41.4Z"/>
      </g>
      <g class="cls-5">
        <rect class="cls-13" x="265.6" y="122" width="427.5" height="337"/>
      </g>
      <g class="cls-8">
        <path class="cls-3" d="M544.9,291.6l-21.1,29.6c-20.2-20.8-48-32.5-77-32.5-1.8,0-3.6,0-5.4.1l36.3-50.8c27.1,11.1,50.4,29.7,67.3,53.6M565.8,427.3c5.1-19,7.7-38.5,7.7-58.2v-.9h-22.8c5.3,19.4,5,39.9-.8,59.1h15.9Z"/>
        <path class="cls-2" d="M465.5,544c-64.6,42.2-147.3,45.3-214.9,8.1-16.7-21-29-45.2-36.2-71.1,23.4-1.1,57.2.9,82.2,11.7,30.9,30.2,72.4,47,115.6,46.8,16.3,0,32.5-2.4,48.2-7.1.6-.2,1.3-.3,2-.3,2.8.1,5.2,2,5.9,4.7.7,2.7-.3,5.6-2.7,7.1M250.5,398.8c-.6-5.4-.9-10.9-.9-16.3,0-83.9,68.3-152.6,153.9-156.9-99.2,4-180.5,78-194.4,173.2h41.4Z"/>
        <path class="cls-11" d="M270.3,459.1h-60.8c1.2,7.4,2.8,14.8,4.8,22,23.4-1.1,57.2.9,82.2,11.7-10.2-10-19-21.3-26.2-33.7"/>
        <path class="cls-12" d="M162.8,459.1c7.6,15.8,17.1,30.7,28.4,44.1,5.9-9.1,13.8-16.7,23.2-22.1-2-7.2-3.6-14.6-4.8-22h-46.8Z"/>
      </g>
      <g class="cls-6">
        <rect class="cls-4" x="152.6" y="160.2" width="392.3" height="391.9"/>
      </g>
      <g class="cls-7">
        <path class="cls-10" d="M554.4,396.4c0,10.5-1.5,20.9-4.5,30.9h-101.8l-22.7,31.8h-105.5l121.5-170.2c1.8,0,3.6-.1,5.4-.1,29,0,56.8,11.7,77,32.5l-33.5,46.9h60.4c2.5,9.2,3.8,18.7,3.8,28.2M130.7,241.6l-96.1,217.4h243.3c17.7,0,29.3-9.5,38.1-21.3l27.8-39.1h-191.1l69.6-157.1h-91.5Z"/>
      </g>
    </g>
  </g>
</svg>