<svg width="27" height="18" viewBox="0 0 27 18" fill="none" xmlns="http://www.w3.org/2000/svg">
<path fill-rule="evenodd" clip-rule="evenodd" d="M12.6932 16.5649C11.3431 15.6978 10.3427 12.7178 10.3427 9.17256C10.3427 9.04085 10.3427 8.91463 10.3427 8.7884C6.58295 8.18472 3.86132 6.53283 3.79139 4.5791L3.78064 4.60105C2.86087 5.77 2.33376 7.12005 2.33376 8.55791C2.33376 12.7892 6.88416 16.2576 12.6609 16.5649H12.6878H12.6932ZM0.601807 8.86523C0.601807 4.12909 6.37856 0.292969 13.5 0.292969C20.6214 0.292969 26.3982 4.12909 26.3982 8.86523C26.3982 13.6014 20.6214 17.4375 13.5 17.4375C6.37856 17.4375 0.601807 13.6014 0.601807 8.86523ZM13.5 1.52777C14.877 1.52777 16.0441 3.65712 16.4798 6.62613C19.153 6.19806 21.0302 5.21571 21.0302 4.07421C21.0302 2.54305 17.6578 1.30276 13.5 1.30276C9.34224 1.30276 5.96978 2.54305 5.96978 4.07421C5.96978 5.21571 7.84158 6.19258 10.5202 6.62064C10.9559 3.65712 12.123 1.52777 13.5 1.52777ZM14.3337 16.5594C20.1105 16.2521 24.6609 12.7837 24.6609 8.55242C24.6609 7.11456 24.1337 5.76451 23.214 4.59557L23.2032 4.57361C23.1333 6.52734 20.417 8.17923 16.6519 8.78292C16.6519 8.90914 16.6519 9.03536 16.6519 9.16708C16.6519 12.7123 15.6569 15.6923 14.3014 16.5594H14.3229H14.3337ZM13.5 6.85114C14.1186 6.85114 14.7156 6.8237 15.2857 6.7743C15.0007 4.86997 14.3068 3.5254 13.5 3.5254C12.6932 3.5254 11.9993 4.86997 11.7143 6.7743C12.2898 6.8237 12.8868 6.85114 13.5 6.85114ZM13.5 13.8977C14.5327 13.8977 15.3826 11.697 15.4256 8.94207H15.431C14.807 9.00243 14.1616 9.03536 13.5 9.03536C12.8384 9.03536 12.193 9.00244 11.569 8.94756H11.5744C11.6174 11.7025 12.4619 13.9032 13.5 13.9032V13.8977Z" fill="black"/>
</svg>
