<svg width="26" height="27" viewBox="0 0 26 27" fill="none" xmlns="http://www.w3.org/2000/svg">
<g id="Group">
<g id="Layer_1">
<g id="Group_2">
<g id="Group_3">
<path id="Vector" d="M13.1277 26.6741C10.6312 26.6626 8.72541 25.9726 7.8088 25.489C6.014 24.5472 4.53509 23.2994 3.26207 21.5684C1.43192 19.0862 1.07786 17.0881 0.931335 15.9995C0.846058 15.433 0.744292 14.0711 0.935339 12.8492C1.15159 11.0862 1.55277 10.208 1.83899 9.34889C2.0616 8.73782 2.7808 7.26763 3.20741 6.59319C3.56996 6.06504 4.23214 5.0912 4.50187 4.7475C4.5756 4.63938 4.4802 4.69026 4.43944 4.69167C4.34003 4.7157 4.28915 4.72206 4.21283 4.7157C4.15559 4.7157 4.04109 4.69662 3.97749 4.67754C3.62107 4.60121 3.11177 4.20664 3.17561 3.51924C3.16289 3.36659 3.32826 2.05541 3.45546 1.64811C3.62107 1.0752 3.96477 0.808064 4.5756 0.757181C4.8809 0.757181 6.16664 0.731743 6.75062 0.822673C7.91999 0.939044 8.77606 1.27897 9.28536 2.30982C9.69266 3.21371 9.55273 4.62666 8.99254 5.7084C8.8015 6.07753 8.41964 6.76492 8.08866 7.21062C7.78336 7.65609 7.65592 7.88506 7.38879 8.38165C7.12141 8.90343 6.23025 10.8509 5.92495 12.1239C5.34427 14.4992 5.6703 15.8662 6.79044 17.7244C7.61799 18.9592 8.58525 19.8504 9.33624 20.2572C10.5709 21.0339 12.2639 21.2501 13.1421 21.2501" fill="white"/>
<path id="Vector_2" d="M13.1294 21.2502C14.0076 21.2502 15.7006 21.0339 16.9355 20.2573C17.6863 19.8507 18.6535 18.9593 19.4811 17.7244C20.6012 15.866 20.9277 14.4992 20.3468 12.124C20.0413 10.8512 19.1501 8.90349 18.883 8.3817C18.6158 7.88536 18.4884 7.65615 18.1828 7.21069C17.8521 6.76499 17.4698 6.07759 17.279 5.70845C16.7188 4.62672 16.5789 3.21377 16.9862 2.30988C17.4955 1.27903 18.3517 0.939103 19.5209 0.822731C20.1046 0.731565 21.3901 0.757239 21.6957 0.757239C22.3067 0.808122 22.6504 1.0755 22.816 1.64817C22.943 2.05547 23.1086 3.36665 23.0957 3.5193C23.1595 4.20669 22.6502 4.60127 22.294 4.6776C22.2306 4.69668 22.1157 4.71576 22.0587 4.71576C21.9821 4.72189 21.9312 4.71576 21.8318 4.69173C21.7913 4.69032 21.6957 4.63943 21.7696 4.74756C22.0394 5.09126 22.7013 6.06511 23.0641 6.59326C23.4905 7.2677 24.2094 8.73789 24.4323 9.34896C24.7187 10.2081 25.1197 11.0863 25.3362 12.8493C25.527 14.071 25.4252 15.433 25.3402 15.9996C25.1936 17.0879 24.8401 19.086 23.0092 21.5684C21.7367 23.2994 20.2573 24.5472 18.4629 25.489C17.5463 25.9727 15.6403 26.6627 13.1438 26.6742" fill="white"/>
</g>
<path id="Vector_3" d="M7.55442 24.6497C5.92522 23.6822 4.44843 22.4605 3.02299 20.1081C2.38648 18.9472 0.90993 16.478 1.63808 12.1755C2.47812 8.24244 4.16857 6.25681 5.13583 4.89475C5.59401 4.2328 5.1231 3.85094 4.75397 3.9911C4.44466 4.10841 4.23218 4.11571 4.23218 4.11571C3.68471 4.04198 3.76127 3.68557 3.86304 2.75648L3.99025 1.99276C4.10473 1.31832 4.41026 1.33104 5.21214 1.34612C6.48493 1.37156 6.71414 1.38169 7.40154 1.50913C8.3179 1.71266 9.5146 2.62903 8.57256 5.1494C7.98693 6.49874 7.37586 6.95693 6.71414 8.35692C6.00131 9.9098 4.27034 13.3974 5.44136 16.376C7.04536 20.3727 10.1509 21.7983 13.104 21.8494C16.0571 21.8113 19.4684 20.0676 20.8328 16.376C22.0041 13.3974 20.2726 9.9098 19.56 8.35692C18.8978 6.95693 18.287 6.49851 17.7016 5.1494C16.7598 2.62903 17.956 1.71266 18.8726 1.50913C19.56 1.38169 19.7892 1.37156 21.062 1.34612C21.8641 1.33104 22.1697 1.31832 22.2839 1.99276L22.4111 2.75648C22.5129 3.68557 22.5895 4.04198 22.0422 4.11571C22.0422 4.11571 21.8297 4.10841 21.5202 3.9911C21.1511 3.85094 20.6802 4.2328 21.1383 4.89475C22.1056 6.25681 23.796 8.24244 24.6363 12.1755C25.3642 16.478 23.8877 18.9472 23.2514 20.1081C21.8257 22.4605 20.3492 23.6822 18.72 24.6497C16.4898 26.2025 12.3151 26.1137 13.1169 26.0626C13.957 26.1262 10.0491 26.2282 7.55442 24.6497Z" fill="#00397B"/>
<g id="Group_4">
<path id="Vector_4" d="M19.6943 5.05746C19.6943 4.89209 19.5605 4.75781 19.3949 4.75781C19.2293 4.75781 19.0952 4.89209 19.0952 5.05746C19.0952 5.22283 19.2293 5.3571 19.3949 5.3571C19.5605 5.3571 19.6943 5.22283 19.6943 5.05746Z" fill="white"/>
<path id="Vector_5" d="M23.2074 13.2037C23.2074 13.0383 23.0732 12.9043 22.9076 12.9043C22.742 12.9043 22.6079 13.0383 22.6079 13.2037C22.6079 13.3691 22.7422 13.5034 22.9076 13.5034C23.0729 13.5034 23.2074 13.3693 23.2074 13.2037Z" fill="white"/>
<path id="Vector_6" d="M21.4255 20.1278C21.4255 19.9622 21.2912 19.8281 21.1256 19.8281C20.96 19.8281 20.8262 19.9619 20.8262 20.1278C20.8262 20.2936 20.9604 20.4276 21.1256 20.4276C21.2907 20.4276 21.4255 20.2934 21.4255 20.1278Z" fill="white"/>
<path id="Vector_7" d="M6.88021 5.3571C7.04582 5.3571 7.17986 5.22283 7.17986 5.05746C7.17986 4.89209 7.04582 4.75781 6.88021 4.75781C6.71461 4.75781 6.58057 4.89209 6.58057 5.05746C6.58057 5.22283 6.71461 5.3571 6.88021 5.3571Z" fill="white"/>
<path id="Vector_8" d="M3.36703 13.5034C3.53263 13.5034 3.66667 13.3693 3.66667 13.2037C3.66667 13.0381 3.53263 12.9043 3.36703 12.9043C3.20142 12.9043 3.06738 13.0383 3.06738 13.2037C3.06738 13.3691 3.20166 13.5034 3.36703 13.5034Z" fill="white"/>
<path id="Vector_9" d="M5.14926 20.4276C5.31486 20.4276 5.4489 20.2934 5.4489 20.1278C5.4489 19.9622 5.31463 19.8281 5.14926 19.8281C4.98389 19.8281 4.84961 19.9619 4.84961 20.1278C4.84961 20.2936 4.98389 20.4276 5.14926 20.4276Z" fill="white"/>
<path id="Vector_10" d="M13.1224 24.2206C13.2878 24.2206 13.422 24.0863 13.422 23.9205C13.422 23.7547 13.2878 23.6211 13.1224 23.6211C12.957 23.6211 12.8228 23.7549 12.8228 23.9205C12.8228 24.0861 12.9568 24.2206 13.1224 24.2206Z" fill="white"/>
</g>
</g>
</g>
</g>
</svg>
