<?xml version="1.0" encoding="UTF-8"?>
<svg xmlns="http://www.w3.org/2000/svg" width="612" height="792" version="1.1" viewBox="0 0 612 792">
  <!-- Generator: Adobe Illustrator 28.7.1, SVG Export Plug-In . SVG Version: 1.2.0 Build 142)  -->
  <g>
    <g id="Layer_1">
      <g>
        <g>
          <path d="M302.238,445.518c-10.598-.049-18.688-2.978-22.579-5.031-7.619-3.998-13.897-9.295-19.301-16.643-7.769-10.537-9.272-19.019-9.894-23.64-.362-2.405-.794-8.186.017-13.373.918-7.484,2.621-11.212,3.836-14.859.945-2.594,3.998-8.835,5.809-11.698,1.539-2.242,4.35-6.376,5.495-7.835.313-.459-.092-.243-.265-.237-.422.102-.638.129-.962.102-.243,0-.729-.081-.999-.162-1.513-.324-3.675-1.999-3.404-4.917-.054-.648.648-6.214,1.188-7.943.703-2.432,2.162-3.566,4.755-3.782,1.296,0,6.754-.108,9.233.278,4.964.494,8.598,1.937,10.76,6.313,1.729,3.837,1.135,9.835-1.243,14.427-.811,1.567-2.432,4.485-3.837,6.377-1.296,1.891-1.837,2.863-2.971,4.971-1.135,2.215-4.918,10.482-6.214,15.886-2.465,10.083-1.081,15.886,3.674,23.774,3.513,5.242,7.619,9.025,10.807,10.752,5.241,3.297,12.428,4.215,16.156,4.215" fill="#fff"/>
          <path d="M302.246,422.492c3.728,0,10.915-.918,16.157-4.215,3.187-1.726,7.293-5.51,10.806-10.752,4.755-7.889,6.141-13.691,3.675-23.774-1.297-5.403-5.08-13.671-6.214-15.886-1.134-2.107-1.675-3.08-2.972-4.971-1.404-1.892-3.027-4.81-3.837-6.377-2.378-4.592-2.972-10.59-1.243-14.427,2.162-4.376,5.797-5.819,10.76-6.313,2.478-.387,7.935-.278,9.232-.278,2.594.216,4.053,1.351,4.756,3.782.539,1.729,1.242,7.295,1.187,7.943.271,2.918-1.891,4.593-3.403,4.917-.269.081-.757.162-.999.162-.325.026-.541,0-.963-.102-.172-.006-.578-.222-.264.237,1.145,1.459,3.955,5.593,5.495,7.835,1.81,2.863,4.862,9.104,5.808,11.698,1.216,3.647,2.918,7.375,3.837,14.859.81,5.186.378,10.968.017,13.373-.622,4.62-2.123,13.102-9.895,23.64-5.402,7.348-11.682,12.645-19.299,16.643-3.891,2.053-11.982,4.982-22.58,5.031" fill="#fff"/>
        </g>
        <path d="M278.579,436.92c-6.916-4.107-13.185-9.293-19.236-19.279-2.702-4.928-8.97-15.41-5.879-33.674,3.566-16.696,10.742-25.125,14.848-30.907,1.945-2.81-.054-4.431-1.621-3.836-1.313.498-2.215.529-2.215.529-2.324-.313-1.999-1.826-1.567-5.77l.54-3.242c.486-2.863,1.783-2.809,5.187-2.745,5.403.108,6.376.151,9.294.692,3.89.864,8.97,4.754,4.971,15.453-2.486,5.728-5.08,7.673-7.889,13.616-3.026,6.592-10.374,21.397-5.403,34.041,6.809,16.966,19.992,23.018,32.528,23.235,12.536-.162,27.017-7.564,32.809-23.235,4.972-12.644-2.378-27.449-5.403-34.041-2.811-5.943-5.404-7.889-7.889-13.616-3.998-10.699,1.08-14.589,4.971-15.453,2.918-.541,3.891-.584,9.294-.692,3.405-.064,4.702-.118,5.187,2.745l.54,3.242c.432,3.944.757,5.457-1.566,5.77,0,0-.902-.031-2.216-.529-1.567-.595-3.566,1.026-1.621,3.836,4.106,5.782,11.282,14.211,14.849,30.907,3.09,18.264-3.178,28.746-5.879,33.674-6.052,9.986-12.32,15.172-19.236,19.279-9.467,6.592-27.189,6.215-23.785,5.998,3.566.27-13.022.703-23.612-5.998Z" fill="#00397b"/>
        <g>
          <path d="M330.111,353.755c0-.702-.568-1.272-1.271-1.272s-1.272.57-1.272,1.272.569,1.272,1.272,1.272,1.271-.57,1.271-1.272Z" fill="#fff"/>
          <path d="M345.025,388.336c0-.702-.57-1.271-1.273-1.271s-1.272.569-1.272,1.271.57,1.272,1.272,1.272,1.273-.569,1.273-1.272Z" fill="#fff"/>
          <path d="M337.461,417.731c0-.703-.57-1.272-1.273-1.272s-1.271.568-1.271,1.272.57,1.273,1.271,1.273,1.273-.57,1.273-1.273Z" fill="#fff"/>
          <path d="M275.716,355.027c.703,0,1.272-.57,1.272-1.272s-.569-1.272-1.272-1.272-1.272.57-1.272,1.272.569,1.272,1.272,1.272Z" fill="#fff"/>
          <path d="M260.803,389.608c.703,0,1.272-.569,1.272-1.272s-.569-1.271-1.272-1.271-1.272.569-1.272,1.271.57,1.272,1.272,1.272Z" fill="#fff"/>
          <path d="M268.368,419.004c.703,0,1.272-.57,1.272-1.273s-.57-1.272-1.272-1.272-1.272.568-1.272,1.272.57,1.273,1.272,1.273Z" fill="#fff"/>
          <path d="M302.214,435.106c.702,0,1.272-.57,1.272-1.274s-.57-1.271-1.272-1.271-1.272.568-1.272,1.271.569,1.274,1.272,1.274Z" fill="#fff"/>
        </g>
      </g>
    </g>
  </g>
</svg>