<?xml version="1.0" encoding="UTF-8"?>
<svg xmlns="http://www.w3.org/2000/svg" width="282.702" height="223.429" version="1.1" viewBox="0 0 282.702 223.429">
  <!-- Generator: Adobe Illustrator 28.7.1, SVG Export Plug-In . SVG Version: 1.2.0 Build 142)  -->
  <g>
    <g id="_图层_1" data-name="图层_1">
      <g>
        <path d="M194.511,67.398c-4.193-8.299-9.818-12.869-14.763-16.503-2.767-2.033-4.678-3.418-5.916-4.31,1.25-4.191.715-9.711-1.547-14.356-2.162-4.438-5.178-5.707-7.327-5.989-5.879-.774-11.409,4.792-13.513,7.22-.31.359-.699.771-1.125,1.21-.774-.093-1.607-.164-2.44-.215l1.855-2.059-11.582-.014h-.07l-.069.003c-8.838.418-15.396,1.867-20.934,4.646l-2.295-1.797c-4.777-3.825-10.256-7.765-14.85-6.101-1.653.599-3.802,2.185-4.654,6.342-1.391,6.784,2.707,12.033,4.91,14.852.109.141.23.295.349.451-2.369,2.383-7.282,7.473-10.555,14.579l-2.629,5.709,6.033-1.728c.341-.09.737-.123,1.067-.114-.323.545-.783,1.237-1.184,1.841-1.364,2.054-3.23,4.867-5.127,8.958-4.06,8.756-2.467,18.785,4.369,27.514,5.127,6.547,10.796,12.023,11.035,12.254l2.232,2.147,1.977-2.385c.895-1.08,1.487-.954,2.115-.695,2.295.944,4.481,4.506,4.918,6.636l-5.359,5.473,5.104,2.674-1.376,1.166,1.389,2.134c.181.278,4.545,6.84,13.339,7.818,10.056,1.119,17.44-1.446,22.484-7.829l.146.073,4.864,2.442-.723-5.404c-.412-3.084.603-5.697,1.386-6.701,1.756-2.246,7.301-7.221,20.868-4.911l6.535,1.113-4.035-6.131c3.073-.944,6.706-1.348,8.772-1.37l5.75-.062-5.32-6.963c1.918-.632,4.966-1.263,9.411-1.191l2.867.047.057-2.872c.326-16.08-1.782-28.38-6.439-37.602" fill="#fff"/>
        <path d="M198.074,104.942c-10.094-.162-13.883,3.027-13.883,3.027l3.965,5.189c-2.656.028-9.048.701-13.063,2.926l2.305,3.502c-12.793-2.178-20.245,1.659-23.617,5.978-1.189,1.522-2.774,4.799-1.444,9.068l-2.88-1.387c-5.063,7.988-12.909,9.576-21.25,8.648-7.545-.838-11.245-6.527-11.245-6.527l2.708-2.29-5.465-2.863,3.528-3.604c.401-4.648-7.058-15.086-12.188-8.898,0,0-5.703-5.491-10.764-11.954-5.425-6.926-7.977-15.991-4.023-24.518,4.122-8.893,8.188-11.573,6.626-13.646-1.487-1.971-4.783-1.027-4.783-1.027,4.212-9.146,11.344-14.748,11.404-15.295.551-1.594-7.558-7.138-5.902-15.215,1.753-8.552,9.571-2.825,14.887,1.431,1.007.807,2.491,1.963,3.793,2.97,4.778-2.746,10.996-4.7,21.368-5.191l6.514.008-2.061,1.948s5.414-.15,8.737.525c.841-.854,1.666-1.689,2.278-2.395,4.142-4.779,11.9-10.437,16.081-1.858,2.533,5.201,2.357,11.042.608,14.118,0,0,2.089,1.458,7.737,5.61,9.652,7.091,20.731,16.947,20.028,51.72"/>
      </g>
      <path d="M116.969,110.674c-1.376-.23-2.628-.539-3.762-.913.19,1.186.506,2.46,1.036,3.53,1.339,2.706,2.722,3.072,3.305,2.91.583-.163-.38-1.595-.551-4.2-.03-.457-.037-.903-.028-1.327" fill="#fff"/>
      <path d="M133.701,110.257c.118.325.231.66.334,1.006.871,2.932.396,4.896,1.103,4.837.706-.06,2.075-1.025,2.446-4.545.081-.769.073-1.51.013-2.21-1.2.351-2.497.657-3.896.912" fill="#fff"/>
      <path d="M122.515,111.127c-1.479-.009-2.848-.098-4.12-.25-.137.03-.22.047-.22.047l1.223,2.538,1.374-1.439,1.243.691,1.545-.761,3.009.922,1.282-.762,3,1.299.046-2.73c-2.499.305-5.278.466-8.382.445" fill="#fff"/>
      <path d="M160.241,97.845c17.277-18.305,3.896-40.624,3.896-40.624.019,0,.035.003.055.003-3.472-2.973-6.45-4.438-6.904-4.652,1.791-1.536,2.482-3.54,2.714-4.452,0-.003,0-.007.003-.01.018-.071.033-.134.047-.191.002-.009.003-.018.006-.028.01-.048.02-.091.026-.127.002-.017.004-.026.007-.04.012-.057.02-.099.02-.099l-4.061-.008c.687-.703,1.308-1.596,1.851-2.542.029-.049.055-.1.083-.151.181-.321.351-.645.514-.971.084-.166.165-.331.243-.497.164-.345.317-.685.459-1.017.198-.463.375-.905.529-1.312.177-.465.326-.886.44-1.228.2-.594.306-.961.306-.961-.449.302-.91.579-1.373.836-.02.012-.041.025-.062.036-.45.249-.9.475-1.346.684-.032.015-.064.031-.095.045-.441.206-.874.391-1.294.559-.03.012-.06.026-.092.037-.423.168-.831.319-1.214.452-1.746.607-3.009.866-3.009.866l-4.003,2.466,1.973-3.677c-6.329-1.114-13.249.461-16.924,1.542-.808.141-1.642.338-2.456.597l1.817-2.669s-11.375.326-16.316,6.894c-5.335,7.093-5.84,11.082-5.84,11.082,0,0,1.696-4.757,6.704-8.268.568-.431,1.198-.87,1.849-1.227,0,0,1.805-1.285,5.814-1.979.152-.03.291-.072.447-.101-.012.013-.022.024-.033.036,1.788-.281,3.975-.445,6.616-.335,4.722.196,15.311-2.962,17.654,2.389,2.917,6.668-7.422,16.527-7.422,16.527,2.479-7.729.94-15.519-10.791-15.362-4.851.066-9.152,2.172-11.996,4.009-.529.713-1.059,1.433-1.614,2.178-4.309,5.785-.916,11.137-.916,11.137,2.623-1.34,4.775-.854,6.024-.358-1.938.174-3.286.944-3.942,2.989-.787,2.453,1.549,5.588,4.159,8.335-2.245.024-3.396-.999-4.769,2.743-1.373,3.74-3.476,10.044-3.476,10.044-1.254-2.717.057-6.923.378-8.513,0,0-1.222-1.16-2.258.215-2.246,2.985-4.505,5.752-7.532,9.933-.451.917-.587,1.958.379,3.264l-.052-.033c1.911,2.597,4.469,4.578,7.137,6.03,0,0-4.478-.298-8.481-3.449.027.098.058.199.09.301,2.3,2.714,6.055,6.034,11.364,7.177,0,0-3.191-.033-7.117-1.046,2.131,1.686,5.245,3.097,9.754,3.622.748-.108,1.598-.371,2.387-.949-2.554-2.107-6.951-6.258-9.017-11.301l.983-1.421s.928-.679,2.38-.372c1.36.288,2.81,2.009,4.695,2.139,3.008.208,3.067-2.148,8.734-1.876l3.996,2.175s-3.149,2.068-5.22,4.3c-1.783,1.923-2.424,4.404-2.654,5.977.509.471,2.572,1.721,9.468.523,5.283-.812,8.106-1.995,11.055-4.072-7.82,3.016-16.161,2.203-16.161,2.203,14.401-2.178,20.495-9.955,22.19-12.615-.002-.005-.002-.01-.004-.016-7.875,7.132-17.428,7.915-17.428,7.915,7.714-2.864,12.703-7.801,15.219-10.855.705-1.12.976-1.867.905-2.739-.015-.06-.031-.12-.047-.179-1.549-5.69-5.067-4.072-12.096.988,0,0,.339-3.078.249-4.915-.142-2.92-3.476-.85-5.421.398,0,0,1.23-4.597-.349-5.643-1.048-.695-4.452.023-4.452.023,4.666-4.636,7.663-5.019,6.836-8.18-.824-3.162-4.649-3.088-4.649-3.088,0,0,8.678-2.356,9.819,4.567,0,0,3.628-.169,7.349-2.124,6.002-3.155,6.957-11.312,6.957-11.312,2.793,2.401,5.1,17.085-5.764,21.004,5.155.69,9.1,8.519,4.998,19.856-1.023,2.827-1.85,4.306-1.85,4.306-.616,1.176-2.019,4.094-3.072,7.481,2.772-.489,7.233-1.878,12.412-5.798,6.136-5.608,7.126-11.113,7.126-11.113l-7.546,3.612" fill="#ef3c23"/>
      <path d="M111.58,96.696l.095-.138c-2.408-1.185-4.328-2.926-5.747-4.568-.255.349-.528.727-.795,1.096-.449.915-.582,1.955.382,3.258l-.052-.032c1.911,2.596,4.469,4.577,7.137,6.03,0,0-4.475-.298-8.478-3.448.028.099.058.199.09.302,2.3,2.714,6.055,6.032,11.362,7.174,0,0-3.181-.032-7.098-1.041,2.129,1.68,5.218,3.096,9.712,3.621.753-.106,1.613-.37,2.409-.952-2.553-2.107-6.95-6.258-9.017-11.302" fill="#fff"/>
      <path d="M133.963,108.141c5.207-.81,8.093-2.013,11.02-4.059-7.81,3-16.127,2.19-16.127,2.19,14.4-2.178,20.495-9.955,22.191-12.615-.002-.005-.003-.01-.004-.016-7.876,7.132-17.428,7.915-17.428,7.915,7.714-2.864,12.703-7.801,15.218-10.855.706-1.12.977-1.867.906-2.739-.016-.06-.032-.12-.047-.179-.013-.048-.03-.086-.043-.135-5.67,6.715-12.936,8.904-17.429,9.611l.148.082s-3.15,2.068-5.221,4.3c-1.783,1.923-2.423,4.404-2.653,5.978.509.471,2.571,1.721,9.468.522" fill="#fff"/>
      <path d="M125.496,51.317c-2.52.796-4.722,1.969-6.408,3.057-.531.714-1.063,1.434-1.619,2.182-4.309,5.784-.917,11.136-.917,11.136.355-.18.7-.323,1.037-.442-.251-3.232.457-9.588,8.013-15.954l-.106.021" fill="#fff"/>
      <path d="M149.6,53.651c-1.242,5.889-7.73,12.079-7.73,12.079,2.093-6.525,1.295-13.075-6.057-14.867,4.334,7.45,3.358,13.911,2.043,17.661.851.753,1.514,1.83,1.774,3.41,0,0,3.626-.169,7.349-2.125,6.002-3.155,6.957-11.312,6.957-11.312,2.793,2.401,5.099,17.085-5.764,21.004,1.031.138,2.009.574,2.889,1.254,3.83-1.678,6.202-4.617,6.99-9.916,1.105-7.441-1.601-15.704-8.451-17.188" fill="#fff"/>
      <path d="M131.017,56.99c-3.89-.235-5.464-.446-9.126,2.249-1.433,1.055-3.09,3.163-1.689,4.261.283.553,1.067-.138,1.896-.425,3.314-1.706,5.729-1.921,9.365.544.839.547,3.718.587,4.258-.81,1.367-1.962.047-5.369-4.704-5.819"/>
      <path d="M115.527,57.086s6.906-6.601,15.552-6.718c11.731-.156,13.27,7.633,10.791,15.362,0,0,10.339-9.858,7.422-16.527-2.343-5.351-12.932-2.193-17.654-2.389-8.986-.372-12.845,2.379-12.845,2.379-2.023,1.112-3.933,3.016-3.933,3.016"/>
      <path d="M135.275,125.293c3.368-.719,3.77-4.434,3.77-4.434,1.349,4.184-.785,5.772-.785,5.772-8.841-.607-13.402.531-13.402.531-2.842-1.565-2.659-5.045-2.659-5.045,1.637,1.587,3.492,2.979,5.231,3.41l-.485-1.31s2.702,1.872,7.986-.197l.344,1.273" fill="#fff"/>
      <path d="M101.157,87.087l-3.354,4.024c-.613-8.597,2.405-15.923,2.405-15.923-17.822,20.794,5.075,32.496,5.075,32.496,0,0-7.238-10.079-4.126-20.597" fill="#ef3c23"/>
      <path d="M183.67,69.471c-4.136-8.24-17.415-16.839-20.9-18.996.838-.856,1.868-2.05,2.92-3.621,2.218-3.318,1.911-6.678,1.911-6.678l-2.534,1.042c2.333-4.298,1.334-7.355-1.273-7.624-4.294.614-9.718,6.526-11.688,8.834.702-.156,4.87-1.144,8.369-3.49,0,0-1.678,5.867-4.425,8.679l4.061.008s-.432,2.898-2.822,4.947c.97.459,13.235,6.414,17.463,20.828l.117.573c1.791,6.198,1.405,10.965,1.405,10.965l3.919-2.374s-.093,10.25-7.723,18.609c-2.299,2.518-4.89,4.511-7.525,6.108l.375-.125c-2.688,1.362-4.889,2.731-6.698,4.052-7.858,4.617-9.457,10.494-9.457,10.494l-2.535-4.073c-.105,1.425-.336,2.976-.629,4.532-1.811,6.359-4.902,8.09-7.176,8.759-2.771.814-5.315.808-5.315.808-4.898.141-7.312-.118-9.944-.741-1.061.226-1.099,1.506-.476,2.277.655,1.001.47.535,1.019,1.226.998-.512,3.917-1.142,4.916-1.653-.854.652-2.203,2.169-2.571,3.294.231.221.465.417.709.59,1.323-.302,3.197-1.327,4.333-2.143-.148.886-.865,1.461-.998,2.426,1.785.197,3.869.361,8.011-.659,1.427-.35,3.24-1.179,4.791-3.028,2.783-2.232,4.36-9.664,4.36-9.664l1.864,3.237c1.637-8.365,7.792-11.437,7.792-11.437l.026-.039c4.516-2.626,11.179-5.139,19.682-4.57l-3.656-3.96c6.738-5.379,14.957-7.287,14.957-7.287,0,0,2.143-16.822-4.183-29.33l-.472-.796" fill="#fff"/>
      <path d="M142.665,78.304c2.096-.127,3.691-1.932,3.566-4.031-.008-.123-.039-.238-.059-.358-.583-.004-1.229.075-1.797.265.045.16.079.326.09.499.075,1.247-.873,2.318-2.116,2.394-.988.059-1.856-.532-2.214-1.399-.804.197-.939.58-.85.931.726,1.09,1.982,1.784,3.381,1.699" fill="#fff"/>
      <path d="M142.899,75.33c.259-.003.467-.216.465-.476-.003-.26-.216-.467-.475-.465-.26.003-.469.216-.465.476.004.26.216.469.475.465" fill="#fff"/>
      <path d="M114.456,76.448c-.486.803-1.434,1.254-2.402,1.045-1.218-.264-1.991-1.469-1.728-2.689.037-.17.095-.328.165-.48-.532-.274-1.159-.451-1.736-.536-.036.116-.086.224-.111.345-.445,2.056.858,4.083,2.91,4.528,1.37.298,2.716-.197,3.599-1.164.141-.333.066-.731-.697-1.049" fill="#fff"/>
      <path d="M111.814,75.667c.26-.003.468-.216.465-.476-.003-.259-.215-.468-.475-.465-.259.003-.467.217-.464.476.003.26.215.469.474.465" fill="#fff"/>
      <path d="M105.702,41.497l2.746-.626-3.549-5.001c11.066,4.055,5.809,13.054,5.809,13.054,0,0-.41-6.026-5.006-7.427" fill="#fff"/>
    </g>
  </g>
</svg>