<svg width="30" height="31" viewBox="0 0 30 31" fill="none" xmlns="http://www.w3.org/2000/svg">
<g id="&#229;&#155;&#190;&#229;&#177;&#130;_1">
<g id="Group">
<path id="Vector" d="M27.9209 11.176C26.8745 9.10495 25.4708 7.96451 24.2368 7.05764C23.5463 6.55031 23.0694 6.20468 22.7604 5.98208C23.0724 4.93622 22.9389 3.5587 22.3744 2.39954C21.8349 1.29203 21.0822 0.975356 20.5459 0.904983C19.0788 0.711831 17.6988 2.10083 17.1738 2.70673C17.0964 2.79632 16.9993 2.89914 16.893 3.00869C16.6999 2.98548 16.492 2.96776 16.2841 2.95504L16.747 2.44121L13.8567 2.43772H13.8393L13.8221 2.43847C11.6165 2.54278 9.97998 2.90438 8.59797 3.59788L8.02526 3.14944C6.83316 2.19491 5.46587 1.21168 4.31944 1.62693C3.90693 1.77641 3.37065 2.1722 3.15803 3.20958C2.81091 4.90253 3.83356 6.21241 4.38332 6.9159C4.41052 6.95108 4.44072 6.98951 4.47042 7.02844C3.87923 7.62312 2.65319 8.89333 1.83641 10.6666L1.18035 12.0913L2.68588 11.6601C2.77098 11.6376 2.8698 11.6294 2.95215 11.6316C2.87155 11.7677 2.75676 11.9403 2.65669 12.0911C2.3163 12.6036 1.85064 13.3056 1.37724 14.3265C0.364067 16.5116 0.761602 19.0143 2.46753 21.1927C3.74697 22.8265 5.16167 24.193 5.22131 24.2506L5.77831 24.7864L6.27167 24.1913C6.49502 23.9217 6.64275 23.9532 6.79947 24.0178C7.37218 24.2534 7.9177 25.1423 8.02675 25.6738L6.68941 27.0396L7.96312 27.7069L7.61974 27.9979L7.96636 28.5304C8.01153 28.5998 9.10057 30.2374 11.2951 30.4814C13.8046 30.7607 15.6473 30.1206 16.906 28.5277L16.9424 28.5459L18.1562 29.1553L17.9758 27.8067C17.873 27.0371 18.1263 26.385 18.3217 26.1345C18.7599 25.574 20.1437 24.3325 23.5293 24.909L25.1601 25.1867L24.1532 23.6567C24.92 23.4211 25.8267 23.3203 26.3422 23.3148L27.7771 23.2994L26.4495 21.5617C26.9282 21.404 27.6888 21.2466 28.7981 21.2645L29.5135 21.2763L29.5277 20.5596C29.6091 16.5468 29.083 13.4773 27.9209 11.176Z" fill="white"/>
<path id="Vector_2" d="M28.8101 20.5459C26.2912 20.5054 25.3456 21.3013 25.3456 21.3013L26.3351 22.5962C25.6723 22.6032 24.0772 22.7711 23.0752 23.3264L23.6504 24.2003C20.4579 23.6568 18.5983 24.6143 17.7568 25.6921C17.4601 26.0719 17.0646 26.8897 17.3965 27.955L16.6778 27.6089C15.4143 29.6023 13.4563 29.9986 11.3748 29.767C9.49196 29.5579 8.56863 28.1382 8.56863 28.1382L9.24441 27.5667L7.88062 26.8522L8.76103 25.9529C8.8611 24.793 6.99971 22.1882 5.71951 23.7324C5.71951 23.7324 4.29633 22.3621 3.03336 20.7492C1.67955 19.0209 1.0427 16.7587 2.02942 14.6308C3.05806 12.4115 4.07273 11.7427 3.68294 11.2254C3.31185 10.7336 2.48934 10.9691 2.48934 10.9691C3.54044 8.68674 5.32023 7.28876 5.33521 7.15226C5.47271 6.75448 3.44911 5.37097 3.86236 3.35536C4.29982 1.2212 6.2508 2.65038 7.57741 3.71246C7.82871 3.91385 8.19904 4.20233 8.52396 4.45363C9.71631 3.76836 11.268 3.28074 13.8563 3.15821L15.4819 3.16021L14.9676 3.64633C14.9676 3.64633 16.3187 3.6089 17.1479 3.77734C17.3578 3.56423 17.5637 3.35585 17.7164 3.17967C18.75 1.98707 20.686 0.575117 21.7294 2.71601C22.3615 4.01392 22.3176 5.47154 21.8811 6.23916C21.8811 6.23916 22.4024 6.603 23.8119 7.63913C26.2206 9.40869 28.9853 11.8683 28.8099 20.5459" fill="black"/>
</g>
<path id="Vector_3" d="M8.57016 21.9759C8.22677 21.9185 7.91434 21.8414 7.63135 21.748C7.67876 22.044 7.75762 22.3619 7.88988 22.629C8.22403 23.3042 8.56916 23.3956 8.71464 23.3551C8.86013 23.3145 8.61982 22.9571 8.57714 22.307C8.56966 22.193 8.56791 22.0817 8.57016 21.9759Z" fill="white"/>
<path id="Vector_4" d="M12.7456 21.8721C12.7751 21.9532 12.8033 22.0368 12.829 22.1232C13.0463 22.8548 12.9278 23.345 13.1042 23.3302C13.2804 23.3153 13.622 23.0745 13.7146 22.196C13.7348 22.0041 13.7328 21.8192 13.7179 21.6445C13.4184 21.7321 13.0947 21.8085 12.7456 21.8721Z" fill="white"/>
<path id="Vector_5" d="M9.95414 22.0876C9.58506 22.0854 9.24342 22.0632 8.92599 22.0252C8.8918 22.0327 8.87109 22.037 8.87109 22.037L9.17629 22.6703L9.51918 22.3112L9.82937 22.4836L10.2149 22.2937L10.9658 22.5238L11.2857 22.3337L12.0344 22.6578L12.0459 21.9766C11.4222 22.0527 10.7287 22.0929 9.95414 22.0876Z" fill="white"/>
<path id="Vector_6" d="M19.3688 18.7745C23.6802 14.2065 20.341 8.63674 20.341 8.63674C20.3458 8.63674 20.3498 8.63749 20.3547 8.63749C19.4883 7.89558 18.7451 7.52999 18.6318 7.47659C19.0788 7.09328 19.2512 6.59318 19.3091 6.36559C19.3091 6.36484 19.3091 6.36384 19.3099 6.36309C19.3144 6.34537 19.3181 6.32965 19.3216 6.31543C19.3221 6.31318 19.3224 6.31094 19.3231 6.30844C19.3256 6.29646 19.3281 6.28573 19.3296 6.27675C19.3301 6.27251 19.3306 6.27026 19.3313 6.26677C19.3343 6.25254 19.3363 6.24206 19.3363 6.24206L18.3229 6.24006C18.4943 6.06463 18.6493 5.84178 18.7848 5.60571C18.7921 5.59348 18.7985 5.58075 18.8055 5.56803C18.8507 5.48792 18.8931 5.40707 18.9338 5.32571C18.9548 5.28429 18.975 5.24311 18.9944 5.20169C19.0354 5.11559 19.0736 5.03074 19.109 4.94789C19.1584 4.83235 19.2026 4.72205 19.241 4.62048C19.2852 4.50444 19.3224 4.39938 19.3508 4.31404C19.4007 4.1658 19.4272 4.07422 19.4272 4.07422C19.3151 4.14958 19.2001 4.21871 19.0845 4.28284C19.0795 4.28584 19.0743 4.28908 19.0691 4.29183C18.9568 4.35396 18.8445 4.41036 18.7332 4.46252C18.7252 4.46626 18.7172 4.47026 18.7095 4.47375C18.5994 4.52516 18.4914 4.57132 18.3865 4.61325C18.3791 4.61624 18.3716 4.61974 18.3636 4.62248C18.258 4.6644 18.1562 4.70209 18.0606 4.73528C17.6249 4.88675 17.3097 4.95139 17.3097 4.95139L16.3108 5.56678L16.8031 4.64918C15.2237 4.37118 13.4969 4.76423 12.5798 5.03399C12.3781 5.06918 12.17 5.11834 11.9669 5.18297L12.4203 4.51692C12.4203 4.51692 9.58167 4.59827 8.34864 6.23732C7.01729 8.00738 6.89126 9.00283 6.89126 9.00283C6.89126 9.00283 7.3145 7.81572 8.56425 6.93955C8.70599 6.832 8.86321 6.72245 9.02567 6.63336C9.02567 6.63336 9.47611 6.31268 10.4766 6.1395C10.5145 6.13201 10.5492 6.12153 10.5881 6.11429C10.5851 6.11754 10.5826 6.12028 10.5799 6.12327C11.0261 6.05315 11.5718 6.01223 12.2309 6.03968C13.4093 6.08859 16.0518 5.30051 16.6364 6.63585C17.3644 8.29985 14.7843 10.7602 14.7843 10.7602C15.4029 8.83139 15.0189 6.8874 12.0914 6.92658C10.8808 6.94305 9.80751 7.4686 9.09779 7.92702C8.96578 8.10495 8.83351 8.28463 8.69501 8.47054C7.6197 9.91419 8.46643 11.2498 8.46643 11.2498C9.121 10.9154 9.65803 11.0367 9.96972 11.1604C9.48609 11.2039 9.14969 11.396 8.98599 11.9063C8.78959 12.5185 9.37254 13.3008 10.0239 13.9864C9.46363 13.9923 9.1764 13.7371 8.83376 14.6709C8.49113 15.6042 7.96633 17.1773 7.96633 17.1773C7.65339 16.4993 7.98055 15.4497 8.06066 15.0529C8.06066 15.0529 7.75571 14.7635 7.49717 15.1066C6.93668 15.8515 6.37295 16.542 5.61756 17.5854C5.50501 17.8142 5.47108 18.074 5.71214 18.3999L5.69916 18.3917C6.17605 19.0397 6.8144 19.5341 7.4802 19.8964C7.4802 19.8964 6.36272 19.8221 5.36377 19.0357C5.37051 19.0602 5.37824 19.0854 5.38623 19.1109C5.96019 19.7881 6.89725 20.6166 8.22212 20.9019C8.22212 20.9019 7.4258 20.8937 6.44607 20.6409C6.97786 21.0616 7.75496 21.4137 8.88018 21.5447C9.06684 21.5178 9.27896 21.4521 9.47586 21.3079C8.8385 20.7821 7.74123 19.7462 7.22566 18.4877L7.47097 18.1331C7.47097 18.1331 7.70255 17.9637 8.0649 18.0403C8.40429 18.1122 8.76614 18.5416 9.23654 18.5741C9.98718 18.626 10.0019 18.038 11.4161 18.1059L12.4133 18.6487C12.4133 18.6487 11.6275 19.1648 11.1107 19.7218C10.6657 20.2016 10.5058 20.8208 10.4484 21.2133C10.5754 21.3309 11.0902 21.6428 12.8111 21.3438C14.1295 21.1412 14.8339 20.846 15.5699 20.3277C13.6184 21.0803 11.5369 20.8774 11.5369 20.8774C15.1307 20.3339 16.6514 18.3932 17.0744 17.7294C17.0739 17.7281 17.0739 17.7269 17.0734 17.7254C15.1082 19.5052 12.7243 19.7006 12.7243 19.7006C14.6493 18.9858 15.8943 17.7538 16.5222 16.9917C16.6981 16.7122 16.7657 16.5258 16.748 16.3082C16.7443 16.2932 16.7403 16.2782 16.7363 16.2635C16.3497 14.8436 15.4718 15.2473 13.7177 16.5101C13.7177 16.5101 13.8023 15.7419 13.7798 15.2835C13.7444 14.5548 12.9124 15.0714 12.427 15.3828C12.427 15.3828 12.734 14.2357 12.3399 13.9746C12.0784 13.8012 11.2289 13.9804 11.2289 13.9804C12.3933 12.8234 13.1412 12.7279 12.9349 11.939C12.7292 11.15 11.7747 11.1684 11.7747 11.1684C11.7747 11.1684 13.9403 10.5805 14.225 12.3081C14.225 12.3081 15.1304 12.266 16.059 11.7781C17.5568 10.9908 17.7951 8.95517 17.7951 8.95517C18.4921 9.55434 19.0678 13.2187 16.3567 14.1967C17.6431 14.3689 18.6276 16.3226 17.604 19.1518C17.3487 19.8573 17.1423 20.2264 17.1423 20.2264C16.9886 20.5198 16.6384 21.248 16.3757 22.0932C17.0674 21.9712 18.1807 21.6246 19.4731 20.6463C21.0043 19.2469 21.2514 17.8731 21.2514 17.8731L19.3683 18.7745" fill="#EF3C23"/>
<path id="Vector_7" d="M7.2254 18.4869L7.24911 18.4524C6.64819 18.1567 6.16906 17.7223 5.81495 17.3125C5.75131 17.3996 5.68318 17.4939 5.61655 17.586C5.50451 17.8143 5.47131 18.0739 5.71188 18.399L5.6989 18.3911C6.17579 19.0389 6.81414 19.5332 7.47994 19.8958C7.47994 19.8958 6.36321 19.8215 5.36426 19.0354C5.37125 19.0601 5.37873 19.0851 5.38672 19.1108C5.96068 19.788 6.89774 20.616 8.22211 20.901C8.22211 20.901 7.42829 20.893 6.4508 20.6413C6.98209 21.0605 7.75295 21.4139 8.87443 21.5449C9.06234 21.5184 9.27695 21.4525 9.4756 21.3073C8.83849 20.7815 7.74122 19.7456 7.2254 18.4869Z" fill="white"/>
<path id="Vector_8" d="M12.8112 21.3425C14.1106 21.1404 14.8308 20.8402 15.5613 20.3296C13.6123 21.0783 11.5368 20.8761 11.5368 20.8761C15.1303 20.3326 16.6513 18.3919 17.0745 17.7281C17.074 17.7268 17.0738 17.7256 17.0735 17.7241C15.1081 19.5039 12.7244 19.6993 12.7244 19.6993C14.6494 18.9845 15.8944 17.7525 16.522 16.9904C16.6982 16.7109 16.7659 16.5245 16.7481 16.3069C16.7441 16.2919 16.7401 16.2769 16.7364 16.2622C16.7332 16.2502 16.7289 16.2407 16.7257 16.2285C15.3107 17.9042 13.4975 18.4505 12.3763 18.6269L12.4132 18.6474C12.4132 18.6474 11.6271 19.1635 11.1103 19.7205C10.6654 20.2004 10.5056 20.8195 10.4482 21.2123C10.5753 21.3298 11.0901 21.6418 12.8112 21.3425Z" fill="white"/>
<path id="Vector_9" d="M10.698 7.16344C10.0691 7.36209 9.5196 7.65481 9.09885 7.92632C8.96634 8.1045 8.83358 8.28417 8.69483 8.47084C7.61952 9.91423 8.466 11.2498 8.466 11.2498C8.55459 11.2049 8.64068 11.1692 8.72478 11.1395C8.66214 10.333 8.83882 8.74684 10.7244 7.1582L10.698 7.16344Z" fill="white"/>
<path id="Vector_10" d="M16.7135 7.74457C16.4036 9.21417 14.7845 10.7589 14.7845 10.7589C15.3068 9.13058 15.1076 7.49602 13.2729 7.04883C14.3545 8.90798 14.1109 10.5203 13.7828 11.4561C13.9951 11.644 14.1606 11.9128 14.2255 12.3071C14.2255 12.3071 15.1304 12.2649 16.0594 11.7768C17.5572 10.9895 17.7955 8.95389 17.7955 8.95389C18.4925 9.55306 19.068 13.2175 16.3571 14.1954C16.6144 14.2299 16.8585 14.3387 17.0781 14.5084C18.0339 14.0896 18.6258 13.3562 18.8224 12.0338C19.0982 10.1769 18.4229 8.11491 16.7135 7.74457Z" fill="white"/>
<path id="Vector_11" d="M12.0759 8.57894C11.1052 8.5203 10.7124 8.46764 9.79855 9.14018C9.44094 9.40346 9.02744 9.92951 9.37706 10.2035C9.44768 10.3415 9.64333 10.1691 9.8502 10.0975C10.6772 9.67172 11.2799 9.61807 12.1872 10.2332C12.3966 10.3697 13.1151 10.3797 13.2498 10.0311C13.591 9.54146 13.2616 8.69124 12.0759 8.57894Z" fill="black"/>
<path id="Vector_12" d="M8.2104 8.60181C8.2104 8.60181 9.93379 6.95453 12.0914 6.92534C15.0189 6.88641 15.4029 8.83015 14.7843 10.7589C14.7843 10.7589 17.3644 8.29886 16.6365 6.63461C16.0518 5.29927 13.4093 6.08735 12.2309 6.03843C9.98844 5.9456 9.02543 6.63211 9.02543 6.63211C8.52059 6.90961 8.04395 7.38476 8.04395 7.38476" fill="black"/>
<path id="Vector_13" d="M13.1387 25.6241C13.9792 25.4447 14.0795 24.5176 14.0795 24.5176C14.4162 25.5617 13.8836 25.958 13.8836 25.958C11.6773 25.8065 10.5391 26.0905 10.5391 26.0905C9.82993 25.6999 9.87559 24.8315 9.87559 24.8315C10.2841 25.2275 10.747 25.5749 11.181 25.6825L11.06 25.3556C11.06 25.3556 11.7342 25.8227 13.0529 25.3064L13.1387 25.6241Z" fill="white"/>
<path id="Vector_14" d="M4.62411 16.0885L3.78712 17.0927C3.63414 14.9473 4.38728 13.1191 4.38728 13.1191C-0.0601981 18.3083 5.65375 21.2285 5.65375 21.2285C5.65375 21.2285 3.84751 18.7133 4.62411 16.0885Z" fill="#EF3C23"/>
<path id="Vector_15" d="M25.2158 11.6933C24.1836 9.63705 20.8698 7.49117 20.0002 6.95289C20.2093 6.73927 20.4663 6.44131 20.7288 6.04927C21.2823 5.22126 21.2057 4.38277 21.2057 4.38277L20.5734 4.6428C21.1556 3.57024 20.9063 2.80736 20.2557 2.74023C19.1841 2.89346 17.8306 4.3688 17.339 4.94476C17.5141 4.90583 18.5543 4.65927 19.4274 4.07383C19.4274 4.07383 19.0087 5.53794 18.3232 6.23968L19.3366 6.24167C19.3366 6.24167 19.2288 6.96487 18.6324 7.4762C18.8744 7.59074 21.9352 9.07681 22.9903 12.6738L23.0195 12.8168C23.4664 14.3635 23.3701 15.5531 23.3701 15.5531L24.3481 14.9607C24.3481 14.9607 24.3249 17.5186 22.4208 19.6046C21.8471 20.2329 21.2005 20.7303 20.5429 21.1288L20.6365 21.0976C19.9657 21.4375 19.4165 21.7792 18.965 22.1088C17.0041 23.261 16.605 24.7276 16.605 24.7276L15.9724 23.7112C15.9462 24.0668 15.8886 24.4538 15.8154 24.8421C15.3635 26.429 14.5922 26.861 14.0247 27.028C13.3332 27.2311 12.6983 27.2296 12.6983 27.2296C11.476 27.2648 10.8736 27.2001 10.2168 27.0447C9.95202 27.1011 9.94253 27.4205 10.098 27.6129C10.2615 27.8627 10.2153 27.7464 10.3523 27.9188C10.6013 27.7911 11.3298 27.6339 11.5791 27.5063C11.366 27.669 11.0293 28.0476 10.9375 28.3284C10.9951 28.3835 11.0535 28.4324 11.1144 28.4756C11.4446 28.4002 11.9122 28.1444 12.1957 27.9408C12.1588 28.1619 11.9799 28.3054 11.9467 28.5462C12.3921 28.5954 12.9122 28.6363 13.9458 28.3818C14.3019 28.2944 14.7544 28.0875 15.1414 27.6261C15.8359 27.0691 16.2295 25.2145 16.2295 25.2145L16.6946 26.0223C17.1031 23.9348 18.6391 23.1682 18.6391 23.1682L18.6456 23.1584C19.7726 22.5031 21.4353 21.876 23.5572 22.018L22.6449 21.0298C24.3264 19.6874 26.3774 19.2113 26.3774 19.2113C26.3774 19.2113 26.9122 15.0134 25.3335 11.892L25.2158 11.6933Z" fill="white"/>
<path id="Vector_16" d="M14.9827 13.898C15.5058 13.8664 15.9038 13.4159 15.8726 12.8921C15.8706 12.8614 15.8629 12.8327 15.8579 12.8028C15.7124 12.8018 15.5512 12.8215 15.4094 12.8689C15.4207 12.9088 15.4292 12.9503 15.4319 12.9934C15.4506 13.3046 15.214 13.5719 14.9039 13.5908C14.6573 13.6056 14.4407 13.4581 14.3514 13.2417C14.1507 13.2909 14.117 13.3865 14.1392 13.4741C14.3204 13.7461 14.6338 13.9193 14.983 13.898" fill="white"/>
<path id="Vector_17" d="M15.0409 13.1548C15.1055 13.154 15.1575 13.1008 15.157 13.036C15.1562 12.9711 15.1031 12.9194 15.0384 12.9199C14.9735 12.9207 14.9214 12.9738 14.9224 13.0387C14.9234 13.1036 14.9763 13.1558 15.0409 13.1548Z" fill="white"/>
<path id="Vector_18" d="M7.94333 13.4353C7.82204 13.6357 7.58547 13.7482 7.34391 13.6961C7.03995 13.6302 6.84705 13.3295 6.91268 13.025C6.92192 12.9826 6.93639 12.9432 6.95386 12.9052C6.8211 12.8369 6.66463 12.7927 6.52064 12.7715C6.51166 12.8004 6.49918 12.8274 6.49294 12.8576C6.38189 13.3707 6.70705 13.8765 7.21913 13.9875C7.56101 14.0619 7.89691 13.9384 8.11726 13.6971C8.15245 13.614 8.13373 13.5146 7.94333 13.4353Z" fill="white"/>
<path id="Vector_19" d="M7.28382 13.2387C7.34871 13.238 7.40061 13.1848 7.39986 13.12C7.39912 13.0553 7.34621 13.0032 7.28133 13.0039C7.21669 13.0047 7.16479 13.0581 7.16554 13.1227C7.16628 13.1876 7.21919 13.2397 7.28382 13.2387Z" fill="white"/>
<path id="Vector_20" d="M5.75849 4.71281L6.44376 4.55659L5.55811 3.30859C8.31963 4.32052 7.00774 6.56622 7.00774 6.56622C7.00774 6.56622 6.90543 5.06243 5.75849 4.71281Z" fill="white"/>
</g>
</svg>
