<svg width="35" height="16" viewBox="0 0 35 16" fill="none" xmlns="http://www.w3.org/2000/svg">
<g id="Layer_1">
<path id="Vector" d="M28.7029 12.4212C27.2031 12.1341 25.1928 12.0383 24.3632 12.0383H4.3558C3.11132 12.0383 1.83493 12.0383 1.16483 11.0172C0.494722 9.9961 0.845729 8.97499 1.99448 6.93277C2.09021 6.80513 5.50454 0.359375 5.50454 0.359375C5.50454 0.359375 5.85555 0.806111 6.20656 1.06139C6.55756 1.34858 6.90857 1.47621 7.86586 1.47621C9.55708 1.47621 20.5021 1.47621 20.5978 1.47621C22.8315 1.47621 25.0652 1.69958 26.5011 3.29507C27.267 3.3908 29.6921 3.70989 31.7024 4.66718C32.8831 5.24156 33.6489 6.07121 33.9361 7.09232C34.0318 7.41142 34.0637 7.73051 34.0637 8.04961C34.0637 9.0069 33.7127 10.0918 32.9788 11.2087C31.479 13.57 30.075 14.3996 30.0112 14.4315C29.1496 15.0378 28.32 15.0697 28.32 15.0697C28.32 15.0697 29.0539 14.2082 29.3092 13.3785C29.5645 12.517 28.6391 12.4212 28.6391 12.4212" fill="white"/>
<path id="Vector_2" d="M31.4792 5.17685C29.1817 4.09192 26.2461 3.83664 26.2461 3.83664C24.9697 2.27306 22.7998 2.0497 20.598 2.0497C20.598 2.0497 9.58919 2.0497 7.86607 2.0497C6.14295 2.0497 5.6643 1.25195 5.6643 1.25195L2.98389 6.26177H9.9402C12.142 6.26177 12.2377 6.03841 13.6736 4.98539C15.2053 3.83664 16.4498 3.45372 17.8857 3.45372C19.3217 3.45372 20.3109 3.77282 21.9063 4.50674C23.5337 5.20876 24.3953 5.55976 25.3526 5.17685C25.3526 5.17685 24.5868 6.19796 22.2893 5.24066C19.9918 4.28337 19.3855 4.06001 17.9814 4.06001C16.5774 4.06001 15.0458 4.73011 13.0674 6.6766L15.4287 8.55927C15.4287 8.55927 14.8862 9.38892 14.5352 9.93139C14.1842 10.4739 14.2161 10.8249 14.4076 11.0801C14.599 11.3354 14.8543 11.4631 15.7159 11.4631C16.5774 11.4631 23.5656 11.4631 24.3315 11.4631C25.0973 11.4631 27.1395 11.5269 28.7988 11.846C31.0006 12.2927 29.5647 14.1435 29.5647 14.1435C29.5647 14.1435 31.0325 13.1862 32.5004 10.8887C34.1277 8.33591 33.7129 6.26177 31.4473 5.14494" fill="#002244"/>
<path id="Vector_3" d="M27.4263 5.56078C26.3733 5.3055 27.2668 4.69922 27.2668 4.69922C25.767 4.98641 25.2246 6.23088 25.0969 6.54998C25.0969 6.58189 25.0331 6.64571 25.0331 6.70953C24.2035 8.36883 23.4695 8.2731 22.0336 8.2731H19.6085C17.662 8.2731 16.7366 9.23039 15.7793 10.8897H16.8961C17.9172 9.38994 18.6831 8.97512 20.6615 8.87939C25.2246 8.87939 28.8942 10.1877 30.8088 11.2088C33.553 6.6138 29.4686 5.84797 27.3944 5.56078" fill="white"/>
<path id="Vector_4" d="M18.9065 10.9216C19.417 10.1558 20.4701 9.90052 22.1294 9.99625C26.2776 10.2515 28.6389 11.0493 30.4897 11.7194C28.2241 10.3792 24.1397 9.42188 21.3316 9.42188C19.9595 9.42188 18.7469 9.67715 18.0449 10.9216H18.9065Z" fill="white"/>
<path id="Vector_5" d="M23.342 6.35737C22.7996 7.1232 22.0976 7.37848 20.0873 7.21893C17.7578 7.05938 18.3322 6.07018 18.6194 5.59154C18.6832 5.4639 18.8109 5.20862 18.9385 4.98525C17.1516 4.88953 15.8433 6.26164 15.8433 6.26164C17.1835 7.60185 18.0769 7.72949 19.2895 7.72949H21.5551C23.6611 7.72949 24.1717 6.7722 24.3631 6.35737C24.0121 6.38928 23.6611 6.38928 23.3739 6.35737" fill="white"/>
<path id="Vector_6" d="M22.3207 6.13437C22.2888 6.13437 22.225 6.10246 22.1931 6.07055C22.0016 6.29391 21.6187 6.42155 21.2996 6.35773C20.8529 6.29391 20.5976 5.97482 20.7252 5.62381C20.7252 5.55999 20.7572 5.52808 20.7891 5.46426C20.5657 5.36853 20.3104 5.2728 20.0871 5.20898C19.6084 5.97482 19.3531 6.45346 20.9805 6.61301C22.0016 6.70874 22.2569 6.51728 22.4803 6.16628C22.4484 6.16628 22.3846 6.16628 22.3526 6.10246" fill="#69BE28"/>
<path id="Vector_7" d="M14.2159 9.00765C13.3862 10.4436 13.0352 10.7946 13.6415 11.4647H4.35576C2.98364 11.4647 2.09017 11.4009 1.64343 10.6989C1.1967 10.0288 1.29242 9.35865 2.47308 7.2207H10.3548C11.695 7.2207 12.046 7.28452 12.7799 7.8589C13.5138 8.43327 14.1839 8.97574 14.1839 8.97574" fill="#A5ACAF"/>
</g>
</svg>
