<?xml version="1.0" encoding="UTF-8"?>
<svg xmlns="http://www.w3.org/2000/svg" width="104.2" height="46.1" version="1.1" viewBox="0 0 104.2 46.1">
  <defs>
    <style>
      .cls-1 {
        fill: #024;
      }

      .cls-2 {
        fill: #a5acaf;
      }

      .cls-3 {
        fill: #fff;
      }

      .cls-4 {
        fill: #69be28;
      }
    </style>
  </defs>
  <!-- Generator: Adobe Illustrator 28.7.1, SVG Export Plug-In . SVG Version: 1.2.0 Build 142)  -->
  <g>
    <g id="Layer_1">
      <path class="cls-3" d="M87.3,37.8c-4.7-.9-11-1.2-13.6-1.2H11c-3.9,0-7.9,0-10-3.2-2.1-3.2-1-6.4,2.6-12.8C3.9,20.2,14.6,0,14.6,0c0,0,1.1,1.4,2.2,2.2,1.1.9,2.2,1.3,5.2,1.3,5.3,0,39.6,0,39.9,0,7,0,14,.7,18.5,5.7,2.4.3,10,1.3,16.3,4.3,3.7,1.8,6.1,4.4,7,7.6.3,1,.4,2,.4,3,0,3-1.1,6.4-3.4,9.9-4.7,7.4-9.1,10-9.3,10.1-2.7,1.9-5.3,2-5.3,2,0,0,2.3-2.7,3.1-5.3.8-2.7-2.1-3-2.1-3"/>
      <path class="cls-1" d="M96,15.1c-7.2-3.4-16.4-4.2-16.4-4.2-4-4.9-10.8-5.6-17.7-5.6,0,0-34.5,0-39.9,0s-6.9-2.5-6.9-2.5l-8.4,15.7h21.8c6.9,0,7.2-.7,11.7-4,4.8-3.6,8.7-4.8,13.2-4.8s7.6,1,12.6,3.3c5.1,2.2,7.8,3.3,10.8,2.1,0,0-2.4,3.2-9.6.2-7.2-3-9.1-3.7-13.5-3.7s-9.2,2.1-15.4,8.2l7.4,5.9s-1.7,2.6-2.8,4.3c-1.1,1.7-1,2.8-.4,3.6.6.8,1.4,1.2,4.1,1.2s24.6,0,27,0,8.8.2,14,1.2c6.9,1.4,2.4,7.2,2.4,7.2,0,0,4.6-3,9.2-10.2,5.1-8,3.8-14.5-3.3-18"/>
      <path class="cls-3" d="M83.3,16.3c-3.3-.8-.5-2.7-.5-2.7-4.7.9-6.4,4.8-6.8,5.8,0,.1-.2.3-.2.5-2.6,5.2-4.9,4.9-9.4,4.9h-7.6c-6.1,0-9,3-12,8.2h3.5c3.2-4.7,5.6-6,11.8-6.3,14.3,0,25.8,4.1,31.8,7.3,8.6-14.4-4.2-16.8-10.7-17.7"/>
      <path class="cls-3" d="M56.6,33.1c1.6-2.4,4.9-3.2,10.1-2.9,13,.8,20.4,3.3,26.2,5.4-7.1-4.2-19.9-7.2-28.7-7.2-4.3,0-8.1.8-10.3,4.7h2.7Z"/>
      <path class="cls-3" d="M70.5,18.8c-1.7,2.4-3.9,3.2-10.2,2.7-7.3-.5-5.5-3.6-4.6-5.1,0,0,0,0,0,0,.2-.4.6-1.2,1-1.9-5.6-.3-9.7,4-9.7,4,4.2,4.2,7,4.6,10.8,4.6h7.1c6.6,0,8.2-3,8.8-4.3-1.1.1-2.2.1-3.1,0"/>
      <path class="cls-4" d="M67.3,18.1c-.1,0-.3-.1-.4-.2-.6.7-1.8,1.1-2.8.9-1.4-.2-2.2-1.2-1.8-2.3,0-.2.1-.3.2-.5-.7-.3-1.5-.6-2.2-.8-1.5,2.4-2.3,3.9,2.8,4.4,3.2.3,4-.3,4.7-1.4-.1,0-.3,0-.4-.2"/>
      <path class="cls-2" d="M41.9,27.1c-2.6,4.5-3.7,5.6-1.8,7.7H11c-4.3,0-7.1-.2-8.5-2.4-1.4-2.1-1.1-4.2,2.6-10.9h24.7c4.2,0,5.3.2,7.6,2,2.3,1.8,4.4,3.5,4.4,3.5"/>
    </g>
  </g>
</svg>