<svg width="21" height="21" viewBox="0 0 21 21" fill="none" xmlns="http://www.w3.org/2000/svg">
<path d="M10.373 20.9102C9.01237 20.9102 7.72982 20.6497 6.52539 20.1289C5.32747 19.6081 4.26953 18.8887 3.35156 17.9707C2.43359 17.0527 1.71419 15.9948 1.19336 14.7969C0.672526 13.5924 0.412109 12.3099 0.412109 10.9492C0.412109 9.58854 0.672526 8.30924 1.19336 7.11133C1.71419 5.9069 2.43034 4.8457 3.3418 3.92773C4.25977 3.00977 5.31771 2.29036 6.51562 1.76953C7.72005 1.2487 9.0026 0.988281 10.3633 0.988281C11.724 0.988281 13.0065 1.2487 14.2109 1.76953C15.4154 2.29036 16.4766 3.00977 17.3945 3.92773C18.3125 4.8457 19.0319 5.9069 19.5527 7.11133C20.0736 8.30924 20.334 9.58854 20.334 10.9492C20.334 12.3099 20.0736 13.5924 19.5527 14.7969C19.0319 15.9948 18.3125 17.0527 17.3945 17.9707C16.4766 18.8887 15.4154 19.6081 14.2109 20.1289C13.013 20.6497 11.7337 20.9102 10.373 20.9102ZM6.32031 15.9199C6.78906 16.0566 7.28385 16.1315 7.80469 16.1445C8.32552 16.1576 8.84635 16.112 9.36719 16.0078L5.30469 11.9453C5.20052 12.4661 5.15495 12.987 5.16797 13.5078C5.1875 14.0286 5.26237 14.5234 5.39258 14.9922C5.48372 15.2721 5.59115 15.474 5.71484 15.5977C5.83854 15.7214 6.04036 15.8288 6.32031 15.9199ZM13.2832 13.8691C13.7129 13.4525 14.0807 13.0033 14.3867 12.5215C14.6927 12.0332 14.9368 11.5319 15.1191 11.0176L10.2949 6.19336C9.7806 6.37565 9.2793 6.61979 8.79102 6.92578C8.30924 7.23177 7.85677 7.59961 7.43359 8.0293C7.00391 8.44596 6.63607 8.89844 6.33008 9.38672C6.0306 9.86849 5.78646 10.3665 5.59766 10.8809L10.4316 15.7051C10.946 15.5228 11.444 15.2786 11.9258 14.9727C12.4141 14.6667 12.8665 14.2988 13.2832 13.8691ZM9.66016 13.0586C9.54948 13.1628 9.43229 13.1595 9.30859 13.0488L8.24414 12.0039C8.13346 11.8932 8.13346 11.776 8.24414 11.6523C8.36784 11.5547 8.48828 11.5547 8.60547 11.6523L8.95703 12.0039L9.31836 11.6426L8.95703 11.3008C8.90495 11.2552 8.87891 11.1966 8.87891 11.125C8.87891 11.0534 8.90495 10.9948 8.95703 10.9492C9.00911 10.8971 9.06771 10.8711 9.13281 10.8711C9.20443 10.8646 9.26302 10.8874 9.30859 10.9395L9.66992 11.3008L10.0215 10.9297L9.67969 10.5781C9.6276 10.5326 9.60156 10.4772 9.60156 10.4121C9.60156 10.3405 9.6276 10.2852 9.67969 10.2461C9.71875 10.1875 9.77083 10.1582 9.83594 10.1582C9.90755 10.1582 9.96615 10.1842 10.0117 10.2363L10.373 10.5977L10.7441 10.2266L10.3828 9.875C10.3307 9.82943 10.3047 9.77409 10.3047 9.70898C10.3047 9.63737 10.3307 9.57552 10.3828 9.52344C10.4349 9.47135 10.4935 9.44531 10.5586 9.44531C10.6237 9.44531 10.679 9.47135 10.7246 9.52344L11.0762 9.875L11.4473 9.52344L11.0859 9.17188C11.0469 9.11328 11.0241 9.05143 11.0176 8.98633C11.0176 8.92122 11.0404 8.86263 11.0859 8.81055C11.138 8.76497 11.1966 8.74219 11.2617 8.74219C11.3268 8.73568 11.3854 8.75846 11.4375 8.81055L12.4922 9.86523C12.5443 9.91732 12.5703 9.97591 12.5703 10.041C12.5703 10.1061 12.5443 10.168 12.4922 10.2266C12.4466 10.2721 12.3913 10.2949 12.3262 10.2949C12.2611 10.2884 12.1992 10.2624 12.1406 10.2168L11.7891 9.86523L11.4277 10.2266L11.7793 10.5879C11.8314 10.627 11.8574 10.6823 11.8574 10.7539C11.8574 10.819 11.8314 10.8776 11.7793 10.9297C11.7337 10.9818 11.6784 11.0078 11.6133 11.0078C11.5482 11.0013 11.4896 10.972 11.4375 10.9199L11.0762 10.5684L10.7148 10.9297L11.0664 11.291C11.112 11.3366 11.138 11.3952 11.1445 11.4668C11.151 11.5384 11.125 11.5938 11.0664 11.6328C11.0273 11.6849 10.972 11.7109 10.9004 11.7109C10.8353 11.7109 10.7799 11.6849 10.7344 11.6328L10.373 11.291L10.002 11.6426L10.3633 11.9941C10.4154 12.0397 10.4414 12.0983 10.4414 12.1699C10.4414 12.2415 10.4154 12.3001 10.3633 12.3457C10.3177 12.3978 10.2591 12.4271 10.1875 12.4336C10.1224 12.4336 10.0638 12.4043 10.0117 12.3457L9.66992 11.9941L9.30859 12.3457L9.66016 12.7168C9.7513 12.8275 9.7513 12.9414 9.66016 13.0586ZM15.334 6.90625C15.2363 6.6263 15.1257 6.42773 15.002 6.31055C14.8848 6.18685 14.6862 6.07617 14.4062 5.97852C13.4688 5.70508 12.4531 5.67578 11.3594 5.89062L15.4219 9.95312C15.6367 8.86589 15.6074 7.85026 15.334 6.90625Z" fill="#FF0000"/>
</svg>
