<?xml version="1.0" encoding="UTF-8"?>
<svg xmlns="http://www.w3.org/2000/svg" width="27cm" height="27cm" version="1.1" viewBox="0 0 765.35 765.35">
  <!-- Generator: Adobe Illustrator 28.7.1, SVG Export Plug-In . SVG Version: 1.2.0 Build 142)  -->
  <g>
    <g id="Layer_1">
      <path d="M177.724,466.904c36.036-23.049,47.39-48.949,47.39-48.949l-102.113,14.64,43.405-77.034,87.164-7.366s33.938-30.247,86.416-51.968c0,0,5.492-9.528,35.499-26.81,0,0,27.474-16.188,58.822-26.542,0,0,21.221-7.309,27.486-7.676l-1.858-6.745,40.037-3.455,1.035-3.809s20.887,1.398,32.875,6.709l2.371-3.154s27.971,12.861,48.773,44.419c0,0,20.205-1.092,38.26,7.549,0,0,19.168,7.632,18.299,29.837,0,0-.127,28.364-8.609,56.511,0,0-1.293,4.355-2.504,7.002,0,0-1.785,3.546-5.162,8.099,0,0-9.516,9.778-13.158,18.362,0,0-2.01,5.735-5.969,16.106,0,0-3.039,14.289-23.807,15.075,0,0-20.188,25.6-28.623,32.934l-.717-6.207s-14.088,13.084-26.332,20.741l4.141-36.18s.996-6.487-3.105-6.941l-10.537-.215s3.451,21.782-.734,31.834c0,0-2.656,15.778-27.172,23.332,0,0-18.977,6.033-40.67,7.714l-4.649-.689-34.141,13.948,9.996-35.773s-12.805,1.267-13.945-.311l-37.996,16.269,14.95-42.79,10.24-5.679-3.285-4.434-21.018.171-7.706,6.027c-17.854-4.664-35.224-3.411-35.224-3.411l-88.356,71.704-22.14,48.949-26.42-35.362,8.269-10.805-3.159-2.358-11.969,9.432-17.74,47.747-26.146-36.852,6.75-14.967-1.508-9.187c7.768-5.141,12.813-8.584,16.741-13.026,2.153-2.757,3.314-3.709,5.801-8.356,2.359-5.684,2.437-11.825,5.054-13.796,3.311-2.198,5.81-3.709,6.697-4.264h0Z" fill="#fff"/>
      <path d="M171.36,363.248l-33.782,59.564,435.895-65.003s-15.141-11.467,6.807-29.714l-408.919,35.153h0Z" fill="#d80c18"/>
      <path d="M613.84,319.835s-34.051,23.253-22.236,43.304c0,0-12.357,6.868,1.26,16.47,0,0-21.078,9.515-15.496-16.521l-342.675,51.814s-7.357,31.06-55.947,60.456c0,0-3.587,2.062-3.888,5.976,0,0,.335,4.858-4.068,10.746,0,0-5.473,9.581-18.195,17.671l.914,6.388-5.95,13.628,14.555,20.904,13.167-35.542,26.111-20.024s25.52-39.968,67.479-55.602c0,0,37.062-15.801,91.127-6.832l4.918-4.74,62.613-1.403s2.342.534.768,1.845c0,0-12.322,9.47-25.828,10.682l1.258,3.865s.357,1.324-.646,1.643l-13.111,5.237-8.688,24.01,24.612-10.702,1.379,1.039s21.424,1.328,53.643-5.186c0,0,22.316-4.408,28.557-33.385l42.535-1.816s8.855,1.874,7.746,10.1l-3.02,24.11,19.439-17.343,1.336,4.569s14.732-15.98,18.549-25.093c0,0,16.16.306,20.162-6.239,0,0,1.824-1.825,6.976-16.032,0,0,2.451-10.017,12.428-19.867,0,0,7.746-7.255,12.053-26.264,0,0,5.185-27.586,5.154-32.868,0,0,5.57-27.241-13.141-35.284,0,0-13.865-7.649-39.889-5.517,0,0-5.168-18.117-41.006-42.947l-2.625,3.897s-12.228-8.449-29.592-8.274l-.85,2.425s-10.553-.043-33.535,2.368l2.127,6.344s-47.398,2.197-114.638,47.192l-1.237,3.713-8.544,4.015,4.578,2.524s-51.4,18.532-88.767,49.136l348.127-28.586h0Z" fill="#004e97"/>
      <path d="M493.74,430.959l14.715-.14s2.961,19.356,1.201,28.05c0,0-2.893,12.839-16.027,17.884,0,0-19.371,8.209-48.42,10.057l-1.387-1.214-21.994,9.279,7.217-25.574s29.486-2.279,38.416-4.958c0,0,22.855-4.495,26.279-33.384h0Z" fill="#004e97"/>
      <path d="M312.596,438.535s-52.193-.626-87.92,41.504c0,0-.121,15.221-18.623,25.64l.643,4.801-8.755,12.127,15.623,20.911,17.587-39.002,81.445-65.98h0Z" fill="#004e97"/>
    </g>
  </g>
</svg>