<svg width="42" height="28" viewBox="0 0 42 28" fill="none" xmlns="http://www.w3.org/2000/svg">
<g id="Group">
<g id="Layer_1">
<path id="Vector" d="M5.08862 19.3712C7.8952 17.5761 8.77948 15.5589 8.77948 15.5589L0.82666 16.6991L4.20715 10.6995L10.9957 10.1258C10.9957 10.1258 13.6389 7.77013 17.726 6.07844C17.726 6.07844 18.1537 5.33638 20.4907 3.99041C20.4907 3.99041 22.6305 2.72965 25.0719 1.92326C25.0719 1.92326 26.7247 1.35401 27.2126 1.32543L27.0679 0.800113L30.1861 0.531029L30.2667 0.234375C30.2667 0.234375 31.8934 0.343255 32.8271 0.756889L33.0118 0.511247C33.0118 0.511247 35.1902 1.51289 36.8103 3.97071C36.8103 3.97071 38.3839 3.88566 39.7901 4.55865C39.7901 4.55865 41.283 5.15304 41.2153 6.88242C41.2153 6.88242 41.2054 9.09148 40.5448 11.2836C40.5448 11.2836 40.4441 11.6228 40.3498 11.829C40.3498 11.829 40.2107 12.1051 39.9477 12.4597C39.9477 12.4597 39.2066 13.2213 38.923 13.8898C38.923 13.8898 38.7664 14.3365 38.4581 15.1442C38.4581 15.1442 38.2214 16.2571 36.6039 16.3183C36.6039 16.3183 35.0316 18.3121 34.3747 18.8833L34.3189 18.3998C34.3189 18.3998 33.2216 19.4189 32.2681 20.0152L32.5906 17.1974C32.5906 17.1974 32.6681 16.6922 32.3487 16.6568L31.5281 16.6401C31.5281 16.6401 31.7969 18.3365 31.4709 19.1194C31.4709 19.1194 31.2641 20.3482 29.3547 20.9366C29.3547 20.9366 27.8767 21.4064 26.1872 21.5373L25.8251 21.4837L23.1662 22.57L23.9447 19.7839C23.9447 19.7839 22.9474 19.8826 22.8586 19.7597L19.8994 21.0267L21.0637 17.6942L21.8612 17.2519L21.6054 16.9065L19.9685 16.9198L19.3683 17.3892C17.9778 17.026 16.625 17.1236 16.625 17.1236L9.74358 22.7081L8.01926 26.5203L5.96161 23.7663L6.60562 22.9247L6.35959 22.7411L5.42741 23.4757L4.04578 27.1943L2.00946 24.3242L2.53517 23.1585L2.41772 22.443C3.02271 22.0426 3.41563 21.7745 3.72155 21.4285C3.88923 21.2138 3.97966 21.1397 4.17335 20.7778C4.35707 20.3351 4.36315 19.8568 4.56697 19.7033C4.82484 19.5321 5.01954 19.4144 5.08862 19.3712Z" fill="white"/>
<path id="Vector_2" d="M4.59294 11.2983L1.96191 15.9373L35.9105 10.8747C35.9105 10.8747 34.7313 9.98167 36.4407 8.56055L4.59294 11.2983Z" fill="#D80C18"/>
<path id="Vector_3" d="M39.0544 7.91625C39.0544 7.91625 36.4024 9.72726 37.3226 11.2889C37.3226 11.2889 36.3602 11.8238 37.4207 12.5716C37.4207 12.5716 35.7791 13.3127 36.2139 11.2849L9.52547 15.3203C9.52547 15.3203 8.95249 17.7393 5.16818 20.0288C5.16818 20.0288 4.88881 20.1894 4.86537 20.4942C4.86537 20.4942 4.89146 20.8726 4.54855 21.3311C4.54855 21.3311 4.1223 22.0773 3.13147 22.7074L3.20266 23.2049L2.73926 24.2663L3.87284 25.8943L4.89832 23.1262L6.93191 21.5667C6.93191 21.5667 8.91947 18.4539 12.1873 17.2363C12.1873 17.2363 15.0738 16.0057 19.2845 16.7042L19.6676 16.335L24.544 16.2258C24.544 16.2258 24.7264 16.2674 24.6038 16.3695C24.6038 16.3695 23.6442 17.107 22.5923 17.2014L22.6903 17.5024C22.6903 17.5024 22.7181 17.6055 22.6399 17.6304L21.6188 18.0383L20.9422 19.9082L22.859 19.0747L22.9664 19.1556C22.9664 19.1556 24.635 19.2591 27.1443 18.7517C27.1443 18.7517 28.8823 18.4084 29.3684 16.1516L32.6811 16.0102C32.6811 16.0102 33.3708 16.1561 33.2844 16.7968L33.0492 18.6746L34.5631 17.3238L34.6672 17.6797C34.6672 17.6797 35.8146 16.4351 36.1118 15.7254C36.1118 15.7254 37.3704 15.7492 37.6821 15.2395C37.6821 15.2395 37.8242 15.0973 38.2254 13.9909C38.2254 13.9909 38.4163 13.2107 39.1933 12.4436C39.1933 12.4436 39.7966 11.8785 40.132 10.3981C40.132 10.3981 40.5359 8.24959 40.5335 7.83821C40.5335 7.83821 40.9673 5.71662 39.51 5.09021C39.51 5.09021 38.4302 4.49449 36.4033 4.66053C36.4033 4.66053 36.0008 3.24953 33.2097 1.31571L33.0053 1.61922C33.0053 1.61922 32.0529 0.961189 30.7006 0.974818L30.6344 1.16368C30.6344 1.16368 29.8125 1.16034 28.0226 1.34811L28.1882 1.8422C28.1882 1.8422 24.4967 2.0133 19.2599 5.51763L19.1636 5.80681L18.4982 6.1195L18.8547 6.31608C18.8547 6.31608 14.8515 7.7594 11.9413 10.1429L39.0543 7.91656L39.0544 7.91625Z" fill="#004E97"/>
<path id="Vector_4" d="M29.7008 16.5715L30.8468 16.5605C30.8468 16.5605 31.0774 18.068 30.9404 18.7452C30.9404 18.7452 30.715 19.7451 29.6921 20.138C29.6921 20.138 28.1835 20.7773 25.9211 20.9213L25.813 20.8267L24.1001 21.5494L24.6622 19.5576C24.6622 19.5576 26.9586 19.3801 27.6541 19.1715C27.6541 19.1715 29.4341 18.8214 29.7008 16.5715Z" fill="#004E97"/>
<path id="Vector_5" d="M15.5927 17.1621C15.5927 17.1621 11.5278 17.1134 8.74527 20.3946C8.74527 20.3946 8.73585 21.58 7.29487 22.3915L7.34495 22.7654L6.66309 23.7099L7.87984 25.3385L9.24956 22.3009L15.5927 17.1622V17.1621Z" fill="#004E97"/>
</g>
</g>
</svg>
