<svg width="34" height="19" viewBox="0 0 34 19" fill="none" xmlns="http://www.w3.org/2000/svg">
<g id="Group">
<g id="Layer_1">
<g id="Clip path group">
<mask id="mask0_218_1308" style="mask-type:luminance" maskUnits="userSpaceOnUse" x="0" y="0" width="34" height="19">
<g id="clippath">
<path id="Vector" d="M33.9319 0.693359H0.82666V18.7356H33.9319V0.693359Z" fill="white"/>
</g>
</mask>
<g mask="url(#mask0_218_1308)">
<g id="Group_2">
<g id="Group_3">
<path id="Vector_2" d="M23.4276 0.693359L24.4806 3.94224L23.6973 6.35643L21.8609 0.706201H13.6167L12.14 5.23923L10.6632 0.706201H0.82666L3.92145 5.7272L8.15912 18.7484H16.1337L17.7388 13.8301L19.3312 18.7484H28.0505L33.919 0.706201H23.4276V0.693359ZM5.02581 5.21355L2.98402 1.90045H9.80282L11.5107 7.17829L8.58289 16.1673L5.01297 5.21355H5.02581ZM15.2604 17.5542H9.40474L14.1818 2.86356L17.1096 11.8654L15.2604 17.5542ZM15.132 1.90045H20.9877L23.068 8.29549L20.1402 17.2973L15.132 1.88761V1.90045ZM27.1773 17.5542H21.3216L25.7519 3.95508L25.0841 1.9133H32.2625L27.1644 17.567L27.1773 17.5542Z" fill="#FDB518"/>
<path id="Vector_3" d="M23.0679 8.2946L20.14 17.2964L15.1319 1.88672H20.9876L23.0679 8.28175V8.2946ZM25.084 1.89956L25.7518 3.94135L21.3215 17.5404H27.1772L32.2752 1.88672H25.084V1.89956ZM9.80269 1.89956H2.98389L5.02568 5.21265L8.59559 16.1664L11.5106 7.17739L9.80269 1.89956ZM9.40461 17.5533H15.2731L17.1223 11.8645L14.1945 2.86267L9.41745 17.5404L9.40461 17.5533Z" fill="#5A1615"/>
</g>
</g>
</g>
</g>
</g>
</g>
</svg>
