<svg width="24" height="25" viewBox="0 0 24 25" fill="none" xmlns="http://www.w3.org/2000/svg">
<path d="M12.0508 24.4922C10.418 24.4922 8.87891 24.1797 7.43359 23.5547C5.99609 22.9297 4.72656 22.0664 3.625 20.9648C2.52344 19.8633 1.66016 18.5938 1.03516 17.1562C0.410156 15.7109 0.0976562 14.1719 0.0976562 12.5391C0.0976562 10.9062 0.410156 9.37109 1.03516 7.93359C1.66016 6.48828 2.51953 5.21484 3.61328 4.11328C4.71484 3.01172 5.98438 2.14844 7.42188 1.52344C8.86719 0.898438 10.4062 0.585938 12.0391 0.585938C13.6719 0.585938 15.2109 0.898438 16.6562 1.52344C18.1016 2.14844 19.375 3.01172 20.4766 4.11328C21.5781 5.21484 22.4414 6.48828 23.0664 7.93359C23.6914 9.37109 24.0039 10.9062 24.0039 12.5391C24.0039 14.1719 23.6914 15.7109 23.0664 17.1562C22.4414 18.5938 21.5781 19.8633 20.4766 20.9648C19.375 22.0664 18.1016 22.9297 16.6562 23.5547C15.2188 24.1797 13.6836 24.4922 12.0508 24.4922ZM12.0508 22.5C13.4336 22.5 14.7266 22.2422 15.9297 21.7266C17.1328 21.2109 18.1914 20.5 19.1055 19.5938C20.0195 18.6797 20.7305 17.6211 21.2383 16.418C21.7539 15.2148 22.0117 13.9219 22.0117 12.5391C22.0117 11.1562 21.7539 9.86328 21.2383 8.66016C20.7227 7.45703 20.0078 6.39844 19.0938 5.48438C18.1875 4.57031 17.1289 3.85938 15.918 3.35156C14.7148 2.83594 13.4219 2.57812 12.0391 2.57812C10.6562 2.57812 9.36328 2.83594 8.16016 3.35156C6.95703 3.85938 5.90234 4.57031 4.99609 5.48438C4.08984 6.39844 3.37891 7.45703 2.86328 8.66016C2.35547 9.86328 2.10156 11.1562 2.10156 12.5391C2.10156 13.9219 2.35547 15.2148 2.86328 16.418C3.37891 17.6211 4.08984 18.6797 4.99609 19.5938C5.91016 20.5 6.96875 21.2109 8.17188 21.7266C9.375 22.2422 10.668 22.5 12.0508 22.5ZM6.68359 18.4688C6.44922 18.4688 6.27344 18.4023 6.15625 18.2695C6.04688 18.1289 5.99219 17.9492 5.99219 17.7305C5.99219 17.4102 6.11328 16.9961 6.35547 16.4883C6.60547 15.9727 6.97656 15.4609 7.46875 14.9531C7.96875 14.4375 8.59766 14.0039 9.35547 13.6523C10.1133 13.3008 11.0078 13.125 12.0391 13.125C13.0703 13.125 13.9648 13.3008 14.7227 13.6523C15.4805 14.0039 16.1055 14.4375 16.5977 14.9531C17.0977 15.4609 17.4688 15.9727 17.7109 16.4883C17.9609 16.9961 18.0859 17.4102 18.0859 17.7305C18.0859 17.9492 18.0273 18.1289 17.9102 18.2695C17.8008 18.4023 17.6289 18.4688 17.3945 18.4688H6.68359ZM12.0391 12.1641C11.4844 12.1641 10.9766 12.0195 10.5156 11.7305C10.0625 11.4414 9.69922 11.0508 9.42578 10.5586C9.16016 10.0664 9.02734 9.50781 9.02734 8.88281C9.02734 8.29688 9.16016 7.76172 9.42578 7.27734C9.69922 6.78516 10.0625 6.39453 10.5156 6.10547C10.9766 5.80859 11.4844 5.66016 12.0391 5.66016C12.5938 5.66016 13.0977 5.80859 13.5508 6.10547C14.0117 6.39453 14.375 6.78516 14.6406 7.27734C14.9141 7.76172 15.0508 8.29688 15.0508 8.88281C15.0508 9.50781 14.9141 10.0703 14.6406 10.5703C14.375 11.0625 14.0117 11.4531 13.5508 11.7422C13.0977 12.0312 12.5938 12.1719 12.0391 12.1641Z" fill="black"/>
</svg>
