<svg width="48" height="22" viewBox="0 0 48 22" fill="none" xmlns="http://www.w3.org/2000/svg">
<g id="Group">
<g id="&#227;&#131;&#172;&#227;&#130;&#164;&#227;&#131;&#164;&#227;&#131;&#188;_1">
<path id="Vector" d="M23.4601 3.14687C17.3895 3.5044 10.102 6.93701 0.82666 5.40873C9.0479 4.29725 15.3148 1.57783 22.9599 0.494141L23.4582 3.14687H23.4601Z" fill="white"/>
<path id="Vector_2" d="M24.4752 6.65739C26.9316 6.39248 29.1045 6.47585 31.4701 7.91892C26.5333 7.38355 24.1195 8.76179 21.0444 9.0693C31.911 11.9221 35.8882 18.013 38.5836 21.39C40.4694 20.5916 40.5694 18.9522 40.0915 18.3705L40.575 17.3313L40.5972 16.6625L41.8958 16.0568L41.4845 12.8224L43.915 11.8258L47.1382 3.00618C41.679 4.13803 39.9118 0.60909 32.1481 0.127449C28.9822 -0.0689125 26.1332 0.0755798 23.46 0.425696L23.8954 3.12659C25.683 3.06546 27.365 3.29146 28.9619 4.01948C27.2076 3.90833 25.6293 4.05467 24.0862 4.34181L24.4752 6.65924V6.65739Z" fill="white"/>
<path id="Vector_3" d="M24.1157 6.69475C20.7554 7.09118 16.8559 8.02852 11.2393 6.96891C16.0835 6.83924 19.7087 5.21648 23.7026 4.41992L24.1157 6.69475Z" fill="white"/>
<path id="Vector_4" d="M23.4601 3.14687C17.3895 3.5044 10.102 6.93701 0.82666 5.40873C9.0479 4.29725 15.3148 1.57783 22.9599 0.494141L23.4582 3.14687H23.4601Z" fill="#EF293D"/>
<path id="Vector_5" d="M24.4752 6.65739C26.9316 6.39248 29.1045 6.47585 31.4701 7.91892C26.5333 7.38355 24.1195 8.76179 21.0444 9.0693C31.911 11.9221 35.8882 18.013 38.5836 21.39C40.4694 20.5916 40.5694 18.9522 40.0915 18.3705L40.575 17.3313L40.5972 16.6625L41.8958 16.0568L41.4845 12.8224L43.915 11.8258L47.1382 3.00618C41.679 4.13803 39.9118 0.60909 32.1481 0.127449C28.9822 -0.0689125 26.1332 0.0755798 23.46 0.425696L23.8954 3.12659C25.683 3.06546 27.365 3.29146 28.9619 4.01948C27.2076 3.90833 25.6293 4.05467 24.0862 4.34181L24.4752 6.65924V6.65739Z" fill="#0C2E59"/>
<path id="Vector_6" d="M24.1157 6.69475C20.7554 7.09118 16.8559 8.02852 11.2393 6.96891C16.0835 6.83924 19.7087 5.21648 23.7026 4.41992L24.1157 6.69475Z" fill="#EF293D"/>
<path id="Vector_7" d="M32.8574 14.0963C35.7954 16.1544 37.3033 18.4311 38.8335 20.4262C39.6115 20.102 39.8579 19.1999 39.6004 18.8812L38.8613 17.968L39.7041 18.0161L40.0894 17.3437L39.0428 17.2826L37.8591 17.4956L39.0595 16.6768L39.969 16.7287L40.0024 16.2081L39.0724 15.7654L39.3892 15.4134L41.1139 15.5209L40.6174 11.6826C39.9357 11.5992 39.3651 11.9567 39.1188 12.9422L36.0659 12.7626C36.4938 11.7882 37.1644 11.3491 38.4352 11.5103C37.7201 10.5118 34.2505 10.421 33.7614 11.9845L36.4568 14.1964L36.8032 16.2137L35.6991 14.6076C34.6988 13.7444 33.6558 13.1386 32.8593 14.0926L32.8574 14.0963Z" fill="#D3D3D3"/>
<path id="Vector_8" d="M41.8921 4.20508L42.1089 6.13164L44.2799 6.94673L42.2459 7.45801L42.4442 10.0533L40.6862 7.85999L38.0557 8.48057L39.6803 6.58735L38.3428 4.81083L40.588 5.58146L41.8958 4.20878L41.8921 4.20508Z" fill="white"/>
</g>
</g>
</svg>
