<?xml version="1.0" encoding="UTF-8"?>
<svg xmlns="http://www.w3.org/2000/svg" width="881.9mm" height="406.8mm" version="1.1" viewBox="0 0 2500 1153">
  <defs>
    <style>
      .cls-1 {
        fill: #0c2e59;
      }

      .cls-2 {
        fill: #fff;
      }

      .cls-3 {
        fill: #ef293d;
      }

      .cls-4 {
        fill: #d3d3d3;
      }
    </style>
  </defs>
  <!-- Generator: Adobe Illustrator 28.7.1, SVG Export Plug-In . SVG Version: 1.2.0 Build 142)  -->
  <g>
    <g id="_レイヤー_1" data-name="レイヤー_1">
      <path class="cls-2" d="M1221.8,168C894.1,187.3,500.7,372.6,0,290.1,443.8,230.1,782.1,83.3,1194.8,24.8l26.9,143.2h0Z"/>
      <path class="cls-2" d="M1276.6,357.5c132.6-14.3,249.9-9.8,377.6,68.1-266.5-28.9-396.8,45.5-562.8,62.1,586.6,154,801.3,482.8,946.8,665.1,101.8-43.1,107.2-131.6,81.4-163l26.1-56.1,1.2-36.1,70.1-32.7-22.2-174.6,131.2-53.8,174-476.1c-294.7,61.1-390.1-129.4-809.2-155.4-170.9-10.6-324.7-2.8-469,16.1l23.5,145.8c96.5-3.3,187.3,8.9,273.5,48.2-94.7-6-179.9,1.9-263.2,17.4l21,125.1h0Z"/>
      <path class="cls-2" d="M1257.2,359.5c-181.4,21.4-391.9,72-695.1,14.8,261.5-7,457.2-94.6,672.8-137.6l22.3,122.8h0Z"/>
      <path class="cls-3" d="M1221.8,168C894.1,187.3,500.7,372.6,0,290.1,443.8,230.1,782.1,83.3,1194.8,24.8l26.9,143.2h0Z"/>
      <path class="cls-1" d="M1276.6,357.5c132.6-14.3,249.9-9.8,377.6,68.1-266.5-28.9-396.8,45.5-562.8,62.1,586.6,154,801.3,482.8,946.8,665.1,101.8-43.1,107.2-131.6,81.4-163l26.1-56.1,1.2-36.1,70.1-32.7-22.2-174.6,131.2-53.8,174-476.1c-294.7,61.1-390.1-129.4-809.2-155.4-170.9-10.6-324.7-2.8-469,16.1l23.5,145.8c96.5-3.3,187.3,8.9,273.5,48.2-94.7-6-179.9,1.9-263.2,17.4l21,125.1h0Z"/>
      <path class="cls-3" d="M1257.2,359.5c-181.4,21.4-391.9,72-695.1,14.8,261.5-7,457.2-94.6,672.8-137.6l22.3,122.8h0Z"/>
      <path class="cls-4" d="M1729.1,759.1c158.6,111.1,240,234,322.6,341.7,42-17.5,55.3-66.2,41.4-83.4l-39.9-49.3,45.5,2.6,20.8-36.3-56.5-3.3-63.9,11.5,64.8-44.2,49.1,2.8,1.8-28.1-50.2-23.9,17.1-19,93.1,5.8-26.8-207.2c-36.8-4.5-67.6,14.8-80.9,68l-164.8-9.7c23.1-52.6,59.3-76.3,127.9-67.6-38.6-53.9-225.9-58.8-252.3,25.6l145.5,119.4,18.7,108.9-59.6-86.7c-54-46.6-110.3-79.3-153.3-27.8h0Z"/>
      <path class="cls-2" d="M2216.8,225.1l11.7,104,117.2,44-109.8,27.6,10.7,140.1-94.9-118.4-142,33.5,87.7-102.2-72.2-95.9,121.2,41.6,70.6-74.1h0Z"/>
    </g>
  </g>
</svg>