<svg width="35" height="19" viewBox="0 0 35 19" fill="none" xmlns="http://www.w3.org/2000/svg">
<g id="Group">
<g id="Layer_1">
<g id="Group_2">
<path id="Vector" d="M16.0619 0.508554C16.4283 0.893293 17.1428 1.8643 17.1428 1.8643C7.85412 1.44292 2.99907 7.74533 2.99907 7.74533L4.46474 7.87357C-0.298703 14.2126 0.983762 18.7379 0.983762 18.7379C4.50138 13.9561 6.7915 11.0248 12.8008 8.73466C12.8008 8.73466 12.2145 7.83693 11.8664 7.43387C20.4406 6.64607 28.5018 11.8309 28.5018 11.8309C28.5018 11.8309 27.714 9.94384 27.5308 9.52246C31.3782 12.8019 34.5111 18.7562 34.5111 18.7562C34.8592 13.3515 32.0927 1.0765 16.0802 0.490234L16.0619 0.508554Z" fill="#12274B"/>
<path id="Vector_2" d="M33.8879 16.5217C33.1551 8.38716 27.6771 1.99315 17.3808 1.15039L18.3701 2.48782C8.64169 1.7733 4.37291 7.25126 4.37291 7.25126C4.37291 7.25126 5.03247 7.32455 5.60042 7.36119C1.14843 12.6193 1.42324 17.053 1.42324 17.053C4.79429 12.5827 7.30426 10.4025 11.8845 8.44212C11.8845 8.44212 11.3349 7.636 10.602 6.97645C19.2129 5.69398 27.2924 10.5124 27.2924 10.5124C27.2924 10.5124 26.4863 8.57037 25.7901 7.56272C30.352 10.2376 33.8696 16.5217 33.8696 16.5217H33.8879Z" fill="#3997D3"/>
<path id="Vector_3" d="M18.3885 1.73633C18.6449 2.10275 18.9381 2.46917 19.3595 3.03712C16.7945 2.81726 10.2356 2.39588 5.45387 6.88451C5.45387 6.88451 6.55312 6.97612 6.55312 6.99444C4.90424 8.75325 2.5042 12.4358 1.99121 15.6053C5.63708 10.7319 9.04477 9.19295 11.17 8.25858C10.7669 7.70895 10.0707 7.06772 9.53944 6.7013C14.7792 5.52876 21.5763 6.93948 26.3214 9.44944C25.8451 8.38683 25.0756 7.3059 24.5076 6.37153C29.1428 8.35019 32.2208 13.0953 33.1918 14.5976C32.6788 11.9777 30.2787 3.1104 18.3885 1.73633Z" fill="#F0C818"/>
</g>
</g>
</g>
</svg>
