<?xml version="1.0" encoding="UTF-8"?>
<svg xmlns="http://www.w3.org/2000/svg" width="800" height="600" version="1.1" viewBox="0 0 800 600">
  <defs>
    <style>
      .cls-1 {
        fill: #12274b;
      }

      .cls-2 {
        fill: #3997d3;
      }

      .cls-3 {
        fill: #f0c818;
      }
    </style>
  </defs>
  <!-- Generator: Adobe Illustrator 28.7.1, SVG Export Plug-In . SVG Version: 1.2.0 Build 142)  -->
  <g>
    <g id="Layer_1">
      <g>
        <path class="cls-1" d="M391.2,250.2c2,2.1,5.9,7.4,5.9,7.4-50.7-2.3-77.2,32.1-77.2,32.1l8,.7c-26,34.6-19,59.3-19,59.3,19.2-26.1,31.7-42.1,64.5-54.6,0,0-3.2-4.9-5.1-7.1,46.8-4.3,90.8,24,90.8,24,0,0-4.3-10.3-5.3-12.6,21,17.9,38.1,50.4,38.1,50.4,1.9-29.5-13.2-96.5-100.6-99.7Z"/>
        <path class="cls-2" d="M488.5,337.6c-4-44.4-33.9-79.3-90.1-83.9,0,0,5.4,7.3,5.4,7.3-53.1-3.9-76.4,26-76.4,26,0,0,3.6.4,6.7.6-24.3,28.7-22.8,52.9-22.8,52.9,18.4-24.4,32.1-36.3,57.1-47,0,0-3-4.4-7-8,47-7,91.1,19.3,91.1,19.3,0,0-4.4-10.6-8.2-16.1,24.9,14.6,44.1,48.9,44.1,48.9Z"/>
        <path class="cls-3" d="M403.9,256.9c1.4,2,3,4,5.3,7.1-14-1.2-49.8-3.5-75.9,21,0,0,6,.5,6,.6-9,9.6-22.1,29.7-24.9,47,19.9-26.6,38.5-35,50.1-40.1-2.2-3-6-6.5-8.9-8.5,28.6-6.4,65.7,1.3,91.6,15-2.6-5.8-6.8-11.7-9.9-16.8,25.3,10.8,42.1,36.7,47.4,44.9-2.8-14.3-15.9-62.7-80.8-70.2Z"/>
      </g>
    </g>
  </g>
</svg>