<?xml version="1.0" encoding="UTF-8"?>
<svg xmlns="http://www.w3.org/2000/svg" width="119.6mm" height="208.1mm" version="1.1" viewBox="0 0 339 590">
  <defs>
    <style>
      .cls-1 {
        fill: #9b9b9b;
      }

      .cls-2 {
        fill: #040000;
      }

      .cls-3 {
        fill: #e71f19;
      }
    </style>
  </defs>
  <!-- Generator: Adobe Illustrator 28.7.1, SVG Export Plug-In . SVG Version: 1.2.0 Build 142)  -->
  <g>
    <g id="_レイヤー_1" data-name="レイヤー_1">
      <path class="cls-2" d="M331,0H8C3.6,0,0,3.6,0,8v574c0,4.4,3.6,8,8,8h323c4.4,0,8-3.6,8-8V8c0-4.4-3.6-8-8-8ZM310,126.4l-12.4,6.4v201.7l12.4,6.4v37.5H30v-38l11.4-5.9v-201.7s-11.4-5.9-11.4-5.9v-38h280.1v37.5Z"/>
      <path class="cls-3" d="M34,273v1.4l-9.2-1.9v-5.7l1.3.3v4.3l2.8.6v-3.9l1.3.3v3.9l3.8.8ZM34.2,262.4c0,.7-.1,1.3-.4,1.8-.3.5-.6.9-1,1.1-.4.3-.9.4-1.5.4-.1,0-.3,0-.4,0-.1,0-.3,0-.4,0l-5.7-1.2v-1.4l5.6,1.2c.1,0,.3,0,.4,0,.1,0,.2,0,.4,0,.3,0,.6-.1.9-.3.2-.2.4-.4.6-.7.1-.3.2-.7.2-1.1s0-.8-.2-1.1c-.2-.3-.4-.6-.7-.9-.3-.2-.7-.4-1.1-.5l-6-1.3v-1.4l6.3,1.3c.6.1,1.2.4,1.7.7.5.4.8.8,1.1,1.4.2.6.4,1.2.4,2ZM34,254.9v1.4l-9.2-1.9v-1.2l6.7-3.3h0c0-.1-6.7-1.6-6.7-1.6v-1.4l9.2,1.9v1.3l-6.7,3.3h0c0,.1,6.7,1.6,6.7,1.6ZM34,238.4v1.4l-7.9-1.7v2.9l-1.3-.3v-7.2l1.3.3v2.9l7.9,1.7ZM25.9,228.1c0,.5.1.9.3,1.3.2.4.5.8.9,1.1.4.3.8.6,1.4.7.5.2,1.1.3,1.7.3s1,0,1.4-.3c.4-.2.7-.5.9-.8.2-.4.3-.8.3-1.3s-.1-.9-.3-1.3c-.2-.4-.5-.8-.9-1.1-.4-.3-.8-.5-1.4-.7-.5-.2-1.1-.3-1.7-.3s-1,.1-1.4.3c-.4.2-.7.5-.9.8-.2.4-.3.8-.3,1.2ZM34.2,229.1c0,.7-.2,1.4-.5,2-.3.6-.8,1-1.4,1.3-.6.3-1.2.5-2,.5s-1.6-.1-2.3-.4-1.3-.6-1.8-1c-.5-.5-.9-1-1.2-1.6-.3-.6-.4-1.3-.4-2s.2-1.4.5-2c.3-.6.8-1,1.4-1.3.6-.3,1.2-.5,2-.5s1.6.1,2.3.4c.7.2,1.3.6,1.8,1,.5.4.9,1,1.2,1.6.3.6.4,1.3.4,2ZM24.8,217v-2.8c0-.8.2-1.5.5-2.1.3-.6.8-1,1.3-1.3.6-.3,1.3-.5,2.1-.5s1.5.1,2.1.4c.6.2,1.2.6,1.7,1,.5.4.8.9,1.1,1.5.3.6.4,1.2.4,1.9v3.9l-9.2-1.9ZM26.1,215.8l6.6,1.4v-2.2c0-.5,0-.9-.3-1.3-.2-.4-.5-.8-.8-1.1-.3-.3-.8-.5-1.2-.7-.5-.2-1-.3-1.6-.3s-1.1.1-1.5.3c-.4.2-.7.5-.9.9-.2.4-.3.9-.3,1.4v1.4ZM34,209l-9.2-1.9v-3.3c0-.6.1-1,.3-1.5.2-.4.5-.7.9-1,.4-.2.8-.4,1.3-.4s.9.1,1.3.3c.4.2.7.5,1,.8.3.4.5.8.6,1.3l3.7-1.3v1.5l-3.5,1.2v2.1l3.5.7v1.4ZM26.1,205.9l3.2.7v-2c0-.4,0-.8-.2-1.1-.2-.3-.4-.6-.6-.7-.3-.2-.6-.3-.9-.3s-.8.1-1,.4c-.2.3-.4.6-.4,1.1v2ZM34,198.5v1.4l-9.2-1.9v-1.4l9.2,1.9ZM34,191.7v1.6l-9.2,1.3v-1.4l7.4-1h0c0-.1-7.4-4.1-7.4-4.1v-1.6l9.2,5.2ZM32.7,180.3l1.3.3v5.8l-9.2-1.9v-5.8l1.3.3v4.4l2.6.6v-4.1l1.2.2v4.1l2.7.6v-4.4Z"/>
      <path class="cls-3" d="M305,164.7v-1.4l9.2,1.9v5.7l-1.3-.3v-4.3l-2.8-.6v3.9l-1.3-.3v-3.9l-3.8-.8ZM313,176.6c0-.5-.1-.9-.3-1.3-.2-.4-.5-.8-.9-1.1-.4-.3-.8-.5-1.4-.7-.5-.2-1.1-.3-1.7-.3s-1,.1-1.4.3c-.4.2-.7.5-.9.8-.2.4-.3.8-.3,1.3s.1.9.3,1.3c.2.4.5.8.9,1.1.4.3.8.5,1.4.7.5.2,1.1.3,1.7.3s1-.1,1.4-.3c.4-.2.7-.5.9-.8.2-.4.3-.8.3-1.3ZM304.8,175.5c0-.7.2-1.4.5-2,.3-.6.8-1,1.4-1.3.6-.3,1.2-.5,2-.5s1.6.1,2.3.4c.7.2,1.3.6,1.8,1,.5.5.9,1,1.2,1.6.3.6.4,1.3.4,2s-.2,1.4-.5,2c-.3.6-.8,1-1.4,1.3-.6.3-1.2.5-2,.5s-1.6-.1-2.3-.4c-.7-.2-1.3-.6-1.8-1-.5-.4-.9-1-1.2-1.6-.3-.6-.4-1.3-.4-2ZM313,187.1c0-.5-.1-.9-.3-1.3-.2-.4-.5-.8-.9-1.1-.4-.3-.8-.6-1.4-.7-.5-.2-1.1-.3-1.7-.3s-1,0-1.4.3c-.4.2-.7.5-.9.8-.2.4-.3.8-.3,1.3s.1.9.3,1.3c.2.4.5.8.9,1.1.4.3.8.5,1.4.7.5.2,1.1.3,1.7.3s1-.1,1.4-.3c.4-.2.7-.5.9-.8.2-.4.3-.8.3-1.3ZM304.8,186c0-.7.2-1.4.5-2,.3-.6.8-1,1.4-1.3.6-.3,1.2-.5,2-.5s1.6.1,2.3.4c.7.2,1.3.6,1.8,1,.5.5.9,1,1.2,1.6.3.6.4,1.3.4,2s-.2,1.4-.5,2c-.3.6-.8,1-1.4,1.3-.6.3-1.2.5-2,.5s-1.6-.1-2.3-.4c-.7-.2-1.3-.6-1.8-1-.5-.4-.9-1-1.2-1.6-.3-.6-.4-1.3-.4-2ZM305,195.6v-1.4l7.9,1.7v-2.9l1.3.3v7.2l-1.3-.3v-2.9l-7.9-1.7ZM305,204.5v-4l9.2,1.9v3.4c0,.5,0,1-.3,1.4-.2.4-.4.7-.7.9-.3.2-.6.3-1,.3s-.8,0-1.1-.3c-.3-.2-.6-.4-.8-.7-.2-.3-.4-.7-.4-1.1h-.1c0,.5-.3.9-.6,1.2-.3.3-.7.4-1.2.4s-1.1-.2-1.5-.5c-.4-.3-.8-.7-1-1.2-.2-.5-.4-1.1-.4-1.8ZM313,203.7l-2.7-.6v1.8c0,.4,0,.8.2,1.1.1.3.3.6.5.8.2.2.5.3.8.3s.7-.1.8-.4c.2-.3.3-.7.3-1.2v-1.7ZM306.2,202.2v2.1c0,.4,0,.8.2,1.1.1.3.3.6.6.8.2.2.5.3.9.3s.5,0,.7-.2c.2-.1.3-.3.4-.6,0-.3.1-.6.1-1v-2l-3-.6ZM312.5,214.6l-3.9-2.2v2.8l3.9-.5h0ZM305,215.7l2.4-.3v-3.5l-2.4-1.4v-1.5l9.2,5.3v1.5l-9.2,1.3v-1.4ZM306.3,225.1l-1.3-.3v-5.7l9.2,1.9v1.4l-7.9-1.7v4.3ZM306.3,233l-1.3-.3v-5.7l9.2,1.9v1.4l-7.9-1.7v4.3ZM305,238.3l4.8,4.1,4.4-2v1.6l-3.4,1.5h0c0,.1,3.4,3.1,3.4,3.1v1.6l-4.6-4.1-4.5,2.1v-1.5l3.4-1.6h0c0-.1-3.4-3.1-3.4-3.1v-1.6ZM305,256.1v-1.4l7.9,1.7v-2.9l1.3.3v7.2l-1.3-.3v-2.9l-7.9-1.7ZM313,266.4c0-.5-.1-.9-.3-1.3-.2-.4-.5-.8-.9-1.1-.4-.3-.8-.6-1.4-.7-.5-.2-1.1-.3-1.7-.3s-1,0-1.4.3c-.4.2-.7.5-.9.8-.2.4-.3.8-.3,1.3s.1.9.3,1.3c.2.4.5.8.9,1.1.4.3.8.5,1.4.7s1.1.3,1.7.3,1-.1,1.4-.3c.4-.2.7-.5.9-.8.2-.4.3-.8.3-1.2ZM304.8,265.3c0-.7.2-1.4.5-2,.3-.6.8-1,1.4-1.3.6-.3,1.2-.5,2-.5s1.6.1,2.3.4c.7.2,1.3.6,1.8,1,.5.5.9,1,1.2,1.6.3.6.4,1.3.4,2s-.2,1.4-.5,2c-.3.6-.8,1-1.4,1.3-.6.3-1.2.5-2,.5s-1.6-.1-2.3-.4c-.7-.2-1.3-.6-1.8-1-.5-.4-.9-1-1.2-1.6-.3-.6-.4-1.3-.4-2ZM305,274.7v-1.4l3.7.8,5.5-2.1v1.5l-4,1.5h0c0,.1,4,3.3,4,3.3v1.6l-5.6-4.4-3.6-.8ZM313,285c0-.5-.1-.9-.3-1.3-.2-.4-.5-.8-.9-1.1-.4-.3-.8-.6-1.4-.7-.5-.2-1.1-.3-1.7-.3s-1,0-1.4.3c-.4.2-.7.5-.9.8-.2.4-.3.8-.3,1.3s.1.9.3,1.3c.2.4.5.8.9,1.1.4.3.8.5,1.4.7.5.2,1.1.3,1.7.3s1-.1,1.4-.3c.4-.2.7-.5.9-.8.2-.4.3-.8.3-1.3ZM304.8,284c0-.7.2-1.4.5-2,.3-.6.8-1,1.4-1.3.6-.3,1.2-.5,2-.5s1.6.1,2.3.4c.7.2,1.3.6,1.8,1,.5.5.9,1,1.2,1.6.3.6.4,1.3.4,2s-.2,1.4-.5,2c-.3.6-.8,1-1.4,1.3-.6.3-1.2.5-2,.5s-1.6-.1-2.3-.4c-.7-.2-1.3-.6-1.8-1-.5-.4-.9-1-1.2-1.6-.3-.6-.4-1.3-.4-2ZM305,293.5v-1.4l7.9,1.7v-2.9l1.3.3v7.2l-1.3-.3v-2.9l-7.9-1.7ZM312.5,302.7l-3.9-2.2v2.8l3.9-.5h0ZM305,303.8l2.4-.3v-3.5l-2.4-1.4v-1.5l9.2,5.3v1.5l-9.2,1.3v-1.4Z"/>
      <path class="cls-1" d="M23.7,132.7l13.2,6.6v2.7l-13.2-6.6v-2.7Z"/>
      <path class="cls-1" d="M23.7,139.5l13.2,6.6v2.7l-13.2-6.6v-2.7Z"/>
      <path class="cls-1" d="M315.2,132.7l-13.2,6.6v2.7l13.2-6.6v-2.7Z"/>
      <path class="cls-1" d="M315.2,139.5l-13.2,6.6v2.7l13.2-6.6v-2.7Z"/>
      <path class="cls-1" d="M23.7,337l13.2-6.6v-2.7l-13.2,6.6v2.7Z"/>
      <path class="cls-1" d="M23.7,330.1l13.2-6.6v-2.7l-13.2,6.6v2.7Z"/>
      <path class="cls-1" d="M315.2,337l-13.2-6.6v-2.7l13.2,6.6v2.7Z"/>
      <path class="cls-1" d="M315.2,330.1l-13.2-6.6v-2.7l13.2,6.6v2.7Z"/>
    </g>
  </g>
</svg>