<svg width="24" height="25" viewBox="0 0 24 25" fill="none" xmlns="http://www.w3.org/2000/svg">
<path d="M12.0508 24.8574C10.418 24.8574 8.87891 24.5449 7.43359 23.9199C5.99609 23.2949 4.72656 22.4316 3.625 21.3301C2.52344 20.2285 1.66016 18.959 1.03516 17.5215C0.410156 16.0762 0.0976562 14.5371 0.0976562 12.9043C0.0976562 11.2715 0.410156 9.73633 1.03516 8.29883C1.66016 6.85352 2.51953 5.58008 3.61328 4.47852C4.71484 3.37695 5.98438 2.51367 7.42188 1.88867C8.86719 1.26367 10.4062 0.951172 12.0391 0.951172C13.6719 0.951172 15.2109 1.26367 16.6562 1.88867C18.1016 2.51367 19.375 3.37695 20.4766 4.47852C21.5781 5.58008 22.4414 6.85352 23.0664 8.29883C23.6914 9.73633 24.0039 11.2715 24.0039 12.9043C24.0039 14.5371 23.6914 16.0762 23.0664 17.5215C22.4414 18.959 21.5781 20.2285 20.4766 21.3301C19.375 22.4316 18.1016 23.2949 16.6562 23.9199C15.2188 24.5449 13.6836 24.8574 12.0508 24.8574ZM12.0508 22.8652C13.4336 22.8652 14.7266 22.6074 15.9297 22.0918C17.1328 21.5762 18.1914 20.8652 19.1055 19.959C20.0195 19.0449 20.7305 17.9863 21.2383 16.7832C21.7539 15.5801 22.0117 14.2871 22.0117 12.9043C22.0117 11.5215 21.7539 10.2285 21.2383 9.02539C20.7227 7.82227 20.0078 6.76367 19.0938 5.84961C18.1875 4.93555 17.1289 4.22461 15.918 3.7168C14.7148 3.20117 13.4219 2.94336 12.0391 2.94336C10.6562 2.94336 9.36328 3.20117 8.16016 3.7168C6.95703 4.22461 5.90234 4.93555 4.99609 5.84961C4.08984 6.76367 3.37891 7.82227 2.86328 9.02539C2.35547 10.2285 2.10156 11.5215 2.10156 12.9043C2.10156 14.2871 2.35547 15.5801 2.86328 16.7832C3.37891 17.9863 4.08984 19.0449 4.99609 19.959C5.91016 20.8652 6.96875 21.5762 8.17188 22.0918C9.375 22.6074 10.668 22.8652 12.0508 22.8652ZM11.8164 15.3301C11.1914 15.3301 10.8789 15.0215 10.8789 14.4043C10.8789 14.3809 10.8789 14.3574 10.8789 14.334C10.8789 14.3027 10.8789 14.2754 10.8789 14.252C10.8789 13.6738 11.0156 13.209 11.2891 12.8574C11.5703 12.5059 11.9219 12.1855 12.3438 11.8965C12.8594 11.5371 13.2422 11.2324 13.4922 10.9824C13.7422 10.7246 13.8672 10.3965 13.8672 9.99805C13.8672 9.55273 13.707 9.19336 13.3867 8.91992C13.0664 8.63867 12.6367 8.49805 12.0977 8.49805C11.8398 8.49805 11.5977 8.54102 11.3711 8.62695C11.1523 8.71289 10.9531 8.83789 10.7734 9.00195C10.5938 9.1582 10.4336 9.34961 10.293 9.57617L10.082 9.85742C9.98047 9.99805 9.85938 10.1113 9.71875 10.1973C9.58594 10.2832 9.42188 10.3262 9.22656 10.3262C9.03125 10.3262 8.84766 10.2598 8.67578 10.127C8.50391 9.98633 8.41797 9.7832 8.41797 9.51758C8.41797 9.41602 8.42578 9.31836 8.44141 9.22461C8.45703 9.13086 8.48047 9.03711 8.51172 8.94336C8.67578 8.4043 9.07422 7.93164 9.70703 7.52539C10.3477 7.11133 11.1719 6.9043 12.1797 6.9043C12.8438 6.9043 13.457 7.02148 14.0195 7.25586C14.582 7.48242 15.0352 7.81836 15.3789 8.26367C15.7305 8.70898 15.9062 9.25586 15.9062 9.9043C15.9062 10.6074 15.7227 11.1621 15.3555 11.5684C14.9883 11.9746 14.5234 12.3652 13.9609 12.7402C13.5469 13.0137 13.2422 13.2715 13.0469 13.5137C12.8516 13.748 12.7539 14.0293 12.7539 14.3574C12.7539 14.373 12.7539 14.3965 12.7539 14.4277C12.7539 14.4512 12.7539 14.4746 12.7539 14.498C12.7539 14.7246 12.668 14.9199 12.4961 15.084C12.332 15.248 12.1055 15.3301 11.8164 15.3301ZM11.7812 18.8223C11.4453 18.8223 11.1523 18.7051 10.9023 18.4707C10.6523 18.2285 10.5273 17.9395 10.5273 17.6035C10.5273 17.2676 10.6484 16.9824 10.8906 16.748C11.1406 16.5059 11.4375 16.3848 11.7812 16.3848C12.125 16.3848 12.4219 16.502 12.6719 16.7363C12.9219 16.9707 13.0469 17.2598 13.0469 17.6035C13.0469 17.9473 12.9219 18.2363 12.6719 18.4707C12.4219 18.7051 12.125 18.8223 11.7812 18.8223Z" fill="black"/>
</svg>
