<svg width="87" height="87" viewBox="0 0 87 87" fill="none" xmlns="http://www.w3.org/2000/svg">
<rect x="1.5" y="2" width="84" height="83" rx="41.5" fill="url(#paint0_linear_177_3089)"/>
<rect x="1.5" y="2" width="84" height="83" rx="41.5" stroke="#919191" stroke-width="3"/>
<path d="M75.1646 52.1953L74.1196 56.1016H68.2603L67.9966 57.0781H72.8794L71.8345 60.9844H66.9517L66.688 61.9609H72.5474L71.5024 65.8672H61.7368L65.3989 52.1953H75.1646Z" fill="white"/>
<path d="M51.4346 65.8672L50.2139 52.1953H54.1201L54.9795 61.7656L60.9561 52.1953H64.8623L56.3174 65.8672H51.4346Z" fill="white"/>
<path d="M49.6572 52.1953L45.9951 65.8672H42.0889L45.751 52.1953H49.6572Z" fill="white"/>
<path d="M35.3413 56.1016L34.814 58.0547H37.7437C38.3947 58.0547 38.8081 57.7292 38.9839 57.0781C39.1597 56.4271 38.922 56.1016 38.271 56.1016H35.3413ZM33.769 61.9609L32.7241 65.8672H28.8179L32.48 52.1953H39.3159C42.5711 52.1953 43.7625 53.8229 42.8901 57.0781C42.1935 59.6823 40.7352 61.2448 38.5151 61.7656L41.5132 65.8672H36.6304L33.769 61.9609Z" fill="white"/>
<path d="M24.5215 52.1953C26.4095 52.1953 27.8418 52.8626 28.8184 54.1973C29.7949 55.5319 30.0326 57.1432 29.5312 59.0312C29.0234 60.9193 27.9232 62.5306 26.2305 63.8652C24.5378 65.1999 22.7474 65.8672 20.8594 65.8672H15.4883L19.1504 52.1953H24.5215ZM20.4395 61.9609H21.9043C22.7116 61.9609 23.4766 61.6745 24.1992 61.1016C24.9284 60.5286 25.4036 59.8385 25.625 59.0312C25.8398 58.224 25.7357 57.5339 25.3125 56.9609C24.8958 56.388 24.2839 56.1016 23.4766 56.1016H22.0117L20.4395 61.9609Z" fill="white"/>
<path d="M62.0781 25.6328C61.8379 25.2422 59.4668 24.243 59.4668 24.243C59.8792 24.0352 60.1611 23.9922 60.1611 23.1328C60.1611 22.1953 60.1562 21.8828 59.5156 21.8828H57.3423C57.3335 21.8641 57.3239 21.8445 57.3151 21.825C55.9121 18.8359 55.7239 18.0805 53.6315 17.0633C50.8247 15.7016 45.5628 15.6328 43.5 15.6328C41.4372 15.6328 36.1753 15.7016 33.3709 17.0633C31.2761 18.0789 31.3281 18.6016 29.6873 21.825C29.6873 21.8336 29.6705 21.8562 29.6553 21.8828H27.4796C26.8437 21.8828 26.8389 22.1953 26.8389 23.1328C26.8389 23.9922 27.1208 24.0352 27.5332 24.243C27.5332 24.243 25.2422 25.3203 24.9219 25.6328C24.6016 25.9453 24.2812 28.1328 24.2812 31.8828C24.2812 35.6328 24.6016 39.3828 24.6016 39.3828H25.5577C25.5577 40.4766 25.7227 40.6328 26.2031 40.6328H32.6094C33.0898 40.6328 33.25 40.4766 33.25 39.3828H53.75C53.75 40.4766 53.9102 40.6328 54.3906 40.6328H60.957C61.2773 40.6328 61.4375 40.3984 61.4375 39.3828H62.3984C62.3984 39.3828 62.7188 35.5547 62.7188 31.8828C62.7188 28.2109 62.3184 26.0234 62.0781 25.6328ZM33.0306 29.1438C31.5721 29.2993 30.1062 29.3791 28.6391 29.3828C27.0039 29.3828 26.9479 29.4852 26.8325 28.4891C26.7892 28.0331 26.8029 27.5738 26.8734 27.1211L26.9238 26.8828H27.1641C28.125 26.8828 29.0275 26.9227 30.7315 27.4125C31.5982 27.6662 32.4134 28.0643 33.1411 28.5891C33.4902 28.8359 33.5703 29.0703 33.5703 29.0703L33.0306 29.1438ZM52.8227 34.7687L52.4688 35.6328H34.5312C34.5312 35.6328 34.5625 35.5852 34.1309 34.7594C33.8105 34.1484 34.2109 33.7578 34.8444 33.5359C36.0712 33.1047 39.6562 31.8828 43.5 31.8828C47.3438 31.8828 51.0001 32.9359 52.1885 33.5359C52.6289 33.7578 53.1758 33.9141 52.8227 34.7734V34.7687ZM32.2426 24.1023C31.984 24.1169 31.7247 24.1188 31.4659 24.1078C31.6749 23.7453 31.791 23.3414 31.9952 22.9195C32.6358 21.5914 33.3685 20.0883 34.673 19.4547C36.558 18.5391 40.465 18.1266 43.5 18.1266C46.535 18.1266 50.442 18.5359 52.327 19.4547C53.6315 20.0883 54.361 21.5922 55.0048 22.9195C55.2106 23.3453 55.3251 23.7523 55.5397 24.1172C55.3796 24.1258 55.1954 24.1172 54.7558 24.1023H32.2426ZM60.0874 28.4859C59.916 29.4609 60.0762 29.3828 58.3609 29.3828C56.8938 29.3791 55.4279 29.2993 53.9694 29.1438C53.7412 29.1039 53.6763 28.7281 53.8589 28.5891C54.5828 28.0584 55.3991 27.6598 56.2685 27.4125C57.9725 26.9227 58.9319 26.857 59.8792 26.8898C59.9428 26.8922 60.0033 26.9175 60.049 26.9607C60.0947 27.004 60.1223 27.0622 60.1266 27.1242C60.1719 27.579 60.1587 28.0375 60.0874 28.4891V28.4859Z" fill="white"/>
<defs>
<linearGradient id="paint0_linear_177_3089" x1="43.5" y1="0.5" x2="43.5" y2="86.5" gradientUnits="userSpaceOnUse">
<stop stop-color="#FF3B30"/>
<stop offset="1" stop-color="#99231D"/>
</linearGradient>
</defs>
</svg>
