<svg width="25" height="25" viewBox="0 0 25 25" fill="none" xmlns="http://www.w3.org/2000/svg">
<path fill-rule="evenodd" clip-rule="evenodd" d="M13.0255 0.603884C12.815 0.547831 12.5909 0.577528 12.4023 0.686466C12.2136 0.795404 12.0759 0.974693 12.0193 1.18503L8.01982 16.113C7.96383 16.3238 7.99376 16.5481 8.10304 16.7368C8.21233 16.9254 8.39203 17.063 8.60268 17.1193L19.0307 19.9136C19.2414 19.9696 19.4657 19.9397 19.6544 19.8304C19.8431 19.7211 19.9807 19.5414 20.037 19.3307L24.0398 4.40446C24.0678 4.3 24.0749 4.19105 24.0608 4.08384C24.0466 3.97663 24.0115 3.87326 23.9573 3.77964C23.9032 3.68602 23.8311 3.604 23.7453 3.53825C23.6594 3.4725 23.5615 3.42431 23.457 3.39646L13.0255 0.603884ZM5.95068 15.5576L8.68668 5.34903L0.675822 7.4936C0.571331 7.52146 0.473356 7.56964 0.387499 7.63539C0.301642 7.70114 0.229588 7.78317 0.175455 7.87679C0.121323 7.9704 0.0861748 8.07377 0.0720204 8.18098C0.057866 8.28819 0.0649831 8.39714 0.0929647 8.5016L4.09582 23.4279C4.1521 23.6385 4.28969 23.8182 4.47837 23.9275C4.66704 24.0368 4.89138 24.0667 5.10211 24.0107L15.5318 21.2165L15.5713 21.2045L8.04554 19.1902C7.66917 19.0893 7.31636 18.9153 7.00727 18.6781C6.69819 18.4408 6.43888 18.145 6.24418 17.8075C6.04948 17.47 5.92319 17.0974 5.87253 16.7111C5.82188 16.3247 5.84785 15.9322 5.94896 15.5559L5.95068 15.5576Z" fill="#FF3B30"/>
</svg>
