<svg width="35" height="20" viewBox="0 0 35 20" fill="none" xmlns="http://www.w3.org/2000/svg">
<g id="Group">
<g id="PHILADEPLPHIA_EAGLES">
<g id="Group_2">
<path id="Vector" d="M18.9507 1.23798L17.4162 2.52421C20.267 1.62911 26.2243 0.320312 26.2243 0.320312L24.3739 1.7645C30.4591 0.606142 34.2576 0.403053 34.2576 0.403053C34.2576 0.403053 32.7307 2.98304 30.8502 5.10419C31.6475 5.11924 33.3023 5.10419 33.3023 5.10419C33.3023 5.10419 31.3542 7.66161 28.6764 9.71507C28.9397 9.78277 30.0078 10.1589 30.0078 10.1589C30.0078 10.1589 28.3078 12.1597 25.5172 14.0928C21.9594 16.5675 20.5603 16.0635 20.5603 16.0635C20.5603 16.0635 20.6055 15.9582 20.6205 15.7852C20.628 15.6874 20.6205 15.6047 20.6205 15.5971C17.8675 17.6581 15.8742 16.6352 15.8742 16.6352C15.8742 16.6352 17.0476 14.5065 15.6862 13.8972C14.6331 13.4233 12.8505 14.1304 12.6624 14.5967C12.4593 15.1007 11.6018 16.4772 10.8121 17.2444C9.4506 18.5833 8.05154 19.1098 8.05154 19.1098C8.05154 19.1098 6.95336 18.0493 7.67545 15.379C7.83341 14.7998 7.74315 14.5516 7.6905 14.4463C7.52502 14.1229 5.94543 14.2808 5.47908 15.0932C5.14812 15.6724 6.61487 16.3568 6.61487 16.3568C6.61487 16.3568 5.81756 17.0564 4.55389 17.1692C3.75658 17.2444 2.56061 17.0564 1.42482 15.8153C0.740329 15.1082 0.830591 12.9043 0.830591 12.9043C0.830591 12.9043 1.94382 11.3172 3.90702 10.0611C3.57606 9.79029 3.3504 9.36907 3.30527 9.20359C7.10379 8.05275 7.84845 5.90151 12.2186 3.89318C14.257 2.96047 16.3932 2.05785 18.9507 1.23798Z" fill="#024C52"/>
<path id="Vector_2" d="M27.7212 9.93322C27.8641 9.97835 28.4433 10.1589 28.7592 10.3319C27.2849 12.2123 23.1179 15.7551 21.0193 15.6874C21.0343 15.3339 20.9365 15.0255 20.7936 14.7998C19.8534 16.1387 17.3712 16.748 16.4084 16.402C18.1083 12.1371 12.8205 13.2353 12.294 14.4012C10.925 17.425 8.18703 18.6059 8.18703 18.6059C8.18703 18.6059 7.47246 17.5754 8.05916 15.5069C8.49543 13.98 7.50255 13.9198 7.50255 13.9198C7.11141 13.8596 5.59953 13.8671 5.01282 14.8525C4.53895 15.6498 5.80261 16.3869 5.80261 16.3869C5.80261 16.3869 3.71155 17.7033 1.71074 15.552C1.22182 15.0255 1.23687 13.0397 1.23687 13.0397C2.50053 11.3925 4.03499 10.4297 4.66682 10.0761C4.0726 9.76774 3.92216 9.42926 3.92216 9.42926C7.05124 8.39877 8.47286 6.26257 11.1958 4.86351C14.197 3.32154 16.4385 2.65209 16.4385 2.65209L15.5208 3.57728C15.5208 3.57728 16.2279 3.36667 16.5363 3.25384C19.3419 2.24592 24.0054 1.33577 24.0054 1.33577L22.4484 2.53927C22.4484 2.53927 24.8704 2.00522 27.8717 1.70434C29.4738 1.54639 32.8135 1.23047 32.8135 1.23047C32.8135 1.23047 31.7905 3.39675 29.9025 5.50287C30.8954 5.54048 31.9635 5.60817 31.9635 5.60817C31.9635 5.60817 30.5645 7.77446 27.7137 9.94074L27.7212 9.93322Z" fill="#000017" stroke="black" stroke-width="1.33342"/>
<path id="Vector_3" d="M15.9645 5.51758C15.9268 5.52513 15.8966 5.53267 15.8589 5.54022C15.8891 5.54022 15.9193 5.52513 15.9495 5.51758C15.9495 5.51758 15.9495 5.51758 15.957 5.51758H15.9645Z" fill="#000017" stroke="black" stroke-width="1.33342"/>
<path id="Vector_4" d="M15.8442 5.54883C15.8442 5.54883 15.8521 5.54883 15.86 5.54883C15.86 5.54883 15.8521 5.54883 15.8442 5.54883Z" fill="#000017" stroke="black" stroke-width="1.33342"/>
<path id="Vector_5" d="M18.7626 11.2126C18.7626 11.2126 17.4162 10.3626 15.092 10.844C15.092 10.844 18.3941 9.35472 22.2302 10.5808C19.7856 9.43746 17.4463 9.58789 16.0473 9.88877C15.2199 10.1069 14.7159 10.3025 14.7159 10.3025C14.7159 10.3025 14.934 10.1821 15.3252 10.0016C16.318 9.42994 17.6645 8.84323 18.9657 8.46714C19.8683 8.2114 21.6435 7.94062 22.3505 7.97822C22.3505 7.97822 20.5829 7.46674 18.8905 7.69992C18.8905 7.69992 21.6134 6.97782 24.1407 7.20348C24.9907 7.27869 26.9163 7.60213 26.9163 7.60213C24.216 6.45882 21.3426 5.9699 19.3268 6.05264C18.1684 6.20307 17.2508 6.3836 17.2508 6.3836C17.2508 6.3836 17.4162 6.32342 17.7246 6.23316C18.4843 5.88716 21.5908 4.64606 27.1194 4.41288C27.1194 4.41288 26.4349 4.25492 25.5849 4.15714C24.7124 4.05935 22.9749 4.15714 22.9749 4.15714C24.2761 3.72839 26.6756 3.44256 29.5865 3.49522C29.5865 3.49522 25.2389 2.47225 19.7104 3.54787C19.6653 3.56291 19.6352 3.57043 19.6352 3.57043C19.6352 3.57043 20.2444 3.22443 20.9289 2.87843C21.4329 2.62268 22.1625 2.20898 22.1625 2.20898C22.1625 2.20898 19.3493 2.55499 15.4455 3.90139C14.3473 4.27749 13.7606 4.51066 13.7606 4.51066C13.9411 4.34518 14.761 3.77352 14.9641 3.56291C12.0607 4.60092 10.955 5.38319 9.12718 6.93269C7.49495 8.31671 7.53255 8.59501 5.17822 9.53524C5.17822 9.53524 6.73524 10.3852 8.51039 9.49763C8.81879 9.3472 9.11966 9.11402 9.40549 8.8658C10.0674 8.25653 9.95458 7.53444 10.782 7.12826C10.6391 7.37648 10.4209 7.67735 10.3683 8.01583C10.797 7.54196 11.6094 6.95526 12.4894 6.5566C14.7159 5.54867 16.1225 5.4885 16.1225 5.4885C16.0698 5.50354 16.0097 5.51107 15.957 5.52611C12.9708 6.39112 12.3315 7.88796 12.3014 8.04592C12.2337 8.39192 13.377 7.73 14.2571 7.72248C13.3093 7.94061 12.4368 8.63262 11.9554 9.48259C11.7523 9.84364 11.6545 10.2724 11.1656 10.5582C11.0227 10.656 10.8422 10.7538 10.609 10.829C9.97715 11.0321 9.57849 10.8516 9.45062 10.7387C9.3754 10.671 9.33027 10.5733 9.33027 10.5733C9.60858 10.6861 10.0148 10.6635 10.3984 10.4755C10.6842 10.3401 10.9023 10.137 11.0377 9.92638C11.1129 9.81355 11.2408 9.58789 11.1205 9.27198C11.0603 9.11402 10.8948 9.00871 10.7068 8.95606C10.7218 8.92597 10.8497 8.68528 11.2032 8.34679C10.7444 8.60254 10.4285 8.94102 10.263 9.09145C10.4585 9.13658 10.624 9.24941 10.7068 9.42241C10.8647 9.7609 10.6315 10.1972 10.1953 10.4003C9.75149 10.6033 9.2701 10.483 9.11966 10.1445C9.09709 10.0994 9.08957 10.0542 9.08205 10.0091C9.05948 10.0166 9.03692 10.0317 9.01435 10.0392C8.87896 10.0919 8.60818 10.1746 8.60818 10.1746C8.72852 10.2197 8.894 10.2498 8.99931 10.2423C8.98427 10.7011 9.17983 11.4533 10.8196 11.2277C10.3156 11.6263 9.22497 11.4684 8.60065 11.0471C8.68339 11.1223 8.78118 11.2051 8.894 11.3029C10.7444 12.7621 13.1739 11.8595 13.7681 11.5962C13.9111 11.521 14.0615 11.4608 14.2119 11.4082C14.2119 11.4082 13.5726 11.852 13.0912 12.6041C13.8885 11.7918 16.0773 10.5883 18.7626 11.2277V11.2126Z" fill="white"/>
<path id="Vector_6" d="M11.6918 8.42071C11.7369 8.72158 12.2785 8.48089 12.2785 8.48089C12.2785 8.48089 11.5188 8.98485 11.1728 9.58659C11.1728 9.6242 11.1577 9.75208 11.0449 9.91756C11.1126 9.94012 11.1803 9.95516 11.2405 9.95516C11.421 9.95516 11.6467 9.84986 11.6467 9.84986C11.6467 9.84986 11.6091 10.2259 11.1728 10.5419C11.6617 10.256 11.7595 9.82729 11.9626 9.46625C12.444 8.61628 13.3165 7.92427 14.2643 7.70614C13.3842 7.71366 12.2334 8.37558 12.3086 8.02958C12.3387 7.87162 12.978 6.37478 15.9642 5.50977C15.9341 5.50977 15.8589 5.53233 15.8589 5.53233C13.136 6.2093 11.594 7.60083 11.7068 8.41319L11.6918 8.42071Z" fill="#BCC3C9"/>
<path id="Vector_7" d="M10.4734 9.49768C10.5862 9.73838 10.4132 10.0543 10.0898 10.1972C9.76632 10.3401 9.42032 10.2649 9.30749 10.0242C9.29244 9.9866 9.28492 9.94899 9.2774 9.91139C9.21723 9.94899 9.14953 9.97908 9.08936 10.0016C9.08936 10.0468 9.11192 10.0919 9.12696 10.137C9.28492 10.4755 9.76632 10.5959 10.2026 10.3928C10.6389 10.1897 10.872 9.75343 10.7141 9.41494C10.6313 9.24194 10.4734 9.12912 10.2703 9.08398C10.2176 9.13664 10.1575 9.19681 10.0973 9.25699C10.2628 9.27955 10.4057 9.36229 10.4658 9.49768H10.4734Z" fill="#024C52"/>
<path id="Vector_8" d="M10.0902 10.1961C10.4136 10.0532 10.5866 9.73726 10.4738 9.49656C10.4136 9.36116 10.2707 9.27842 10.1052 9.25586C9.96984 9.38373 9.8194 9.53417 9.63888 9.66956C9.61631 9.79743 9.63136 9.96291 9.77427 10.0983C9.77427 10.0983 9.59375 10.0983 9.48844 9.993C9.42827 9.94035 9.4057 9.87265 9.39818 9.84256C9.36057 9.86513 9.32296 9.88769 9.27783 9.91026C9.27783 9.94787 9.29288 9.98548 9.30792 10.0231C9.42075 10.2638 9.76675 10.339 10.0902 10.1961Z" fill="#000017" stroke="black" stroke-width="1.33342"/>
<path id="Vector_9" d="M9.4806 9.99336C9.5859 10.0911 9.76643 10.0987 9.76643 10.0987C9.62351 9.96327 9.61599 9.79779 9.63103 9.66992C9.55581 9.7301 9.47307 9.79027 9.38281 9.84292C9.38281 9.88053 9.4129 9.94071 9.47307 9.99336H9.4806Z" fill="white"/>
<path id="Vector_10" d="M26.9163 7.60121C26.9163 7.60121 24.9907 7.27777 24.1408 7.20255C21.6059 6.9769 18.8905 7.69899 18.8905 7.69899C20.583 7.46582 22.3506 7.9773 22.3506 7.9773C21.6435 7.93969 19.8684 8.20296 18.9658 8.46622C17.6645 8.84231 16.3181 9.42901 15.3252 10.0007C16.8897 9.29362 21.305 7.72156 26.4801 9.44406C26.4801 9.44406 26.8562 9.2184 27.8942 8.30826C28.9923 7.34547 29.2782 6.70611 29.2782 6.70611C29.2782 6.70611 24.8328 5.71323 21.5157 5.84862C20.8011 5.87871 20.0263 5.96145 19.3343 6.05171C21.3502 5.96897 24.2235 6.45789 26.9238 7.60121H26.9163Z" fill="#BCC3C9"/>
<path id="Vector_11" d="M15.9193 11.7754C19.7028 11.2789 22.1398 12.6705 22.3128 13.8664C22.3128 13.8664 22.3279 13.8664 22.3504 13.8514C22.5084 13.7837 23.1101 13.6107 24.0654 12.8585C25.0658 12.0687 25.7127 11.4219 25.9985 10.963C22.4482 8.65382 18.1608 9.32326 16.0396 9.87236C17.4387 9.57148 19.778 9.42105 22.2226 10.5644C18.394 9.34583 15.0844 10.8276 15.0844 10.8276C17.4086 10.3462 18.755 11.1962 18.755 11.1962C16.0697 10.5568 13.8809 11.7603 13.0836 12.5727C13.0159 12.678 12.9557 12.7833 12.8955 12.8961C13.595 12.3771 14.3171 11.9709 15.9193 11.7603V11.7754Z" fill="#BCC3C9"/>
<path id="Vector_12" d="M29.5939 3.48676C26.6754 3.44163 24.2834 3.72746 22.9822 4.14868C22.9822 4.14868 24.7272 4.0509 25.5922 4.14868C26.4422 4.24647 27.1267 4.40442 27.1267 4.40442C21.5906 4.6376 18.4916 5.8787 17.7319 6.22471C18.4916 5.99905 20.1164 5.58535 22.4105 5.3973C24.5693 5.21678 27.0364 5.38978 28.0368 5.3973C29.6014 4.19381 30.346 2.53901 30.346 2.53901C30.346 2.53901 27.8638 2.46379 25.0206 2.66688C22.0645 2.87749 20.1013 3.42659 19.7102 3.53941C25.2387 2.46379 29.5863 3.48676 29.5863 3.48676H29.5939Z" fill="#BCC3C9"/>
<path id="Vector_13" d="M13.6853 13.0164C13.6853 13.0164 14.6932 12.4222 16.2352 12.8509C18.5218 13.4828 18.2886 14.9495 18.2886 14.9495C18.2886 14.9495 19.3868 14.6186 20.0186 13.7536C20.0186 13.7536 19.4319 13.054 18.266 12.708C15.2272 11.8129 13.6777 13.0164 13.6777 13.0164H13.6853Z" fill="#BCC3C9"/>
<path id="Vector_14" d="M7.50971 10.6102C6.89292 10.723 6.14073 10.5876 5.73455 10.4297C5.21555 10.708 3.39527 11.2571 2.07895 13.0022C2.0639 13.6415 2.04134 14.4614 2.25195 14.9353C3.12448 16.733 5.05007 16.3193 5.05007 16.3193C5.05007 16.3193 2.3723 14.7472 5.59164 13.2654C6.62213 12.7915 9.32999 12.6561 10.8644 13.3406C10.9923 13.4083 11.1503 13.5437 11.1352 13.5738C10.8795 14.3636 9.9543 16.5525 8.78089 17.0715C8.26941 16.1087 10.1123 14.2433 8.48002 13.98C8.48002 13.98 8.8185 14.657 8.54772 15.4919C8.42737 15.8604 8.0588 16.8308 8.39728 17.9139C8.39728 17.9139 11.0675 16.7029 12.1958 13.3331C12.3312 13.0022 12.429 12.7238 12.602 12.4756C9.24725 13.3782 7.51723 10.6027 7.51723 10.6027L7.50971 10.6102ZM6.41904 11.5956C6.17834 11.6407 5.67438 11.6557 5.95269 11.3248C5.95269 11.3248 6.2686 11.1969 6.69735 11.0314C6.85531 11.1894 7.02079 11.3097 7.48714 11.4075C7.48714 11.4075 6.62213 11.558 6.42656 11.5956H6.41904Z" fill="#BCC3C9"/>
<path id="Vector_15" d="M5.95313 11.3246C5.67482 11.6556 6.17878 11.6405 6.41948 11.5954C6.61505 11.5578 7.48006 11.4073 7.48006 11.4073C7.0137 11.3096 6.84822 11.1892 6.69027 11.0312C6.26904 11.1967 5.94561 11.3246 5.94561 11.3246H5.95313Z" fill="#000017" stroke="black" stroke-width="1.33342"/>
</g>
</g>
</g>
</svg>
