<?xml version="1.0" encoding="UTF-8"?>
<svg xmlns="http://www.w3.org/2000/svg" width="156.8mm" height="88.2mm" version="1.1" viewBox="0 0 444.4 250">
  <defs>
    <style>
      .cls-1 {
        fill: #000017;
        stroke: #000;
      }

      .cls-2 {
        fill: #fff;
      }

      .cls-3 {
        fill: #bcc3c9;
      }

      .cls-4 {
        fill: #024c52;
      }
    </style>
  </defs>
  <!-- Generator: Adobe Illustrator 28.7.1, SVG Export Plug-In . SVG Version: 1.2.0 Build 142)  -->
  <g>
    <g id="PHILADEPLPHIA_EAGLES">
      <g>
        <path class="cls-4" d="M240.9,12.2l-20.4,17.1C258.4,17.4,337.6,0,337.6,0l-24.6,19.2C393.9,3.8,444.4,1.1,444.4,1.1c0,0-20.3,34.3-45.3,62.5,10.6.2,32.6,0,32.6,0,0,0-25.9,34-61.5,61.3,3.5.9,17.7,5.9,17.7,5.9,0,0-22.6,26.6-59.7,52.3-47.3,32.9-65.9,26.2-65.9,26.2,0,0,.6-1.4.8-3.7.1-1.3,0-2.4,0-2.5-36.6,27.4-63.1,13.8-63.1,13.8,0,0,15.6-28.3-2.5-36.4-14-6.3-37.7,3.1-40.2,9.3-2.7,6.7-14.1,25-24.6,35.2-18.1,17.8-36.7,24.8-36.7,24.8,0,0-14.6-14.1-5-49.6,2.1-7.7.9-11,.2-12.4-2.2-4.3-23.2-2.2-29.4,8.6-4.4,7.7,15.1,16.8,15.1,16.8,0,0-10.6,9.3-27.4,10.8-10.6,1-26.5-1.5-41.6-18C-1.2,196.6,0,167.3,0,167.3c0,0,14.8-21.1,40.9-37.8-4.4-3.6-7.4-9.2-8-11.4,50.5-15.3,60.4-43.9,118.5-70.6,27.1-12.4,55.5-24.4,89.5-35.3Z"/>
        <path class="cls-1" d="M357.5,127.8c1.9.6,9.6,3,13.8,5.3-19.6,25-75,72.1-102.9,71.2.2-4.7-1.1-8.8-3-11.8-12.5,17.8-45.5,25.9-58.3,21.3,22.6-56.7-47.7-42.1-54.7-26.6-18.2,40.2-54.6,55.9-54.6,55.9,0,0-9.5-13.7-1.7-41.2,5.8-20.3-7.4-21.1-7.4-21.1-5.2-.8-25.3-.7-33.1,12.4-6.3,10.6,10.5,20.4,10.5,20.4,0,0-27.8,17.5-54.4-11.1-6.5-7-6.3-33.4-6.3-33.4,16.8-21.9,37.2-34.7,45.6-39.4-7.9-4.1-9.9-8.6-9.9-8.6,41.6-13.7,60.5-42.1,96.7-60.7,39.9-20.5,69.7-29.4,69.7-29.4l-12.2,12.3s9.4-2.8,13.5-4.3c37.3-13.4,99.3-25.5,99.3-25.5l-20.7,16s32.2-7.1,72.1-11.1c21.3-2.1,65.7-6.3,65.7-6.3,0,0-13.6,28.8-38.7,56.8,13.2.5,27.4,1.4,27.4,1.4,0,0-18.6,28.8-56.5,57.6Z"/>
        <path class="cls-1" d="M201.2,69.1c-.5.1-.9.2-1.4.3.4,0,.8-.2,1.2-.3,0,0,0,0,.1,0Z"/>
        <path class="cls-1" d="M199.6,69.5c0,0,.1,0,.2,0,0,0-.1,0-.2,0Z"/>
        <path class="cls-2" d="M238.4,144.8s-17.9-11.3-48.8-4.9c0,0,43.9-19.8,94.9-3.5-32.5-15.2-63.6-13.2-82.2-9.2-11,2.9-17.7,5.5-17.7,5.5,0,0,2.9-1.6,8.1-4,13.2-7.6,31.1-15.4,48.4-20.4,12-3.4,35.6-7,45-6.5,0,0-23.5-6.8-46-3.7,0,0,36.2-9.6,69.8-6.6,11.3,1,36.9,5.3,36.9,5.3-35.9-15.2-74.1-21.7-100.9-20.6-15.4,2-27.6,4.4-27.6,4.4,0,0,2.2-.8,6.3-2,10.1-4.6,51.4-21.1,124.9-24.2,0,0-9.1-2.1-20.4-3.4-11.6-1.3-34.7,0-34.7,0,17.3-5.7,49.2-9.5,87.9-8.8,0,0-57.8-13.6-131.3.7-.6.2-1,.3-1,.3,0,0,8.1-4.6,17.2-9.2,6.7-3.4,16.4-8.9,16.4-8.9,0,0-37.4,4.6-89.3,22.5-14.6,5-22.4,8.1-22.4,8.1,2.4-2.2,13.3-9.8,16-12.6-38.6,13.8-53.3,24.2-77.6,44.8-21.7,18.4-21.2,22.1-52.5,34.6,0,0,20.7,11.3,44.3-.5,4.1-2,8.1-5.1,11.9-8.4,8.8-8.1,7.3-17.7,18.3-23.1-1.9,3.3-4.8,7.3-5.5,11.8,5.7-6.3,16.5-14.1,28.2-19.4,29.6-13.4,48.3-14.2,48.3-14.2-.7.2-1.5.3-2.2.5-39.7,11.5-48.2,31.4-48.6,33.5-.9,4.6,14.3-4.2,26-4.3-12.6,2.9-24.2,12.1-30.6,23.4-2.7,4.8-4,10.5-10.5,14.3-1.9,1.3-4.3,2.6-7.4,3.6-8.4,2.7-13.7.3-15.4-1.2-1-.9-1.6-2.2-1.6-2.2,3.7,1.5,9.1,1.2,14.2-1.3,3.8-1.8,6.7-4.5,8.5-7.3,0,0,0,0,0,0,1-1.5,2.7-4.5,1.1-8.7-.8-2.1-3-3.5-5.5-4.2.2-.4,1.9-3.6,6.6-8.1-6.1,3.4-10.3,7.9-12.5,9.9,2.6.6,4.8,2.1,5.9,4.4,2.1,4.5-1,10.3-6.8,13-5.9,2.7-12.3,1.1-14.3-3.4-.3-.6-.4-1.2-.5-1.8-.3.1-.6.3-.9.4-1.8.7-5.4,1.8-5.4,1.8,1.6.6,3.8,1,5.2.9-.2,6.1,2.4,16.1,24.2,13.1-6.7,5.3-21.2,3.2-29.5-2.4,1.1,1,2.4,2.1,3.9,3.4,24.6,19.4,56.9,7.4,64.8,3.9,1.9-1,3.9-1.8,5.9-2.5,0,0-8.5,5.9-14.9,15.9,10.6-10.8,39.7-26.8,75.4-18.3Z"/>
        <path class="cls-3" d="M144.4,107.7c.6,4,7.8.8,7.8.8,0,0-10.1,6.7-14.7,14.7,0,.5-.2,2.2-1.7,4.4.9.3,1.8.5,2.6.5,2.4,0,5.4-1.4,5.4-1.4,0,0-.5,5-6.3,9.2,6.5-3.8,7.8-9.5,10.5-14.3,6.4-11.3,18-20.5,30.6-23.4-11.7.1-27,8.9-26,4.3.4-2.1,8.9-22,48.6-33.5-.4,0-1.4.3-1.4.3-36.2,9-56.7,27.5-55.2,38.3Z"/>
        <path class="cls-4" d="M128.2,122c1.5,3.2-.8,7.4-5.1,9.3-4.3,1.9-8.9.9-10.4-2.3-.2-.5-.3-1-.4-1.5-.8.5-1.7.9-2.5,1.2,0,.6.3,1.2.5,1.8,2.1,4.5,8.5,6.1,14.3,3.4,5.8-2.7,8.9-8.5,6.8-13-1.1-2.3-3.2-3.8-5.9-4.4-.7.7-1.5,1.5-2.3,2.3,2.2.3,4.1,1.4,4.9,3.2Z"/>
        <path class="cls-1" d="M123.1,131.3c4.3-1.9,6.6-6.1,5.1-9.3-.8-1.8-2.7-2.9-4.9-3.2-1.8,1.7-3.8,3.7-6.2,5.5-.3,1.7-.1,3.9,1.8,5.7,0,0-2.4,0-3.8-1.4-.8-.7-1.1-1.6-1.2-2-.5.3-1,.6-1.6.9,0,.5.2,1,.4,1.5,1.5,3.2,6.1,4.2,10.4,2.3Z"/>
        <path class="cls-2" d="M115,128.6c1.4,1.3,3.8,1.4,3.8,1.4-1.9-1.8-2-4-1.8-5.7-1,.8-2.1,1.6-3.3,2.3,0,.5.4,1.3,1.2,2Z"/>
        <path class="cls-3" d="M346.8,96.8s-25.6-4.3-36.9-5.3c-33.7-3-69.8,6.6-69.8,6.6,22.5-3.1,46,3.7,46,3.7-9.4-.5-33,3-45,6.5-17.3,5-35.2,12.8-48.4,20.4,20.8-9.4,79.5-30.3,148.3-7.4,0,0,5-3,18.8-15.1,14.6-12.8,18.4-21.3,18.4-21.3,0,0-59.1-13.2-103.2-11.4-9.5.4-19.8,1.5-29,2.7,26.8-1.1,65,5.4,100.9,20.6Z"/>
        <path class="cls-3" d="M200.6,152.3c50.3-6.6,82.7,11.9,85,27.8,0,0,.2,0,.5-.2,2.1-.9,10.1-3.2,22.8-13.2,13.3-10.5,21.9-19.1,25.7-25.2-47.2-30.7-104.2-21.8-132.4-14.5,18.6-4,49.7-6,82.2,9.2-50.9-16.2-94.9,3.5-94.9,3.5,30.9-6.4,48.8,4.9,48.8,4.9-35.7-8.5-64.8,7.5-75.4,18.3-.9,1.4-1.7,2.8-2.5,4.3,9.3-6.9,18.9-12.3,40.2-15.1Z"/>
        <path class="cls-3" d="M382.4,42.1c-38.8-.6-70.6,3.2-87.9,8.8,0,0,23.2-1.3,34.7,0,11.3,1.3,20.4,3.4,20.4,3.4-73.6,3.1-114.8,19.6-124.9,24.2,10.1-3,31.7-8.5,62.2-11,28.7-2.4,61.5-.1,74.8,0,20.8-16,30.7-38,30.7-38,0,0-33-1-70.8,1.7-39.3,2.8-65.4,10.1-70.6,11.6,73.5-14.3,131.3-.7,131.3-.7Z"/>
        <path class="cls-3" d="M170.9,168.8s13.4-7.9,33.9-2.2c30.4,8.4,27.3,27.9,27.3,27.9,0,0,14.6-4.4,23-15.9,0,0-7.8-9.3-23.3-13.9-40.4-11.9-61,4.1-61,4.1Z"/>
        <path class="cls-3" d="M88.8,136.8c-8.2,1.5-18.2-.3-23.6-2.4-6.9,3.7-31.1,11-48.6,34.2-.2,8.5-.5,19.4,2.3,25.7,11.6,23.9,37.2,18.4,37.2,18.4,0,0-35.6-20.9,7.2-40.6,13.7-6.3,49.7-8.1,70.1,1,1.7.9,3.8,2.7,3.6,3.1-3.4,10.5-15.7,39.6-31.3,46.5-6.8-12.8,17.7-37.6-4-41.1,0,0,4.5,9,.9,20.1-1.6,4.9-6.5,17.8-2,32.2,0,0,35.5-16.1,50.5-60.9,1.8-4.4,3.1-8.1,5.4-11.4-44.6,12-67.6-24.9-67.6-24.9ZM74.3,149.9c-3.2.6-9.9.8-6.2-3.6,0,0,4.2-1.7,9.9-3.9,2.1,2.1,4.3,3.7,10.5,5,0,0-11.5,2-14.1,2.5Z"/>
        <path class="cls-1" d="M68.1,146.3c-3.7,4.4,3,4.2,6.2,3.6,2.6-.5,14.1-2.5,14.1-2.5-6.2-1.3-8.4-2.9-10.5-5-5.6,2.2-9.9,3.9-9.9,3.9Z"/>
      </g>
    </g>
  </g>
</svg>