<svg width="128" height="23" viewBox="0 0 128 23" fill="none" xmlns="http://www.w3.org/2000/svg">
<g id="MYPAGE">
<path id="Vector" d="M127.484 0.625L125.812 6.875H116.438L116.016 8.4375H123.828L122.156 14.6875H114.344L113.922 16.25H123.297L121.625 22.5H106L111.859 0.625H127.484Z" fill="black"/>
<path id="Vector_2" d="M99.3657 16.25L101.038 10H107.288L103.944 22.5H95.35C92.3292 22.5 90.0375 21.4323 88.475 19.2969C86.9125 17.1615 86.5375 14.5833 87.35 11.5625C88.1521 8.54167 89.9073 5.96354 92.6157 3.82812C95.324 1.69271 98.1886 0.625 101.209 0.625H108.241L106.569 6.875H99.5375C98.2459 6.875 97.0167 7.33333 95.85 8.25C94.6938 9.16667 93.9438 10.2708 93.6 11.5625C93.2459 12.8542 93.4021 13.9583 94.0688 14.875C94.7459 15.7917 95.7303 16.25 97.0219 16.25H99.3657Z" fill="black"/>
<path id="Vector_3" d="M78.4656 7.1875L74.7468 13.125H78.9812L78.4656 7.1875ZM70.8406 19.375L68.8874 22.5H62.6375L76.3093 0.625H84.1218L86.0749 22.5H79.8249L79.5437 19.375H70.8406Z" fill="black"/>
<path id="Vector_4" d="M57.1438 6.875L56.3 10H60.9875C62.0292 10 62.6907 9.47917 62.9719 8.4375C63.2532 7.39583 62.873 6.875 61.8313 6.875H57.1438ZM54.6282 16.25L52.9563 22.5H46.7063L52.5657 0.625H63.5032C68.7115 0.625 70.6178 3.22917 69.2219 8.4375C67.8261 13.6458 64.524 16.25 59.3157 16.25H54.6282Z" fill="black"/>
<path id="Vector_5" d="M35.0718 12.1719L34.8687 11.5625L30.353 0.625H37.4312L39.728 6.3125L45.1343 0.625H52.228L41.9468 11.6094L41.2905 12.3125L38.5562 22.5H32.3062L35.0718 12.1719Z" fill="black"/>
<path id="Vector_6" d="M12.5 22.5L9.75 12.3438L7.03125 22.5H0.78125L6.64062 0.625H12.8906L15.4375 11.5625L23.8281 0.625H30.0781L24.2188 22.5H17.9688L20.6875 12.3438L12.5 22.5Z" fill="black"/>
</g>
</svg>
