<svg width="103" height="103" viewBox="0 0 103 103" fill="none" xmlns="http://www.w3.org/2000/svg">
<circle cx="51.8109" cy="51.5272" r="50.955" fill="#D9D9D9"/>
<path d="M38.2017 65.6367C36.5662 65.6367 35.3371 65.2305 34.5142 64.418C33.7017 63.6159 33.2954 62.4128 33.2954 60.8086V41.7148C33.2954 40.1003 33.7017 38.8919 34.5142 38.0898C35.3371 37.2773 36.5662 36.8711 38.2017 36.8711H65.2329C66.8787 36.8711 68.1079 37.2773 68.9204 38.0898C69.7329 38.9023 70.1392 40.1107 70.1392 41.7148V50.668C69.9308 50.6471 69.7225 50.6315 69.5142 50.6211C69.3058 50.6003 69.0975 50.5898 68.8892 50.5898C68.6808 50.5898 68.4673 50.6003 68.2485 50.6211C68.0402 50.6315 67.8319 50.6471 67.6235 50.668V41.8555C67.6235 41.043 67.41 40.4284 66.9829 40.0117C66.5662 39.5951 65.9725 39.3867 65.2017 39.3867H38.2329C37.4517 39.3867 36.8527 39.5951 36.436 40.0117C36.0194 40.4284 35.811 41.043 35.811 41.8555V59.1211L40.4673 54.9023C40.7902 54.6003 41.1183 54.3815 41.4517 54.2461C41.785 54.1003 42.1287 54.0273 42.4829 54.0273C42.8475 54.0273 43.2069 54.1055 43.561 54.2617C43.9256 54.4076 44.2694 54.6263 44.5923 54.918L47.4829 57.5273L54.5454 51.2148C54.91 50.9023 55.285 50.668 55.6704 50.5117C56.0558 50.3555 56.4621 50.2773 56.8892 50.2773C57.3162 50.2773 57.7277 50.3607 58.1235 50.5273C58.5298 50.6836 58.9048 50.9232 59.2485 51.2461L61.7642 53.6055C60.8475 54.5013 60.1235 55.5586 59.5923 56.7773C59.0715 57.9857 58.811 59.2826 58.811 60.668C58.811 61.5638 58.9308 62.4336 59.1704 63.2773C59.41 64.1211 59.7433 64.9076 60.1704 65.6367H38.2017ZM44.936 51.4023C44.259 51.4023 43.6392 51.2409 43.0767 50.918C42.5246 50.5846 42.0819 50.1367 41.7485 49.5742C41.4152 49.0117 41.2485 48.3919 41.2485 47.7148C41.2485 47.0482 41.4152 46.4336 41.7485 45.8711C42.0819 45.3086 42.5246 44.8607 43.0767 44.5273C43.6392 44.194 44.259 44.0273 44.936 44.0273C45.6131 44.0273 46.2277 44.194 46.7798 44.5273C47.3319 44.8607 47.7746 45.3086 48.1079 45.8711C48.4412 46.4336 48.6079 47.0482 48.6079 47.7148C48.6079 48.3919 48.4412 49.0117 48.1079 49.5742C47.7746 50.1367 47.3319 50.5846 46.7798 50.918C46.2277 51.2409 45.6131 51.4023 44.936 51.4023ZM68.9048 68.6055C67.8215 68.6055 66.8006 68.3971 65.8423 67.9805C64.884 67.5742 64.0402 67.0065 63.311 66.2773C62.5819 65.5482 62.009 64.7044 61.5923 63.7461C61.1756 62.7878 60.9673 61.7617 60.9673 60.668C60.9673 59.5742 61.1756 58.5534 61.5923 57.6055C62.009 56.6471 62.5819 55.8034 63.311 55.0742C64.0402 54.3346 64.884 53.7617 65.8423 53.3555C66.8006 52.9388 67.8215 52.7305 68.9048 52.7305C69.9985 52.7305 71.0246 52.9388 71.9829 53.3555C72.9412 53.7617 73.785 54.3294 74.5142 55.0586C75.2433 55.7878 75.811 56.6315 76.2173 57.5898C76.634 58.5482 76.8423 59.5742 76.8423 60.668C76.8423 61.7513 76.634 62.7721 76.2173 63.7305C75.8006 64.6888 75.2225 65.5326 74.4829 66.2617C73.7537 66.9909 72.91 67.5638 71.9517 67.9805C70.9933 68.3971 69.9777 68.6055 68.9048 68.6055ZM68.9048 65.6367C69.1965 65.6367 69.4256 65.5482 69.5923 65.3711C69.7694 65.194 69.8579 64.9648 69.8579 64.6836V61.6211H72.9204C73.2017 61.6211 73.4308 61.5378 73.6079 61.3711C73.785 61.194 73.8735 60.9596 73.8735 60.668C73.8735 60.3763 73.785 60.1471 73.6079 59.9805C73.4308 59.8034 73.2017 59.7148 72.9204 59.7148H69.8579V56.6523C69.8579 56.3711 69.7694 56.1419 69.5923 55.9648C69.4256 55.7878 69.1965 55.6992 68.9048 55.6992C68.6131 55.6992 68.3787 55.7878 68.2017 55.9648C68.035 56.1419 67.9517 56.3711 67.9517 56.6523V59.7148H64.8892C64.6079 59.7148 64.3787 59.8034 64.2017 59.9805C64.0246 60.1471 63.936 60.3763 63.936 60.668C63.936 60.9596 64.0246 61.194 64.2017 61.3711C64.3787 61.5378 64.6079 61.6211 64.8892 61.6211H67.9517V64.6836C67.9517 64.9648 68.035 65.194 68.2017 65.3711C68.3787 65.5482 68.6131 65.6367 68.9048 65.6367Z" fill="white"/>
</svg>
