<svg width="35" height="21" viewBox="0 0 35 21" fill="none" xmlns="http://www.w3.org/2000/svg">
<g id="Group">
<g id="Layer_1">
<path id="Vector" d="M17.6761 20.6782C26.9818 20.6782 34.5255 16.2176 34.5255 10.7151C34.5255 5.2126 26.9818 0.751953 17.6761 0.751953C8.3704 0.751953 0.82666 5.2126 0.82666 10.7151C0.82666 16.2176 8.3704 20.6782 17.6761 20.6782Z" fill="white"/>
<path id="Vector_2" d="M17.6393 20.3128C26.6618 20.3128 33.976 16.0489 33.976 10.7892C33.976 5.52948 26.6618 1.26562 17.6393 1.26562C8.61688 1.26562 1.30273 5.52948 1.30273 10.7892C1.30273 16.0489 8.61688 20.3128 17.6393 20.3128Z" fill="#0A0A09"/>
<path id="Vector_3" d="M17.7126 19.6894C25.582 19.6894 31.9614 15.7536 31.9614 10.8984C31.9614 6.04329 25.582 2.10742 17.7126 2.10742C9.84325 2.10742 3.46387 6.04329 3.46387 10.8984C3.46387 15.7536 9.84325 19.6894 17.7126 19.6894Z" fill="#C6A463"/>
<path id="Vector_4" d="M17.7495 18.9567C24.9917 18.9567 30.8627 15.2833 30.8627 10.7518C30.8627 6.22035 24.9917 2.54688 17.7495 2.54688C10.5072 2.54688 4.63623 6.22035 4.63623 10.7518C4.63623 15.2833 10.5072 18.9567 17.7495 18.9567Z" fill="#C81D3C"/>
<path id="Vector_5" d="M27.9942 9.68118H27.9582V9.38273H22.7568C22.6453 8.79739 22.3084 8.25455 21.8281 7.83068C21.3551 7.28666 20.6674 6.87759 19.8852 6.7222L19.5606 6.65554C18.8097 6.49774 18.217 6.37284 15.8313 6.38485C15.8313 6.38485 15.3723 6.3691 14.927 6.3102C14.8143 6.2817 14.7152 6.24756 14.6302 6.21093C14.6631 6.01248 15.0266 5.73893 15.4361 5.68582C15.4787 5.67813 18.0605 5.20305 20.7181 6.92418L20.7834 6.96623H22.5299V4.29347H22.2312V3.99487H19.8342C19.8342 3.99487 19.5494 4.21223 19.4304 4.30336C18.7405 4.13054 15.3602 3.391 12.4419 4.66848C11.2154 5.17543 10.4542 6.13218 10.5081 7.10359C10.5355 7.59339 10.7702 8.02049 11.1754 8.35198C11.4735 8.72413 11.9423 9.0146 12.553 9.19042C13.4172 9.43936 14.1486 9.54199 14.8581 9.58265V10.8013H15.1571V11.0999H16.0683C16.4457 11.0999 16.5428 11.3091 16.5659 11.3869C15.403 11.3108 13.6339 10.9797 12.3321 9.77466L12.2832 9.72184H12.274C12.2022 9.65327 12.1315 9.58236 12.0625 9.50793L11.9846 9.42339H10.6737V13.2281H10.9724V13.5263H12.0413C12.1981 13.5371 12.6949 13.4817 13.0377 12.4807C13.5938 12.6742 14.9639 13.0867 16.6514 13.1325V15.4994C16.5924 16.2941 14.8417 16.5431 14.2316 16.5671L13.9798 16.5768V17.7535H14.2782V18.0517H21.9649V16.9259L21.7689 16.8738C21.7337 16.865 21.7005 16.8558 21.6665 16.8464V16.5888L21.4264 16.5682C20.9944 16.53 20.6618 16.4549 20.4036 16.3633C19.9206 16.092 19.8379 15.8722 19.8277 15.8368V14.5748H22.0807C22.3185 14.6108 22.5221 14.715 22.6952 14.8507C23.0197 15.2502 23.1672 15.7069 23.1698 15.7144L23.2272 15.8991L23.4208 15.9004H23.4268C23.4537 15.9679 23.468 16.0108 23.4683 16.0131L23.5257 16.1985H24.7362V11.6208H24.4378V11.3217H23.2328L23.1892 11.5314C22.8733 13.0525 21.1146 13.03 19.5506 12.8021C19.8569 12.7187 20.1651 12.618 20.4724 12.4958C21.3098 12.163 21.9378 11.7102 22.3298 11.1803H25.7057C25.9412 11.1878 26.1412 11.2463 26.3094 11.3565C26.6637 11.8762 26.628 12.6402 26.6277 12.6493L26.6132 12.926H26.9274C26.9271 12.9383 26.9268 12.9463 26.9268 12.9475L26.9116 13.2245L27.1892 13.2251H28.2571V9.68104H27.9941V9.68118H27.9942Z" fill="#0A0A09"/>
<path id="Vector_6" d="M22.6094 10.6178H25.4076C27.0057 10.6687 26.8902 12.6627 26.8902 12.6627H27.696V9.64453H22.8667C22.8667 9.64453 22.8552 10.32 22.6094 10.6178" fill="white"/>
<path id="Vector_7" d="M16.914 13.1956V15.5133C16.831 16.728 14.2427 16.8288 14.2427 16.8288V17.4901H21.404V16.8288C19.2757 16.6447 19.2663 15.5602 19.2663 15.5602V14.0126H21.81C22.9736 14.1787 23.4208 15.6366 23.4208 15.6366H24.1749V11.584H23.4463C22.9398 14.0252 19.1989 12.927 18.9221 12.9883C18.9221 12.9883 18.0006 13.2183 16.914 13.1957" fill="white"/>
<path id="Vector_8" d="M19.1484 9.20919C20.1206 9.49409 20.211 10.2358 19.6418 10.9303C18.9135 11.6177 17.8011 11.6461 17.8011 11.6461C17.8011 11.6461 14.0558 12.0509 11.8701 9.68639H10.9369V12.9656H11.7548C11.7548 12.9656 12.2533 13.042 12.5729 11.8405C12.5729 11.8405 16.4187 13.4054 20.0768 11.9532C23.6198 10.5459 22.2714 7.46337 19.8336 6.9803C18.8961 6.79459 18.5232 6.63416 15.8328 6.64807C15.8328 6.64807 15.3471 6.63262 14.8741 6.56852C13.3912 6.1979 14.2346 5.23924 15.1042 5.12679C15.1042 5.12679 17.7759 4.60014 20.5628 6.40522H21.969V4.25751H19.9231L19.4887 4.58973C19.4887 4.58973 15.6964 3.53079 12.5475 4.90921C10.431 5.78429 10.016 7.97317 12.3277 8.63953C14.3635 9.22633 15.6613 8.98047 17.7242 9.05915C18.3008 9.0812 18.8018 9.10391 19.1484 9.20911" fill="white"/>
<path id="Vector_9" d="M16.0929 10.5382H15.1211V9.66797C15.8743 9.66797 17.4104 9.67412 18.4973 9.66797C19.591 9.66797 19.7367 10.3001 19.2759 10.7277C18.8415 11.1307 17.9316 11.4177 16.8544 11.2217C16.8544 11.2217 16.7657 10.5382 16.0929 10.5382Z" fill="white"/>
</g>
</g>
</svg>
