<?xml version="1.0" encoding="UTF-8"?>
<svg xmlns="http://www.w3.org/2000/svg" width="162.278mm" height="95.956mm" version="1.1" viewBox="0 0 460 272">
  <!-- Generator: Adobe Illustrator 28.7.1, SVG Export Plug-In . SVG Version: 1.2.0 Build 142)  -->
  <g>
    <g id="Layer_1">
      <ellipse cx="230" cy="136" rx="230" ry="136" fill="#fff"/>
      <ellipse cx="229.5" cy="137" rx="223" ry="130" fill="#0a0a09"/>
      <ellipse cx="230.5" cy="138.5" rx="194.5" ry="120" fill="#c6a463"/>
      <ellipse cx="231" cy="136.5" rx="179" ry="112" fill="#c81d3c"/>
      <path d="M370.848,121.879h-.491v-4.074h-71.001c-1.522-7.99-6.121-15.4-12.676-21.186-6.457-7.426-15.844-13.01-26.522-15.131l-4.431-.91c-10.25-2.154-18.34-3.859-50.906-3.695,0,0-6.266-.215-12.344-1.019-1.539-.389-2.891-.855-4.051-1.355.449-2.709,5.41-6.443,11-7.168.582-.105,35.824-6.59,72.101,16.904l.892.574h23.84v-36.484h-4.077v-4.076h-32.72s-3.887,2.967-5.512,4.211c-9.418-2.359-55.559-12.454-95.395,4.984-16.742,6.92-27.133,19.98-26.398,33.24.375,6.686,3.578,12.516,9.109,17.041,4.07,5.08,10.469,9.045,18.805,11.445,11.797,3.398,21.781,4.799,31.465,5.354v16.635h4.082v4.076h12.438c5.152,0,6.477,2.855,6.793,3.918-15.875-1.039-40.023-5.559-57.793-22.008l-.668-.721h-.125c-.98-.936-1.945-1.904-2.887-2.92l-1.063-1.154h-17.895v51.936h4.078v4.07h14.59c2.141.148,8.922-.609,13.602-14.273,7.59,2.641,26.293,8.273,49.328,8.898v32.309c-.805,10.848-24.703,14.246-33.031,14.574l-3.438.133v16.062h4.074v4.07h104.926v-15.367l-2.676-.711c-.48-.121-.934-.246-1.398-.375v-3.516l-3.277-.281c-5.897-.522-10.437-1.547-13.961-2.797-6.594-3.703-7.723-6.703-7.862-7.187v-17.227h30.754c3.246.492,6.026,1.914,8.388,3.767,4.43,5.453,6.444,11.687,6.479,11.789l.784,2.522,2.642.017h.082c.367.922.563,1.508.566,1.539l.784,2.53h16.524v-62.487h-4.074v-4.082h-16.448l-.595,2.862c-4.313,20.763-28.319,20.457-49.668,17.345,4.181-1.138,8.388-2.513,12.582-4.181,11.431-4.543,20.004-10.723,25.354-17.957h46.083c3.215.103,5.944.902,8.241,2.406,4.836,7.094,4.349,17.522,4.345,17.647l-.199,3.777h4.289c-.004.168-.008.277-.008.293l-.207,3.781,3.789.008h14.577v-48.377h-3.59v.002Z" fill="#0a0a09"/>
      <path d="M297.34,134.674h38.195c21.815.695,20.238,27.914,20.238,27.914h11v-41.199h-65.922s-.156,9.22-3.512,13.285" fill="#fff"/>
      <path d="M219.598,169.861v31.637c-1.133,16.582-36.465,17.957-36.465,17.957v9.027h97.754v-9.027c-29.051-2.512-29.18-17.316-29.18-17.316v-21.125h34.723c15.883,2.267,21.988,22.168,21.988,22.168h10.293v-55.32h-9.945c-6.914,33.324-57.979,18.332-61.758,19.169,0,0-12.578,3.14-27.41,2.831" fill="#fff"/>
      <path d="M250.098,115.434c13.27,3.889,14.504,14.014,6.734,23.494-9.941,9.383-25.125,9.77-25.125,9.77,0,0-51.125,5.526-80.961-26.75h-12.738v44.762h11.164s6.805,1.043,11.168-15.358c0,0,52.496,21.362,102.43,1.539,48.363-19.211,29.957-61.288-3.319-67.882-12.798-2.535-17.888-4.725-54.613-4.535,0,0-6.629-.211-13.086-1.086-20.242-5.059-8.73-18.145,3.141-19.68,0,0,36.469-7.189,74.512,17.451h19.195v-29.317h-27.927l-5.93,4.535s-51.766-14.455-94.75,4.361c-28.891,11.945-34.555,41.824-3,50.92,27.789,8.01,45.504,4.654,73.664,5.728,7.87.301,14.71.611,19.44,2.047" fill="#fff"/>
      <path d="M208.387,133.582h-13.266v-11.879c10.281,0,31.25.084,46.086,0,14.93,0,16.918,8.629,10.629,14.465-5.93,5.502-18.351,9.42-33.055,6.744,0,0-1.211-9.33-10.394-9.33" fill="#fff"/>
    </g>
  </g>
</svg>