<svg width="16" height="16" viewBox="0 0 16 16" fill="none" xmlns="http://www.w3.org/2000/svg">
<path d="M8.18994 15.6826C7.16943 15.6826 6.20752 15.4873 5.3042 15.0967C4.40576 14.7061 3.6123 14.1665 2.92383 13.478C2.23535 12.7896 1.6958 11.9961 1.30518 11.0977C0.914551 10.1943 0.719238 9.23242 0.719238 8.21191C0.719238 7.19141 0.914551 6.23193 1.30518 5.3335C1.6958 4.43018 2.23291 3.63428 2.9165 2.9458C3.60498 2.25732 4.39844 1.71777 5.29688 1.32715C6.2002 0.936523 7.16211 0.741211 8.18262 0.741211C9.20312 0.741211 10.165 0.936523 11.0684 1.32715C11.9717 1.71777 12.7676 2.25732 13.4561 2.9458C14.1445 3.63428 14.6841 4.43018 15.0747 5.3335C15.4653 6.23193 15.6606 7.19141 15.6606 8.21191C15.6606 9.23242 15.4653 10.1943 15.0747 11.0977C14.6841 11.9961 14.1445 12.7896 13.4561 13.478C12.7676 14.1665 11.9717 14.7061 11.0684 15.0967C10.1699 15.4873 9.21045 15.6826 8.18994 15.6826ZM5.15039 11.9399C5.8584 12.145 6.62012 12.167 7.43555 12.0059L4.38867 8.95898C4.31055 9.34961 4.27637 9.74023 4.28613 10.1309C4.30078 10.5215 4.35693 10.8926 4.45459 11.2441C4.52295 11.4541 4.60352 11.6055 4.69629 11.6982C4.78906 11.791 4.94043 11.8716 5.15039 11.9399ZM10.3726 10.4019C10.6948 10.0894 10.9707 9.75244 11.2002 9.39111C11.4297 9.0249 11.6128 8.64893 11.7495 8.26318L8.13135 4.64502C7.74561 4.78174 7.36963 4.96484 7.00342 5.19434C6.64209 5.42383 6.30273 5.69971 5.98535 6.02197C5.66309 6.33447 5.38721 6.67383 5.15771 7.04004C4.93311 7.40137 4.75 7.7749 4.6084 8.16064L8.23389 11.7788C8.61963 11.6421 8.99316 11.459 9.35449 11.2295C9.7207 11 10.0601 10.7241 10.3726 10.4019ZM7.65527 9.79395C7.57227 9.87207 7.48438 9.86963 7.3916 9.78662L6.59326 9.00293C6.51025 8.91992 6.51025 8.83203 6.59326 8.73926C6.68604 8.66602 6.77637 8.66602 6.86426 8.73926L7.12793 9.00293L7.39893 8.73193L7.12793 8.47559C7.08887 8.44141 7.06934 8.39746 7.06934 8.34375C7.06934 8.29004 7.08887 8.24609 7.12793 8.21191C7.21582 8.11426 7.30371 8.11182 7.3916 8.20459L7.6626 8.47559L7.92627 8.19727L7.66992 7.93359C7.63086 7.89941 7.61133 7.85791 7.61133 7.80908C7.61133 7.75537 7.63086 7.71387 7.66992 7.68457C7.69922 7.64062 7.73828 7.61865 7.78711 7.61865C7.84082 7.61865 7.88477 7.63818 7.91895 7.67725L8.18994 7.94824L8.46826 7.66992L8.19727 7.40625C8.1582 7.37207 8.13867 7.33057 8.13867 7.28174C8.13867 7.22803 8.1582 7.18164 8.19727 7.14258C8.23633 7.10352 8.28027 7.08398 8.3291 7.08398C8.37793 7.08398 8.41943 7.10352 8.45361 7.14258L8.71729 7.40625L8.99561 7.14258L8.72461 6.87891C8.69531 6.83496 8.67822 6.78857 8.67334 6.73975C8.67334 6.69092 8.69043 6.64697 8.72461 6.60791C8.76367 6.57373 8.80762 6.55664 8.85645 6.55664C8.90527 6.55176 8.94922 6.56885 8.98828 6.60791L9.7793 7.39893C9.81836 7.43799 9.83789 7.48193 9.83789 7.53076C9.83789 7.57959 9.81836 7.62598 9.7793 7.66992C9.74512 7.7041 9.70361 7.72119 9.65479 7.72119C9.60596 7.71631 9.55957 7.69678 9.51562 7.6626L9.25195 7.39893L8.98096 7.66992L9.24463 7.94092C9.28369 7.97021 9.30322 8.01172 9.30322 8.06543C9.30322 8.11426 9.28369 8.1582 9.24463 8.19727C9.21045 8.23633 9.16895 8.25586 9.12012 8.25586C9.07129 8.25098 9.02734 8.229 8.98828 8.18994L8.71729 7.92627L8.44629 8.19727L8.70996 8.46826C8.74414 8.50244 8.76367 8.54639 8.76855 8.6001C8.77344 8.65381 8.75391 8.69531 8.70996 8.72461C8.68066 8.76367 8.63916 8.7832 8.58545 8.7832C8.53662 8.7832 8.49512 8.76367 8.46094 8.72461L8.18994 8.46826L7.91162 8.73193L8.18262 8.99561C8.22168 9.02979 8.24121 9.07373 8.24121 9.12744C8.24121 9.18115 8.22168 9.2251 8.18262 9.25928C8.14844 9.29834 8.10449 9.32031 8.05078 9.3252C8.00195 9.3252 7.95801 9.30322 7.91895 9.25928L7.6626 8.99561L7.3916 9.25928L7.65527 9.5376C7.72363 9.62061 7.72363 9.70605 7.65527 9.79395ZM11.9106 5.17969C11.8374 4.96973 11.7544 4.8208 11.6616 4.73291C11.5737 4.64014 11.4248 4.55713 11.2148 4.48389C10.5117 4.27881 9.75 4.25684 8.92969 4.41797L11.9766 7.46484C12.1377 6.64941 12.1157 5.8877 11.9106 5.17969Z" fill="white"/>
</svg>
