<svg width="25" height="29" viewBox="0 0 25 29" fill="none" xmlns="http://www.w3.org/2000/svg">
<g id="Group">
<g id="&#227;&#131;&#172;&#227;&#130;&#164;&#227;&#131;&#164;&#227;&#131;&#188;_1">
<path id="Vector" d="M21.7091 11.7684C19.6112 10.5492 17.5528 10.8305 15.993 11.5265C15.9239 11.0181 15.7856 10.4554 15.5685 9.789C15.2377 8.8067 14.8675 7.86882 14.5516 7.03954C14.132 5.95358 13.8112 5.02064 13.6335 4.39867L12.4932 0.494141L11.3135 4.40361C11.1308 5.02064 10.8149 5.96345 10.4003 7.04941C10.0794 7.87376 9.71906 8.81657 9.39327 9.79394C9.1662 10.4554 9.03786 11.0181 8.96876 11.5364C7.40398 10.8454 5.34559 10.564 3.25264 11.7832C1.54471 12.7853 0.626579 14.5228 0.863516 16.3196C1.07577 17.9485 2.19629 19.2418 3.77587 19.6713L4.95563 19.9971L5.24686 18.8074C5.28635 18.6495 5.7158 17.1588 7.05351 17.1834C7.98152 17.2032 8.75156 18.0226 9.13659 18.5557C9.01318 18.9308 8.94901 19.38 9.01318 19.8638L8.48501 19.1628L7.53726 19.8687C6.6833 20.5104 5.43937 22.0801 6.20942 23.9362C6.54015 24.7408 7.26577 25.2985 8.23326 25.4861C8.82561 25.6046 9.50187 25.5799 10.1238 25.4368C10.3706 26.2265 10.8248 27.1842 11.6343 28.0381L12.4932 28.9365L13.3521 28.0381C14.1715 27.1792 14.6158 26.2265 14.8576 25.4318C15.4845 25.57 16.1608 25.5997 16.7531 25.4713C17.7206 25.2837 18.4413 24.7259 18.772 23.9115C19.5372 22.0505 18.2883 20.4808 17.4343 19.849L16.4817 19.1431L15.9584 19.844C16.0226 19.3652 15.9535 18.916 15.8301 18.5359C16.2151 18.0028 16.9851 17.1785 17.9132 17.1637C19.2509 17.1341 19.6803 18.6199 19.7247 18.7877L20.016 19.9773C20.016 19.9724 21.1908 19.6417 21.1908 19.6417C22.7802 19.2073 23.8909 17.9189 24.1031 16.285C24.3351 14.4883 23.417 12.7557 21.7042 11.7585" fill="black"/>
<path id="Vector_2" d="M12.1031 4.57153C11.96 5.25272 11.5898 6.22022 11.1554 7.3358C10.8395 8.16014 10.4791 9.08815 10.1583 10.0556C9.84236 10.9787 9.71895 11.6747 9.71895 12.3115C9.71895 12.9483 9.74363 12.7212 9.76831 12.9285C8.57869 12.1042 6.22412 10.9836 3.66224 12.4843C2.24061 13.3185 1.4755 14.745 1.66801 16.216C1.84078 17.5192 2.73423 18.5508 3.9979 18.9013L4.37798 19L4.47177 18.6199C4.49645 18.5262 5.05918 16.3394 7.07808 16.3789C8.70209 16.4135 9.76831 17.998 10.0497 18.4817C9.91146 18.7285 9.80287 19.079 9.80287 19.4788C9.80287 19.8787 9.95095 20.397 10.3261 20.8906C10.178 21.088 9.93614 21.3349 9.64984 21.3595C9.24014 21.3941 8.83044 20.9696 8.55894 20.6092L8.33188 20.3032L8.03077 20.5352C7.40881 20.9992 6.38208 22.2431 6.96455 23.645C7.19655 24.2028 7.69511 24.573 8.39605 24.7112C9.13154 24.8593 10.0546 24.731 10.7062 24.4249C10.8345 25.1703 11.1899 26.4191 12.2265 27.5002L12.498 27.7865L12.7695 27.4952C13.8012 26.4191 14.1566 25.1653 14.2849 24.42C14.9415 24.7211 15.8645 24.8544 16.5951 24.7063C17.3059 24.5631 17.7995 24.1929 18.0266 23.6351C18.5992 22.2332 17.5774 20.9795 16.9554 20.5253L16.6494 20.2983L16.4223 20.5994C16.1558 20.9597 15.7411 21.3892 15.3363 21.3595C15.05 21.3349 14.8082 21.088 14.6601 20.8906C15.0254 20.397 15.1735 19.9132 15.1735 19.4887C15.1735 19.0642 15.055 18.7384 14.9168 18.4867C15.2031 17.9931 16.2594 16.4135 17.8884 16.3789C19.9073 16.3296 20.4749 18.5163 20.4996 18.6101L20.5934 18.9902L20.9685 18.8816C22.2372 18.5311 23.1257 17.4994 23.2984 16.1913C23.4811 14.7204 22.716 13.2987 21.2894 12.4645C18.7176 10.9738 16.3729 12.1042 15.1833 12.9285C15.208 12.7311 15.2327 12.5336 15.2327 12.3312C15.2327 11.6797 15.1043 10.9787 14.7934 10.0556C14.4676 9.08815 14.1072 8.16014 13.7913 7.34073C13.352 6.22022 12.9818 5.25766 12.8337 4.57646L12.4585 2.83398L12.0933 4.57646" fill="white"/>
<path id="Vector_3" d="M12.4983 27.2276C13.9544 25.6974 13.9742 23.7723 13.9742 23.7723C14.6208 24.414 17.1185 24.8435 17.6813 23.4761C18.2934 21.9755 16.7335 20.8155 16.7335 20.8155C15.2181 22.8492 14.2062 20.855 14.2062 20.855C15.3563 19.6111 14.4925 18.4906 14.4925 18.4906C14.5715 18.2586 15.8499 16.0274 17.8935 15.983C20.258 15.9287 20.8849 18.5004 20.8849 18.5004C23.3628 17.8192 23.8416 14.3639 21.1169 12.7843C17.6615 10.7753 14.6504 13.8407 14.6504 13.8407C14.9367 12.6905 15.0108 11.8316 14.4481 10.1632C13.678 7.89255 12.7401 5.86871 12.4834 4.64453C12.2218 5.86871 11.2889 7.90242 10.5287 10.1731C9.96598 11.8514 10.0499 12.7004 10.3263 13.8505C10.3263 13.8505 7.31031 10.795 3.8599 12.809C1.14006 14.4034 1.62874 17.8489 4.10178 18.5301C4.10178 18.5301 4.72867 15.9534 7.08818 16.0027C9.1367 16.0422 10.425 18.2734 10.4991 18.4955C10.4991 18.4955 9.63526 19.621 10.7903 20.8649C10.7903 20.8649 9.77841 22.8542 8.26299 20.8303C8.26299 20.8303 6.69822 21.9903 7.32018 23.4909C7.88291 24.8583 10.3806 24.4189 11.0273 23.7822C11.0273 23.7822 11.047 25.7073 12.5032 27.2276" fill="black"/>
<path id="Vector_4" d="M18.6884 12.6858C15.8797 12.6858 13.5695 15.8795 13.5695 15.8795C13.6683 15.3563 14.8727 13.0066 13.7867 10.1979C12.6958 7.3843 12.4737 6.25391 12.4737 6.25391V6.28846C12.4688 6.28846 12.4688 6.25884 12.4688 6.25884C12.4688 6.25884 12.2516 7.38923 11.1705 10.2029C10.0846 13.0116 11.2939 15.3612 11.3976 15.8844C11.3976 15.8844 9.08746 12.6956 6.27383 12.6956C3.46019 12.7006 1.12043 15.8992 3.72181 17.7898C3.72181 17.7898 4.48199 15.4303 7.09817 15.4254C9.02823 15.4204 10.9583 17.4887 11.0422 18.5105C11.0422 18.5105 10.1586 19.7593 11.3877 20.7959C11.3877 20.7959 10.0599 23.5849 8.22363 21.5759C8.22363 21.5759 6.80694 23.343 8.65801 23.7725C10.129 24.1081 11.5654 22.6223 11.5654 22.6223C11.5654 22.6223 11.4124 24.972 12.4934 26.2554C13.5843 24.972 13.4214 22.6174 13.4214 22.6174C13.4214 22.6174 14.8678 24.1032 16.3289 23.7626C18.175 23.3282 16.7633 21.566 16.7633 21.566C14.9319 23.58 13.5991 20.7959 13.5991 20.7959C14.8184 19.7544 13.9348 18.5056 13.9348 18.5056C14.0138 17.4887 15.9389 15.4155 17.869 15.4155C19.799 15.4155 21.2552 17.775 21.2552 17.775C23.8516 15.8795 21.4971 12.6808 18.6834 12.6858" fill="#C6A775"/>
</g>
</g>
</svg>
