<?xml version="1.0" encoding="UTF-8"?>
<svg xmlns="http://www.w3.org/2000/svg" width="166.6mm" height="203.4mm" version="1.1" viewBox="0 0 472.3 576.5">
  <defs>
    <style>
      .cls-1 {
        fill: #fff;
      }

      .cls-2 {
        fill: #c6a775;
      }

      .cls-3 {
        fill: none;
        stroke: #000;
        stroke-linecap: round;
        stroke-linejoin: round;
        stroke-width: .1px;
      }
    </style>
  </defs>
  <!-- Generator: Adobe Illustrator 28.7.1, SVG Export Plug-In . SVG Version: 1.2.0 Build 142)  -->
  <g>
    <g id="_レイヤー_1" data-name="レイヤー_1">
      <path class="cls-3" d="M-671.9-64.6h0Z"/>
      <path d="M423,228.4c-42.5-24.7-84.2-19-115.8-4.9-1.4-10.3-4.2-21.7-8.6-35.2-6.7-19.9-14.2-38.9-20.6-55.7-8.5-22-15-40.9-18.6-53.5L236.3,0l-23.9,79.2c-3.7,12.5-10.1,31.6-18.5,53.6-6.5,16.7-13.8,35.8-20.4,55.6-4.6,13.4-7.2,24.8-8.6,35.3-31.7-14-73.4-19.7-115.8,5C14.5,249-4.1,284.2.7,320.6c4.3,33,27,59.2,59,67.9l23.9,6.6,5.9-24.1c.8-3.2,9.5-33.4,36.6-32.9,18.8.4,34.4,17,42.2,27.8-2.5,7.6-3.8,16.7-2.5,26.5l-10.7-14.2-19.2,14.3c-17.3,13-42.5,44.8-26.9,82.4,6.7,16.3,21.4,27.6,41,31.4,12,2.4,25.7,1.9,38.3-1,5,16,14.2,35.4,30.6,52.7l17.4,18.2,17.4-18.2c16.6-17.4,25.6-36.7,30.5-52.8,12.7,2.8,26.4,3.4,38.4.8,19.6-3.8,34.2-15.1,40.9-31.6,15.5-37.7-9.8-69.5-27.1-82.3l-19.3-14.3-10.6,14.2c1.3-9.7-.1-18.8-2.6-26.5,7.8-10.8,23.4-27.5,42.2-27.8,27.1-.6,35.8,29.5,36.7,32.9l5.9,24.1c0-.1,23.8-6.8,23.8-6.8,32.2-8.8,54.7-34.9,59-68,4.7-36.4-13.9-71.5-48.6-91.7"/>
      <path class="cls-1" d="M228.4,82.6c-2.9,13.8-10.4,33.4-19.2,56-6.4,16.7-13.7,35.5-20.2,55.1-6.4,18.7-8.9,32.8-8.9,45.7s.5,8.3,1,12.5c-24.1-16.7-71.8-39.4-123.7-9-28.8,16.9-44.3,45.8-40.4,75.6,3.5,26.4,21.6,47.3,47.2,54.4l7.7,2,1.9-7.7c.5-1.9,11.9-46.2,52.8-45.4,32.9.7,54.5,32.8,60.2,42.6-2.8,5-5,12.1-5,20.2s3,18.6,10.6,28.6c-3,4-7.9,9-13.7,9.5-8.3.7-16.6-7.9-22.1-15.2l-4.6-6.2-6.1,4.7c-12.6,9.4-33.4,34.6-21.6,63,4.7,11.3,14.8,18.8,29,21.6,14.9,3,33.6.4,46.8-5.8,2.6,15.1,9.8,40.4,30.8,62.3l5.5,5.8,5.5-5.9c20.9-21.8,28.1-47.2,30.7-62.3,13.3,6.1,32,8.8,46.8,5.8,14.4-2.9,24.4-10.4,29-21.7,11.6-28.4-9.1-53.8-21.7-63l-6.2-4.6-4.6,6.1c-5.4,7.3-13.8,16-22,15.4-5.8-.5-10.7-5.5-13.7-9.5,7.4-10,10.4-19.8,10.4-28.4s-2.4-15.2-5.2-20.3c5.8-10,27.2-42,60.2-42.7,40.9-1,52.4,43.3,52.9,45.2l1.9,7.7,7.6-2.2c25.7-7.1,43.7-28,47.2-54.5,3.7-29.8-11.8-58.6-40.7-75.5-52.1-30.2-99.6-7.3-123.7,9.4.5-4,1-8,1-12.1,0-13.2-2.6-27.4-8.9-46.1-6.6-19.6-13.9-38.4-20.3-55-8.9-22.7-16.4-42.2-19.4-56l-7.6-35.3-7.4,35.3"/>
      <path d="M236.4,541.6c29.5-31,29.9-70,29.9-70,13.1,13,63.7,21.7,75.1-6,12.4-30.4-19.2-53.9-19.2-53.9-30.7,41.2-51.2.8-51.2.8,23.3-25.2,5.8-47.9,5.8-47.9,1.6-4.7,27.5-49.9,68.9-50.8,47.9-1.1,60.6,51,60.6,51,50.2-13.8,59.9-83.8,4.7-115.8-70-40.7-131,21.4-131,21.4,5.8-23.3,7.3-40.7-4.1-74.5-15.6-46-34.6-87-39.8-111.8-5.3,24.8-24.2,66-39.6,112-11.4,34-9.7,51.2-4.1,74.5,0,0-61.1-61.9-131-21.1-55.1,32.3-45.2,102.1,4.9,115.9,0,0,12.7-52.2,60.5-51.2,41.5.8,67.6,46,69.1,50.5,0,0-17.5,22.8,5.9,48,0,0-20.5,40.3-51.2-.7,0,0-31.7,23.5-19.1,53.9,11.4,27.7,62,18.8,75.1,5.9,0,0,.4,39,29.9,69.8"/>
      <path class="cls-2" d="M361.8,247c-56.9,0-103.7,64.7-103.7,64.7,2-10.6,26.4-58.2,4.4-115.1-22.1-57-26.6-79.9-26.6-79.9v.7c-.1,0-.1-.6-.1-.6,0,0-4.4,22.9-26.3,79.9-22,56.9,2.5,104.5,4.6,115.1,0,0-46.8-64.6-103.8-64.6-57,.1-104.4,64.9-51.7,103.2,0,0,15.4-47.8,68.4-47.9,39.1-.1,78.2,41.8,79.9,62.5,0,0-17.9,25.3,7,46.3,0,0-26.9,56.5-64.1,15.8,0,0-28.7,35.8,8.8,44.5,29.8,6.8,58.9-23.3,58.9-23.3,0,0-3.1,47.6,18.8,73.6v-.2.2c22.1-26,18.8-73.7,18.8-73.7,0,0,29.3,30.1,58.9,23.2,37.4-8.8,8.8-44.5,8.8-44.5-37.1,40.8-64.1-15.6-64.1-15.6,24.7-21.1,6.8-46.4,6.8-46.4,1.6-20.6,40.6-62.6,79.7-62.6s68.6,47.8,68.6,47.8c52.6-38.4,4.9-103.2-52.1-103.1"/>
    </g>
  </g>
</svg>