<svg width="24" height="25" viewBox="0 0 24 25" fill="none" xmlns="http://www.w3.org/2000/svg">
<path d="M12.0508 24.4922C10.418 24.4922 8.87891 24.1797 7.43359 23.5547C5.99609 22.9297 4.72656 22.0664 3.625 20.9648C2.52344 19.8633 1.66016 18.5938 1.03516 17.1562C0.410156 15.7109 0.0976562 14.1719 0.0976562 12.5391C0.0976562 10.9062 0.410156 9.37109 1.03516 7.93359C1.66016 6.48828 2.51953 5.21484 3.61328 4.11328C4.71484 3.01172 5.98438 2.14844 7.42188 1.52344C8.86719 0.898438 10.4062 0.585938 12.0391 0.585938C13.6719 0.585938 15.2109 0.898438 16.6562 1.52344C18.1016 2.14844 19.375 3.01172 20.4766 4.11328C21.5781 5.21484 22.4414 6.48828 23.0664 7.93359C23.6914 9.37109 24.0039 10.9062 24.0039 12.5391C24.0039 14.1719 23.6914 15.7109 23.0664 17.1562C22.4414 18.5938 21.5781 19.8633 20.4766 20.9648C19.375 22.0664 18.1016 22.9297 16.6562 23.5547C15.2188 24.1797 13.6836 24.4922 12.0508 24.4922ZM12.0508 22.5C13.4336 22.5 14.7266 22.2422 15.9297 21.7266C17.1328 21.2109 18.1914 20.5 19.1055 19.5938C20.0195 18.6797 20.7305 17.6211 21.2383 16.418C21.7539 15.2148 22.0117 13.9219 22.0117 12.5391C22.0117 11.1562 21.7539 9.86328 21.2383 8.66016C20.7227 7.45703 20.0078 6.39844 19.0938 5.48438C18.1875 4.57031 17.1289 3.85938 15.918 3.35156C14.7148 2.83594 13.4219 2.57812 12.0391 2.57812C10.6562 2.57812 9.36328 2.83594 8.16016 3.35156C6.95703 3.85938 5.90234 4.57031 4.99609 5.48438C4.08984 6.39844 3.37891 7.45703 2.86328 8.66016C2.35547 9.86328 2.10156 11.1562 2.10156 12.5391C2.10156 13.9219 2.35547 15.2148 2.86328 16.418C3.37891 17.6211 4.08984 18.6797 4.99609 19.5938C5.91016 20.5 6.96875 21.2109 8.17188 21.7266C9.375 22.2422 10.668 22.5 12.0508 22.5ZM9.23828 7.37109C9.86328 7.37109 10.4141 7.53516 10.8906 7.86328C11.375 8.19141 11.7617 8.62109 12.0508 9.15234C12.3398 8.62109 12.7266 8.19141 13.2109 7.86328C13.6953 7.53516 14.2461 7.37109 14.8633 7.37109C15.5273 7.37109 16.1133 7.52734 16.6211 7.83984C17.1367 8.14453 17.543 8.56641 17.8398 9.10547C18.1367 9.63672 18.2852 10.25 18.2852 10.9453C18.2852 11.5625 18.168 12.1641 17.9336 12.75C17.6992 13.3359 17.3828 13.9023 16.9844 14.4492C16.5859 14.9883 16.1406 15.5 15.6484 15.9844C15.1562 16.4609 14.6484 16.9023 14.125 17.3086C13.6016 17.7148 13.1016 18.0742 12.625 18.3867C12.5391 18.4492 12.4414 18.5117 12.332 18.5742C12.2305 18.6289 12.1445 18.6562 12.0742 18.6562C11.9961 18.6562 11.8984 18.625 11.7812 18.5625C11.6719 18.5 11.5664 18.4414 11.4648 18.3867C10.9883 18.082 10.4883 17.7305 9.96484 17.332C9.44141 16.9258 8.93359 16.4805 8.44141 15.9961C7.94922 15.5117 7.50391 15 7.10547 14.4609C6.71484 13.9141 6.40234 13.3477 6.16797 12.7617C5.93359 12.168 5.81641 11.5625 5.81641 10.9453C5.81641 10.25 5.96094 9.63672 6.25 9.10547C6.54688 8.56641 6.95312 8.14453 7.46875 7.83984C7.98438 7.52734 8.57422 7.37109 9.23828 7.37109Z" fill="black"/>
</svg>
