<svg width="29" height="11" viewBox="0 0 29 11" fill="none" xmlns="http://www.w3.org/2000/svg">
<g clip-path="url(#clip0_314_1771)">
<path d="M14.5706 0.876242C13.9835 2.73531 13.4071 4.56104 12.8152 6.43636C13.4586 6.23014 14.0497 6.03684 14.6432 5.85187C15.0354 5.7296 15.4287 5.60983 15.8261 5.50859C15.9995 5.46444 16.0856 5.37945 16.1367 5.20135C16.4347 4.16653 16.7421 3.13462 17.0521 2.10354C17.1127 1.9019 17.1797 1.69798 17.2767 1.51364C17.4921 1.1037 17.8171 0.866661 18.2901 0.86916C19.4224 0.875409 20.5549 0.86791 21.6872 0.872493C22.2604 0.874784 22.528 1.24181 22.3687 1.81588C22.1325 2.66615 21.882 3.51247 21.6228 4.41128C21.9773 4.30796 22.2946 4.22464 22.6043 4.11716C22.6662 4.09571 22.7171 3.98885 22.7417 3.91074C22.9193 3.34458 23.0859 2.77447 23.262 2.20769C23.5382 1.31846 24.1293 0.872285 25.028 0.871451C26.1117 0.870202 27.1953 0.870202 28.2789 0.871451C28.8541 0.872285 29.097 1.15786 28.9652 1.73756C28.8515 2.23768 28.6894 2.72656 28.5352 3.21585C28.5157 3.27813 28.4153 3.35291 28.3513 3.35416C27.7961 3.36499 27.2406 3.36041 26.6412 3.36041C26.7044 3.13232 26.7591 2.93507 26.8281 2.68615C26.2459 2.68615 25.6944 2.67803 25.1437 2.69573C25.0691 2.69802 24.9691 2.81675 24.9321 2.90465C24.855 3.08733 24.8124 3.28563 24.7401 3.52976C24.923 3.4981 25.0681 3.47289 25.2751 3.43707C25.1298 3.93677 25.0003 4.39628 24.8588 4.85204C24.8427 4.90411 24.7655 4.9564 24.7077 4.97118C22.5924 5.50964 20.5392 6.24847 18.4756 7.04605C18.479 6.99376 18.4756 6.95815 18.484 6.92565C18.5585 6.64216 18.5108 6.56592 18.2271 6.61758C17.6801 6.71735 17.1254 6.80255 16.5956 6.96856C14.5992 7.59366 12.6108 8.24689 10.621 8.89449C10.2904 9.00197 9.96731 9.13403 9.5957 9.2713C9.81038 8.57058 10.0057 7.91819 10.2154 7.27101C10.2371 7.20415 10.3375 7.13811 10.4119 7.12103C10.6538 7.06563 10.7528 6.9067 10.8238 6.67236C11.3817 4.83308 11.9563 2.99901 12.5118 1.1589C12.5802 0.932483 12.6748 0.863328 12.8979 0.87041C13.4421 0.888115 13.9874 0.876242 14.5706 0.876242ZM19.0896 5.31821C19.2753 5.18469 19.526 5.10304 19.5841 4.94515C19.8055 4.34421 19.97 3.72035 20.141 3.10066C20.1662 3.00984 20.1417 2.87174 20.0873 2.79634C19.9437 2.59679 18.8908 2.63741 18.7381 2.83342C18.72 2.85675 18.6995 2.88174 18.6912 2.90944C18.4897 3.57954 18.2897 4.25005 18.0828 4.94202C18.4538 4.97848 18.8623 4.7783 19.0894 5.318L19.0896 5.31821Z" fill="#013369"/>
<path d="M11.8905 0.896281C11.7245 1.4589 11.5668 2.0188 11.3861 2.57079C11.3662 2.63141 11.2163 2.6764 11.1262 2.67744C10.4431 2.68619 9.75985 2.68765 9.0768 2.67869C8.90277 2.6764 8.81324 2.72785 8.76515 2.90907C8.64202 3.37337 8.50058 3.83267 8.35572 4.3305H10.4176C10.2435 4.91311 10.0864 5.4624 9.90773 6.00418C9.886 6.07021 9.74818 6.13083 9.66287 6.13291C9.16552 6.14499 8.66657 6.15957 8.17022 6.13103C7.87386 6.11395 7.76844 6.23622 7.69078 6.51201C7.38839 7.58725 7.05803 8.65415 6.74879 9.72752C6.69326 9.91999 6.60454 10.0316 6.41843 10.102C5.79674 10.338 5.1817 10.5932 4.50488 10.8648C4.70245 10.2183 4.89218 9.62191 5.0644 9.02034C5.12496 8.80871 5.22998 8.69456 5.4344 8.6102C6.05689 8.35358 6.38986 7.88574 6.36773 7.16065C6.34701 6.48431 6.35526 5.80671 6.36773 5.13016C6.37216 4.89103 6.39831 4.64399 6.4641 4.41569C6.78179 3.31359 7.11698 2.21689 7.44432 1.1177C7.48617 0.979809 7.51534 0.863995 7.70647 0.865244C9.06292 0.87441 10.4194 0.871077 11.776 0.872743C11.8044 0.872743 11.8327 0.8842 11.8905 0.896489V0.896281Z" fill="#013369"/>
<path d="M21.3127 8.98478C21.4283 8.57401 21.5384 8.17804 21.6515 7.7831C21.7927 7.29006 21.9325 6.7966 22.0832 6.30668C22.1096 6.22107 22.1722 6.10609 22.2422 6.08297C22.8616 5.87946 23.4866 5.69345 24.1813 5.48057C24.0006 6.08151 23.8404 6.61372 23.6648 7.19758C24.0636 7.19758 24.438 7.19758 24.8124 7.19758C24.9977 7.19758 25.1838 7.18654 25.3681 7.20049C25.5498 7.21424 25.6317 7.13842 25.6673 6.95741C25.7075 6.75203 25.7737 6.55206 25.8377 6.31627H25.1003C25.2566 5.7774 25.3979 5.27831 25.5508 4.78298C25.5645 4.7384 25.6538 4.69195 25.7081 4.69174C26.5258 4.68591 27.3432 4.68779 28.1907 4.68779C28.1613 4.81443 28.1442 4.91108 28.1166 5.00419C27.8315 5.96882 27.5488 6.93429 27.2575 7.89684C27.0354 8.63025 26.5803 9.00311 25.8667 9.00811C24.4132 9.01832 22.9598 9.01186 21.5064 9.01061C21.4503 9.01061 21.3941 8.99603 21.3123 8.98478H21.3127Z" fill="#013369"/>
<path d="M20.9302 6.54492C20.7049 7.36687 20.5049 8.11133 20.2904 8.85141C20.2707 8.91953 20.1594 9.00326 20.089 9.00493C19.5454 9.01763 19.0012 9.01201 18.4004 9.01201C18.5634 8.44419 18.7134 7.9099 18.8742 7.37916C18.8905 7.32542 18.9655 7.2748 19.0237 7.25272C19.6349 7.02172 20.2484 6.79696 20.93 6.54492H20.9302Z" fill="#013369"/>
<path d="M15.021 9.0092C15.1574 8.57698 15.2747 8.18329 15.4101 7.79628C15.4338 7.72858 15.5264 7.66151 15.5992 7.64172C16.1808 7.48383 16.7653 7.33719 17.4162 7.16992C17.2345 7.78899 17.0713 8.35202 16.9001 8.91213C16.8872 8.95421 16.8156 9.00441 16.7709 9.00482C16.1995 9.01107 15.628 9.00899 15.0208 9.00899L15.021 9.0092Z" fill="#013369"/>
<path d="M5.97122 1.86835C5.70564 2.06561 5.19783 2.33431 4.54435 2.16767C3.41204 1.87897 3.08791 0.869141 3.08791 0.869141C3.08791 0.869141 2.76379 1.87918 1.63148 2.16767C0.977799 2.33431 0.469987 2.0654 0.204614 1.86835H0V7.3139C0 7.45179 0.0325933 7.72279 0.248273 7.9942C0.514652 8.32936 0.966734 8.54661 1.59144 8.64014C2.08899 8.71471 2.45697 8.87656 2.71651 9.13506C2.90704 9.32502 3.08791 9.65393 3.08791 9.65393C3.08791 9.65393 3.27563 9.31815 3.45932 9.13506C3.71866 8.87656 4.08684 8.71471 4.58439 8.64014C5.2091 8.54661 5.66098 8.32936 5.92756 7.9942C6.14324 7.723 6.17563 7.45159 6.17583 7.3139V1.86835H5.97142H5.97122Z" fill="white"/>
<path d="M5.99029 2.08073C5.99029 2.08073 5.37122 2.5794 4.49925 2.35402C3.48262 2.09094 3.08767 1.30273 3.08767 1.30273C3.08767 1.30273 2.69273 2.09114 1.6761 2.35402C0.80413 2.57961 0.185059 2.08073 0.185059 2.08073V7.31361C0.185059 7.49149 0.256885 8.24679 1.61776 8.45029C2.15494 8.53091 2.55632 8.70963 2.84463 8.99687C2.94845 9.09998 3.02732 9.20496 3.08767 9.3014C3.14803 9.20517 3.2267 9.09998 3.33031 8.99687C3.61903 8.70963 4.02021 8.53091 4.55759 8.45029C5.91826 8.24679 5.99009 7.49149 5.99029 7.31361V2.08073Z" fill="#013369"/>
<path d="M3.08802 8.76886C3.08802 8.76886 3.48297 8.26498 4.50905 8.10105C5.68442 7.91338 5.64962 7.3418 5.64962 7.31285V4.57227H0.52623V7.31285C0.52623 7.3416 0.491625 7.91317 1.66679 8.10105C2.69288 8.26498 3.08782 8.76886 3.08782 8.76886H3.08802Z" fill="white"/>
<path d="M1.8937 6.57463V5.27131L1.73536 5.17966V4.8418H2.45483V5.17966L2.30434 5.27131V7.93003L1.91986 7.81068L1.36396 6.11242V7.23202L1.54041 7.37242V7.71736L0.768629 7.51427V7.22015L0.945277 7.1487V5.27256L0.764404 5.17987V4.84201H1.34847L1.8939 6.57505L1.8937 6.57463Z" fill="#D50A0A"/>
<path d="M3.21784 7.76693L3.37196 7.95815V8.29601L2.60742 8.00023V7.7134L2.77622 7.64175V5.27152L2.60843 5.18361V4.8418H3.9359V5.5296H3.64417L3.55585 5.24715H3.21804V6.04243H3.47155L3.57134 5.89141H3.77475V6.59921H3.57134L3.47537 6.45611H3.21804V7.76673L3.21784 7.76693Z" fill="#D50A0A"/>
<path d="M4.06201 7.8865V7.54864L4.25194 7.38721V5.27152L4.08978 5.18362V4.8418H4.85532V5.18362L4.70482 5.27152V7.25639L5.03378 7.16433L5.09695 6.64421H5.41162V7.51323L4.06201 7.8865Z" fill="#D50A0A"/>
<path d="M0.659265 4.01078L0.42749 3.8304H0.710569L0.804124 3.55273L0.897679 3.8304H1.18076L0.948983 4.01099L1.03429 4.29282L0.804124 4.12535L0.573959 4.29282L0.659265 4.01078Z" fill="white"/>
<path d="M1.66464 4.01078L1.43286 3.8304H1.71594L1.8095 3.55273L1.90305 3.8304H2.18633L1.95456 4.01099L2.03986 4.29282L1.8097 4.12535L1.57953 4.29282L1.66484 4.01078H1.66464Z" fill="white"/>
<path d="M0.659265 3.07154L0.42749 2.89115H0.710569L0.804124 2.61328L0.897679 2.89115H1.18076L0.948983 3.07154L1.03429 3.35337L0.804124 3.18589L0.573959 3.35337L0.659265 3.07154Z" fill="white"/>
<path d="M1.66464 3.07154L1.43286 2.89115H1.71594L1.8095 2.61328L1.90305 2.89115H2.18633L1.95456 3.07154L2.03986 3.35337L1.8097 3.18589L1.57953 3.35337L1.66484 3.07154H1.66464Z" fill="white"/>
<path d="M5.60167 4.29303L5.37151 4.12556L5.14134 4.29303L5.22645 4.01099L4.99487 3.8304H5.27795L5.37151 3.55273L5.46506 3.8304H5.74814L5.51657 4.01099L5.60187 4.29303H5.60167Z" fill="white"/>
<path d="M4.5963 4.29303L4.36614 4.12556L4.13597 4.29303L4.22128 4.01099L3.9895 3.8304H4.27278L4.36634 3.55273L4.45989 3.8304H4.74297L4.5112 4.01099L4.5965 4.29303H4.5963Z" fill="white"/>
<path d="M5.60167 3.35357L5.37151 3.1861L5.14134 3.35357L5.22645 3.07154L4.99487 2.89094H5.27795L5.37151 2.61328L5.46506 2.89094H5.74814L5.51657 3.07154L5.60187 3.35357H5.60167Z" fill="white"/>
<path d="M4.5963 3.35357L4.36614 3.1861L4.13597 3.35357L4.22128 3.07154L3.9895 2.89094H4.27278L4.36634 2.61328L4.45989 2.89094H4.74297L4.5112 3.07154L4.5965 3.35357H4.5963Z" fill="white"/>
<path d="M3.7262 2.31885C3.7262 2.31885 3.60609 2.38363 3.4387 2.55402C3.47652 2.5761 3.51897 2.60714 3.54332 2.62797C3.51797 2.6513 3.49221 2.67629 3.46807 2.69983C3.35902 2.60693 3.24555 2.55964 3.15763 2.53736C3.1868 2.51569 3.21779 2.49445 3.24837 2.47383C3.29565 2.48632 3.34132 2.50549 3.34132 2.50549C3.53044 2.35635 3.69401 2.29219 3.69401 2.29219C3.69401 2.29219 3.6751 2.28261 3.6244 2.28323C2.88079 2.29323 2.19552 2.86813 2.32489 3.85151C2.33877 3.95587 2.37781 4.14563 2.4277 4.22874C2.4442 4.06502 2.50355 3.70279 2.68 3.31473C2.61863 3.29202 2.56793 3.28265 2.56793 3.28265C2.58584 3.24349 2.61099 3.19371 2.61099 3.19371C2.74136 3.21912 2.85665 3.27557 2.95664 3.35764C2.9327 3.39763 2.9164 3.42388 2.90513 3.4445C2.87013 3.41596 2.83472 3.39138 2.79588 3.36909C2.59771 3.72778 2.50576 4.06627 2.46854 4.24395C2.47056 4.25499 2.49208 4.26061 2.50959 4.25832C3.32442 4.14917 3.70588 3.71883 3.82197 3.25245C3.89842 2.94646 3.87327 2.62651 3.77107 2.36572C3.76383 2.34739 3.74994 2.31698 3.7262 2.31906V2.31885ZM3.02545 3.24786C2.91942 3.15642 2.79588 3.10039 2.67457 3.07643C2.67457 3.07643 2.71179 3.01353 2.73291 2.98103C2.88119 3.01144 3.00171 3.08331 3.08601 3.15705C3.06428 3.18912 3.04375 3.21974 3.02545 3.24807V3.24786ZM3.15924 3.05352C3.06106 2.96812 2.94135 2.90438 2.80594 2.87626C2.82667 2.84855 2.85101 2.81918 2.87415 2.7919C2.97756 2.81085 3.11015 2.8673 3.22563 2.96604C3.20189 2.9952 3.17996 3.02519 3.15924 3.05352ZM3.30832 2.86793C3.20511 2.78002 3.08963 2.72316 2.9667 2.69608C2.99647 2.66692 3.02685 2.64192 3.05361 2.6188C3.20712 2.65692 3.31054 2.72816 3.38075 2.78877C3.3556 2.81544 3.33126 2.84147 3.30812 2.86793H3.30832Z" fill="white"/>
</g>
<defs>
<clipPath id="clip0_314_1771">
<rect width="29" height="10" fill="white" transform="translate(0 0.865234)"/>
</clipPath>
</defs>
</svg>
