<svg width="172" height="23" viewBox="0 0 172 23" fill="none" xmlns="http://www.w3.org/2000/svg">
<g id="App NAme">
<path id="Vector" d="M171.987 0.625L170.315 6.875H160.94L160.519 8.4375H168.331L166.659 14.6875H158.847L158.425 16.25H167.8L166.128 22.5H150.503L156.362 0.625H171.987Z" fill="black"/>
<path id="Vector_2" d="M135.509 22.5L132.759 12.3438L130.041 22.5H123.791L129.65 0.625H135.9L138.447 11.5625L146.837 0.625H153.087L147.228 22.5H140.978L143.697 12.3438L135.509 22.5Z" fill="black"/>
<path id="Vector_3" d="M115.562 7.1875L111.844 13.125H116.078L115.562 7.1875ZM107.938 19.375L105.984 22.5H99.7344L113.406 0.625H121.219L123.172 22.5H116.922L116.641 19.375H107.938Z" fill="black"/>
<path id="Vector_4" d="M87.9595 11.5625L85.022 22.5H78.772L84.6313 0.625H90.8813L95.772 11.5625L98.6938 0.625H104.944L99.0845 22.5H92.8345L87.9595 11.5625Z" fill="black"/>
<path id="Vector_5" d="M55.5967 6.875L54.7529 10H59.4404C60.4821 10 61.1436 9.47917 61.4248 8.4375C61.7061 7.39583 61.3258 6.875 60.2842 6.875H55.5967ZM53.0811 16.25L51.4092 22.5H45.1592L51.0186 0.625H61.9561C67.1644 0.625 69.0706 3.22917 67.6748 8.4375C66.279 13.6458 62.9769 16.25 57.7686 16.25H53.0811Z" fill="black"/>
<path id="Vector_6" d="M35.2905 6.875L34.4468 10H39.1343C40.1759 10 40.8374 9.47917 41.1187 8.4375C41.3999 7.39583 41.0197 6.875 39.978 6.875H35.2905ZM32.7749 16.25L31.103 22.5H24.853L30.7124 0.625H41.6499C46.8582 0.625 48.7645 3.22917 47.3687 8.4375C45.9728 13.6458 42.6707 16.25 37.4624 16.25H32.7749Z" fill="black"/>
<path id="Vector_7" d="M16.625 7.1875L12.9062 13.125H17.1406L16.625 7.1875ZM9 19.375L7.04688 22.5H0.796875L14.4688 0.625H22.2812L24.2344 22.5H17.9844L17.7031 19.375H9Z" fill="black"/>
</g>
</svg>
