<?xml version="1.0" encoding="UTF-8"?>
<svg id="_レイヤー_1" data-name="レイヤー_1" xmlns="http://www.w3.org/2000/svg" width="990.505" height="292.576" version="1.1" viewBox="0 0 990.505 292.576">
  <!-- Generator: Adobe Illustrator 29.0.0, SVG Export Plug-In . SVG Version: 2.1.0 Build 186)  -->
  <circle cx="700.841" cy="113.638" r="48.695" fill="#fff"/>
  <g>
    <g>
      <path d="M35.533,173.048H0V0h55.264c40.983,0,64.073,19.974,64.073,55.264,0,36.061-23.597,58.369-61.749,58.369h-22.055v59.415ZM50.849,84.322c20.492,0,32.427-9.866,32.427-27.241,0-17.133-12.189-27.769-31.646-27.769h-16.097v55.01h15.316Z" fill="#1e1e1e"/>
      <path d="M141.201,173.048V0h32.955v173.048h-32.955Z" fill="#1e1e1e"/>
      <path d="M298.986,52.929h32.955v120.118h-32.955v-16.604c-11.154,14.27-24.125,20.756-41.765,20.756-33.737,0-57.862-26.206-57.862-62.784,0-37.878,25.414-65.636,60.439-65.636,16.351,0,27.505,5.704,39.187,19.456v-15.305ZM234.638,113.897c0,21.009,13.753,36.842,31.646,36.842,18.421,0,33.209-17.133,33.209-37.878,0-21.284-13.478-36.325-32.934-36.325-18.696,0-31.92,15.305-31.92,37.36Z" fill="#1e1e1e"/>
      <path d="M435.012,52.929h35.026l-67.707,174.864h-35.279l22.562-57.598-42.018-117.266h35.026l24.379,71.34,28.012-71.34Z" fill="#1e1e1e"/>
      <path d="M519.154,173.048h-32.955V0h32.955v67.453c11.408-13.235,22.562-18.675,38.913-18.675,35.279,0,60.439,26.977,60.439,64.855,0,37.624-23.85,63.566-58.876,63.566-18.168,0-29.85-5.704-40.476-19.72v15.569ZM518.626,113.897c0,21.527,13.224,36.578,32.174,36.578,19.203,0,32.681-15.052,32.681-36.578,0-21.273-13.731-37.36-31.899-37.36-18.421,0-32.955,16.604-32.955,37.36Z" fill="#1e1e1e"/>
    </g>
    <path d="M918.89,173.048h-32.955V0h32.955v99.109l33.462-46.18h38.152l-40.73,57.588,40.73,62.531h-38.152l-33.462-49.813v49.813Z" fill="#1e1e1e"/>
    <path d="M640.017,133.515c11.332,33.58,47.771,51.631,81.352,40.298,33.58-11.332,51.63-47.771,40.298-81.351-11.332-33.581-47.771-51.631-81.352-40.299-33.58,11.332-51.63,47.771-40.298,81.352ZM687.409,76.976c.399-3.818,5.84-4.426,7.07-.776l9.534,28.251c.115.335.356.613.673.771.32.157.687.182,1.022.069l28.259-9.537c3.649-1.232,6.462,3.42,3.657,6.06l-50.289,46.029c-.532.504-1.207.834-1.934.943-.725.11-1.467-.007-2.123-.333-.659-.326-1.2-.845-1.554-1.488-.353-.644-.5-1.381-.421-2.11l6.105-67.879Z" fill="#004bdf"/>
    <path d="M464.226,292.576c-40.252,0-79.782-7.063-114.316-20.426-33.733-13.053-61.983-31.772-81.695-54.136-1.958-2.223-1.745-5.611.477-7.57,2.223-1.96,5.611-1.747,7.571.477,38.563,43.75,110.587,70.927,187.963,70.927,74.124,0,142.318-24.292,182.419-64.981,2.08-2.111,5.476-2.135,7.585-.056,2.11,2.079,2.135,5.476.056,7.585-42.074,42.692-113.124,68.181-190.06,68.181Z" fill="#1e1e1e"/>
    <path d="M267.062,246.5c-2.846,0-5.217-2.238-5.354-5.11l-1.73-36.548c-.078-1.645.604-3.232,1.848-4.31,1.245-1.077,2.912-1.527,4.53-1.21l34.157,6.615c2.908.562,4.809,3.377,4.246,6.285-.563,2.909-3.378,4.813-6.286,4.246l-27.457-5.317,1.407,29.73c.14,2.959-2.145,5.472-5.104,5.611-.086.005-.172.007-.258.007Z" fill="#1e1e1e"/>
    <path d="M709.122,248.598c-2.156,0-4.19-1.31-5.009-3.443l-16.559-43.153c-1.062-2.766.32-5.868,3.086-6.93,2.764-1.061,5.868.319,6.93,3.086l16.559,43.153c1.062,2.766-.32,5.868-3.086,6.93-.632.242-1.282.357-1.921.357Z" fill="#1e1e1e"/>
    <path d="M679.629,236.187c-2.075,0-4.052-1.212-4.927-3.238-1.175-2.719.077-5.876,2.797-7.051l42.431-18.331c2.718-1.175,5.876.078,7.051,2.797s-.077,5.876-2.797,7.051l-42.431,18.331c-.692.3-1.414.441-2.124.441Z" fill="#1e1e1e"/>
    <path d="M798.419,48.778c-14.694,0-27.345,4.063-37.731,10.81,6.913,7.75,12.51,16.78,16.066,27.014,5.522-5.128,12.799-8.248,21.665-8.248,19.71,0,31.899,13.488,31.899,35.279,0,19.974-13.224,34.244-32.174,34.244-8.879,0-16.2-3.245-21.71-8.558-3.462,9.896-8.793,18.973-15.782,26.861,10.349,6.849,22.884,11.019,37.239,11.019,36.842,0,65.636-27.759,65.636-63.048,0-37.878-27.23-65.372-65.108-65.372Z" fill="#1e1e1e"/>
    <path d="M640.017,133.515c11.332,33.58,47.771,51.631,81.352,40.298,33.58-11.332,51.63-47.771,40.298-81.351-11.332-33.581-47.771-51.631-81.352-40.299-33.58,11.332-51.63,47.771-40.298,81.352ZM687.409,76.976c.399-3.818,5.84-4.426,7.07-.776l9.534,28.251c.115.335.356.613.673.771.32.157.687.182,1.022.069l28.259-9.537c3.649-1.232,6.462,3.42,3.657,6.06l-50.289,46.029c-.532.504-1.207.834-1.934.943-.725.11-1.467-.007-2.123-.333-.659-.326-1.2-.845-1.554-1.488-.353-.644-.5-1.381-.421-2.11l6.105-67.879Z" fill="#004bdf"/>
  </g>
</svg>