<svg width="29" height="50" viewBox="0 0 29 50" fill="none" xmlns="http://www.w3.org/2000/svg">
<g clip-path="url(#clip0_314_1525)">
<path d="M15.4811 11.8638C15.0853 11.3985 14.7623 10.8935 14.5 10.3652C14.2377 10.8928 13.9147 11.3985 13.5188 11.8638C11.0481 14.7692 7.725 15.7429 4 12.3346V32.1435C4.04046 34.3927 5.72494 35.1536 7.28129 35.7461L8.49846 36.0965C10.3232 36.336 12.0953 36.7951 14.5 39.3652C16.9053 36.7951 18.6768 36.336 20.5015 36.0965L21.7187 35.7461C23.2744 35.1536 24.9595 34.3927 25 32.1435V12.3346C21.275 15.7429 17.9519 14.7685 15.4811 11.8638Z" fill="white"/>
<path d="M15.4967 13.1244C15.1237 12.6913 14.8203 12.2212 14.5762 11.7285C14.3321 12.2205 14.0286 12.6913 13.6557 13.1244C11.3927 15.7513 7.56923 16.0969 4.93799 13.9832V31.4621C4.97508 33.4958 6.51794 34.1835 7.9428 34.7193L9.05747 35.0361C10.7318 35.253 12.3576 35.669 14.5661 38.0044C14.5695 37.9997 14.5721 37.9955 14.5755 37.9908C14.5789 37.9955 14.5816 37.9997 14.585 38.0044C16.7941 35.6697 18.4199 35.253 20.0936 35.0361L21.2082 34.7193C22.6331 34.1835 24.176 33.4958 24.213 31.4621V13.9825C21.5818 16.0962 17.7577 15.7506 15.4953 13.1237L15.4967 13.1244Z" fill="#033066"/>
<path d="M16.937 15.1247C16.937 15.1247 13.972 14.6861 12.5525 17.0119C11.1513 19.3076 12.1398 21.3953 12.1398 21.3953C12.1398 21.3953 15.1177 21.9037 16.6983 19.4315C18.0112 17.3787 16.937 15.1247 16.937 15.1247Z" fill="white"/>
<path d="M13.7556 16.8875L15.0834 17.5765C15.1339 17.5218 15.1852 17.4684 15.2364 17.415L13.906 16.7246C13.8554 16.778 13.8048 16.832 13.7556 16.8875Z" fill="#033066"/>
<path d="M13.3078 17.464L14.6012 18.1352C14.6511 18.0716 14.703 18.0093 14.7549 17.9471L13.4454 17.2676C13.3982 17.3319 13.3516 17.3969 13.3071 17.464H13.3078Z" fill="#033066"/>
<path d="M12.9592 18.0658L14.2074 18.7131C14.2432 18.6509 14.2802 18.5893 14.318 18.5297L13.0597 17.877C13.0253 17.9392 12.9923 18.0022 12.9599 18.0658H12.9592Z" fill="#033066"/>
<path d="M15.0746 15.7422C15.0099 15.786 14.9438 15.8325 14.8777 15.8804L16.1596 16.5455C16.2196 16.4942 16.2783 16.4442 16.3356 16.3963L15.0746 15.7422Z" fill="#033066"/>
<path d="M14.2695 16.3707L15.5945 17.0584C15.6552 17.0002 15.7159 16.9434 15.7759 16.888L14.4596 16.2051C14.3962 16.2585 14.3322 16.3139 14.2688 16.3707H14.2695Z" fill="#033066"/>
<path d="M15.7401 16.1993C16.4954 15.5301 17.1158 15.0949 17.1158 15.0949L17.0025 15.0176C17.0025 15.0176 16.3187 15.2619 15.4131 16.0276L15.7408 16.1993H15.7401Z" fill="#033066"/>
<path d="M13.5283 18.2227C12.6072 19.7123 12.0374 21.4298 12.0374 21.4298L12.1722 21.5126C12.1722 21.5126 12.883 19.752 13.7967 18.3588L13.5283 18.2227Z" fill="#033066"/>
<path d="M22.0992 16.1445L22.4195 17.0703H23.4317L22.6245 17.7231L22.932 18.7215L22.0992 18.0755L21.2664 18.6825L21.5867 17.7163L20.8052 17.0703H21.7796L22.0992 16.1445Z" fill="white"/>
<path d="M22.0992 19.1719L22.4195 20.0984H23.4317L22.6245 20.7505L22.932 21.7488L22.0992 21.1029L21.2664 21.7098L21.5867 20.7443L20.8052 20.0984H21.7796L22.0992 19.1719Z" fill="white"/>
<path d="M18.8961 19.1719L19.2164 20.0984H20.2279L19.4207 20.7505L19.7289 21.7488L18.8961 21.1029L18.0633 21.7098L18.3829 20.7443L17.6021 20.0984H18.5758L18.8961 19.1719Z" fill="white"/>
<path d="M18.8698 16.1445L19.1908 17.0703H20.2029L19.3958 17.7231L19.7033 18.7215L18.8698 18.0755L18.0377 18.6825L18.358 17.7163L17.5764 17.0703H18.5501L18.8698 16.1445Z" fill="white"/>
<path d="M10.2436 16.1445L10.5639 17.0703H11.576L10.7689 17.7231L11.077 18.7215L10.2436 18.0755L9.41076 18.6825L9.73107 17.7163L8.9502 17.0703H9.92393L10.2436 16.1445Z" fill="white"/>
<path d="M10.2436 19.1719L10.5639 20.0984H11.576L10.7689 20.7505L11.077 21.7488L10.2436 21.1029L9.41076 21.7098L9.73107 20.7443L8.9502 20.0984H9.92393L10.2436 19.1719Z" fill="white"/>
<path d="M7.04062 19.1719L7.36093 20.0984H8.37242L7.56593 20.7505L7.87342 21.7488L7.04062 21.1029L6.20782 21.7098L6.52746 20.7443L5.74658 20.0984H6.72032L7.04062 19.1719Z" fill="white"/>
<path d="M7.01499 16.1445L7.33529 17.0703H8.34814L7.54029 17.7231L7.84779 18.7215L7.01499 18.0755L6.18219 18.6825L6.5025 17.7163L5.72095 17.0703H6.69468L7.01499 16.1445Z" fill="white"/>
<path d="M5.89282 22.4258V30.8197C5.92586 32.6878 7.31633 33.3193 8.60026 33.8113L9.60434 34.1021C11.1128 34.3013 12.5775 34.6838 14.5674 36.8283C14.5701 36.8242 14.5728 36.8201 14.5762 36.816C14.5789 36.8201 14.5816 36.8242 14.5849 36.8283C16.5749 34.6838 18.0395 34.3013 19.548 34.1021L20.5521 33.8113C21.836 33.3193 23.2258 32.6871 23.2595 30.8197V22.4258H5.89282Z" fill="white"/>
<path d="M15.0908 23.5371H13.0064V24.8666H13.5554V32.5585C13.2182 32.5195 12.9282 32.4983 12.9282 32.4983V33.7012C12.9282 33.7012 13.6572 33.7799 14.1724 33.938C14.5884 34.0653 15.6107 34.549 15.6107 34.549V33.2181C15.6107 33.2181 15.4131 33.0902 15.0908 32.9485V28.6452H15.8939L16.0861 29.1933H16.9486V26.7279H16.0861L15.8798 27.3156H15.0908V24.8673H16.1016L16.432 25.6481H17.4719V23.5378H15.0908V23.5371Z" fill="#BB121A"/>
<path d="M12.0199 23.5377H10.0374V24.8672H10.4845V28.1154L8.88092 23.4624V23.459H6.90851V24.7885H7.34547V30.639C6.9928 30.6205 6.6853 30.6199 6.6853 30.6199L6.79185 31.9727C6.79185 31.9727 7.52552 32.0021 8.05284 32.1383C8.47902 32.2477 9.54042 32.7096 9.54042 32.7096L9.42241 31.2124C9.42241 31.2124 9.21404 31.0852 8.88025 30.951V28.1825L10.5411 33.0018L12.0193 33.465V24.8665H12.4468V23.537H12.0193L12.0199 23.5377Z" fill="#BB121A"/>
<path d="M21.161 29.0427V30.9334C20.7564 31.0251 20.3161 31.1318 19.9492 31.2365V24.868L20.3963 24.6607V23.5371H17.9667V24.6607L18.4138 24.868V31.8578C18.1528 31.9947 17.931 32.1281 17.7529 32.2431V33.7621C18.2384 33.4782 19.4462 32.783 20.0335 32.5428C21.161 32.0829 22.3734 31.9741 22.3734 31.9741V29.0427H21.161Z" fill="#BB121A"/>
</g>
<defs>
<clipPath id="clip0_314_1525">
<rect width="21" height="29" fill="white" transform="translate(4 10.3652)"/>
</clipPath>
</defs>
</svg>
