<svg width="169" height="25" viewBox="0 0 169 25" fill="none" xmlns="http://www.w3.org/2000/svg">
<g id="Schedule">
<path id="Vector" d="M168.438 0.974609L166.661 7.61523H156.7L156.252 9.27539H164.553L162.776 15.916H154.476L154.027 17.5762H163.988L162.212 24.2168H145.61L151.836 0.974609H168.438Z" fill="black"/>
<path id="Vector_2" d="M138.752 17.5762H145.393L143.617 24.2168H130.335L136.561 0.974609H143.202L138.752 17.5762Z" fill="black"/>
<path id="Vector_3" d="M110.877 12.5957L113.981 0.974609H120.622L117.518 12.5957C116.621 15.916 117.28 17.5762 119.493 17.5762C121.707 17.5762 123.262 15.916 124.158 12.5957L127.263 0.974609H133.903L130.799 12.5957C128.718 20.3431 124.357 24.2168 117.717 24.2168C111.076 24.2168 108.796 20.3431 110.877 12.5957Z" fill="black"/>
<path id="Vector_4" d="M100.798 0.974609C104.008 0.974609 106.443 2.10905 108.103 4.37793C109.763 6.64681 110.167 9.38607 109.315 12.5957C108.452 15.8053 106.581 18.5446 103.704 20.8135C100.826 23.0824 97.7824 24.2168 94.5728 24.2168H85.4419L91.6675 0.974609H100.798ZM93.8589 17.5762H96.3491C97.7215 17.5762 99.022 17.0892 100.25 16.1152C101.49 15.1413 102.298 13.9681 102.674 12.5957C103.04 11.2233 102.862 10.0501 102.143 9.07617C101.435 8.10221 100.394 7.61523 99.022 7.61523H96.5317L93.8589 17.5762Z" fill="black"/>
<path id="Vector_5" d="M89.1094 0.974609L87.333 7.61523H77.3721L76.9238 9.27539H85.2246L83.4482 15.916H75.1475L74.6992 17.5762H84.6602L82.8838 24.2168H66.2822L72.5078 0.974609H89.1094Z" fill="black"/>
<path id="Vector_6" d="M48.3008 0.974609H54.9414L52.7168 9.27539H60.1875L62.4121 0.974609H69.0527L62.8272 24.2168H56.1865L58.4111 15.916H50.9404L48.7158 24.2168H42.0752L48.3008 0.974609Z" fill="black"/>
<path id="Vector_7" d="M38.2721 0.974609H45.7428L43.9664 7.61523H36.4957C35.1233 7.61523 33.8174 8.10221 32.5778 9.07617C31.3493 10.0501 30.5524 11.2233 30.1871 12.5957C29.8108 13.9681 29.9769 15.1413 30.6852 16.1152C31.4046 17.0892 32.4505 17.5762 33.8229 17.5762H41.2936L39.5172 24.2168H32.0465C28.8369 24.2168 26.402 23.0824 24.7418 20.8135C23.0817 18.5446 22.6832 15.8053 23.5465 12.5957C24.3987 9.38607 26.2636 6.64681 29.1412 4.37793C32.0188 2.10905 35.0625 0.974609 38.2721 0.974609Z" fill="black"/>
<path id="Vector_8" d="M8.37109 15.916C2.83724 15.916 0.745443 13.4036 2.0957 8.37891C3.41276 3.44271 6.83822 0.974609 12.3721 0.974609H23.1631L21.3867 7.61523H10.5957C9.48893 7.61523 8.86914 7.86979 8.73633 8.37891C8.57031 8.97656 9.04069 9.27539 10.1475 9.27539H15.1279C20.6618 9.27539 22.7702 11.7435 21.4531 16.6797C20.1029 21.7044 16.6608 24.2168 11.127 24.2168H0.335938L2.1123 17.5762H12.9033C14.0101 17.5762 14.6465 17.2773 14.8125 16.6797C14.9453 16.1706 14.4583 15.916 13.3516 15.916H8.37109Z" fill="black"/>
</g>
</svg>
