<?xml version="1.0" encoding="UTF-8"?>
<svg xmlns="http://www.w3.org/2000/svg" width="142.601mm" height="70.556mm" version="1.1" viewBox="0 0 404.225 200">
  <!-- Generator: Adobe Illustrator 28.7.1, SVG Export Plug-In . SVG Version: 1.2.0 Build 142)  -->
  <g>
    <g id="BALTIMORE_RAVENS">
      <g>
        <path d="M300.825,37.704c0,7.914-3.198,12.797-3.198,12.797-3.528-12.935-21.719-29.97-21.719-29.97,3.198,4.041,2.188,12.123,2.188,12.123-1.181-1.01-10.129-6.894-10.129-6.894C250.26,13.115,221.144,0,176.51,0,63.635,0,15.921,72.587,13.945,75.678c0,0-10.995,15.773-13.945,24.623l24.061-14.391c.196-.123,19.998-12.159,50.673-12.159,2.381,0,8.055.279,9.322,2.872,3.025,6.191-6.402,25.067-17.105,38.811l-22.974,29.5,32.486-18.584c.129-.074,13.123-7.365,34.654-7.365,4.347,0,6.213.705,6.847,1.029-.072,1.176-1.184,3.689-2.426,5.369l-15.921,21.524,24.689-10.309c.151-.062,15.317-6.305,36.961-6.305,12.741,0,21.46,2.486,23.922,6.822,2.278,4.011-.545,10.509-1.715,12.468l-5.087,8.526,9.61,2.447c1.082.27,2.455.6,8.007-.523-.049.788-.115,1.583-.115,2.35,0,12.463,6.027,22.004,6.38,22.553l9.723,15.064,3.692-17.544c3.268-15.524,15.699-22.247,23.44-24.976.005.019,2.22,8.316,2.22,8.316l7.723-3.088c6.935-2.773,18.348-11.103,22.461-14.187,3.356-.608,12.193-2.004,22.981-2.004,6.375,0,13.84.602,21.742,1.24,9.928.801,21.18,1.71,33.326,1.71,17.34,0,33.23-2.976,39.846-4.396,1.613,1.075,14.096,9.397,14.096,9.397l.625-13.004c.054-1.1.079-2.185.079-3.255,0-27.229-16.846-44.457-35.107-54.375.105-.007,1.148-.063,1.148-.063l-19.727-12.34c-2.731-1.707-8.075-3.018-13.409-3.98.355-.714.975-1.95.975-1.95l-8.764-2.321c-8.637-2.286-16.044-2.557-21.605-2.182,2.687-14.035-6.908-23.295-6.908-23.295Z" fill="#d1b336"/>
        <path d="M20.158,79.651S66.375,7.375,176.51,7.375c81.125,0,108.169,45.233,108.169,45.233,0,0,1.475-6.882-.494-10.325,0,0,9.344,9.835,9.834,21.636,0,0,5.409-5.409,5.409-7.375,0,0,2.458,8.357,0,13.275,0,0,11.31-3.935,28.025.49l-1.476,2.95s16.719,1.967,20.65,4.425c0,0-9.343.493-9.343,2.95,0,0,61.952,9.344,59.493,60.477l-5.9-3.934s-19.667,4.917-41.3,4.917-40.318-2.949-55.068-2.949-26.058,2.459-26.058,2.459c0,0-14.75,11.309-22.125,14.258l-1.969-7.375s-29.991,4.426-35.892,32.451c0,0-9.833-15.242-2.459-30.976,0,0-14.257,3.933-16.224,3.44,0,0,18.693-30.483-28.518-30.483-23.6,0-39.825,6.884-39.825,6.884,0,0,13.766-18.193-10.325-18.193s-38.35,8.359-38.35,8.359c0,0,41.819-53.591,1.967-53.591-33.433-.002-54.575,13.273-54.575,13.273Z"/>
        <path d="M266.977,85.551s-32.449-5.9-46.463,2.213c0,0,36.139,0,50.15,8.112,0,0-64.163-8.85-90.713,12.538,0,0,39.088-9.587,69.326-6.639,0,0-11.064,4.426.738,11.801,11.799,7.375,19.174,8.85,16.225,21.388l6.144-9.096,6.885,6.884s17.699-1.475,29.99,0c12.292,1.475,29.009,2.95,38.351,2.95s34.911-3.441,34.911-3.441c0,0-53.591-21.142-101.776-21.142-5.411,0-11.311.982-7.868,6.883,0,0-16.718-8.241-16.718-12.666s12.784-2.084,12.784-2.084c5.9,0,112.101,10.816,122.917,29.992,0,0,0-43.759-88.009-52.609l9.833,8.36-15.731-1.475,9.343,8.357s-24.587-8.358-40.319-10.326Z" fill="#fff"/>
        <path d="M44.988,63.426S93.664,14.75,176.264,14.75c72.276,0,103.25,40.563,103.25,40.563,0,0,13.275,19.913,5.9,27.288s-8.85-18.438-27.288-24.338l15.488,5.163s-16.962-22.125-45.726-16.963c0,0,16.225,3.688,20.649,8.85,0,0-36.138,3.688-37.613,6.638,0,0,28.025,5.9,29.5,10.325,0,0-26.55.737-33.925,7.375,0,0,49.413,2.212,60.476,5.9,0,0-32.451-5.9-46.463,2.213,0,0,36.137,0,50.149,8.112,0,0-64.163-8.85-90.713,12.538,0,0,39.088-9.587,69.325-6.639,0,0-11.062,4.426.738,11.801,11.801,7.375,19.176,8.85,16.226,21.388,0,0-5.9,8.851-14.75,12.538l-.738-10.325s-28.024,2.214-40.563,28.025c0,0,2.213-21.388,8.113-26.55l-16.225,5.162s16.225-26.549-24.338-28.763c-40.563-2.213-42.775,4.425-42.775,4.425,0,0,5.163-19.913-40.563-11.8,0,0,43.513-71.539-49.413-44.251Z" fill="#2d2062"/>
        <path d="M210.659,32.6c-4.483-6.553-15.492-9.737-33.657-9.737-51.367,0-80.457,14.615-81.67,15.237l-19.773,10.881,22.751-2.623c.383-.085,32.271-7.094,57.629-7.748-34.125,4.315-46.178,60.506-46.696,63.005l-1.161,5.601,52.787-2.597s1.104-1.494,1.276-1.726c2.164-2.41,17.521-9.511,30.513-14.707l1.649-.66,4.694-10.328.086-.648c.072-.539.107-1.072.107-1.599,0-2.752-.974-5.325-2.861-7.516-2.353-2.731-6.053-4.644-10.074-5.991,19.876-4.937,25.571-18.599,25.825-19.236.206-.526,1.772-4.931-1.425-9.607ZM144.35,92.606c2.672-7.345,8.385-20.127,9.776-23.949,2.796,0,17.12-.807,17.12,7.552,0,3.933-6.576,16.475-26.896,16.397ZM158.708,57.87c2.578-5.156,7.334-17.424,8.382-19.52,3.418.478,16.367,1.773,15.566,7.375-.984,6.884-8.072,12.218-9.834,13.029l-14.114-.884Z" fill="#fff"/>
        <path d="M165.939,62.688l-13.158-.737,7.995-19.175c-34.663-.737-47.2,59.738-47.2,59.738l44.988-2.212c2.95-4.425,32.45-16.226,32.45-16.226l3.688-8.112c1.703-12.792-28.763-13.276-28.763-13.276ZM175.527,78.176c-7.057,19.139-33.188,19.175-37.613,19.175l14.168-33.103s29.056-1.29,23.445,13.928ZM177.002,27.288c-50.888,0-79.651,14.75-79.651,14.75,0,0,46.463-10.325,73.013-7.375,34.646,3.849,8.85,23.6,8.85,23.6,22.863-2.95,28.764-17.7,28.764-17.7,0,0,5.162-13.275-30.976-13.275Z" fill="#d1b336"/>
        <path d="M255.179,62.772c4.643,0,8.406,3.467,8.406,7.744s-3.764,7.744-8.406,7.744-8.408-3.467-8.408-7.744,3.765-7.744,8.408-7.744Z" fill="#c6332c"/>
        <path d="M256.899,63.919c4.209,0,7.621,3.522,7.621,7.866s-3.412,7.866-7.621,7.866-7.623-3.521-7.623-7.866,3.413-7.866,7.623-7.866Z" fill="#fff"/>
        <ellipse cx="258.374" cy="72.276" rx="6.146" ry="5.9" fill="#c6332c"/>
        <path d="M259.849,66.375c2.851,0,5.162,2.531,5.162,5.654s-2.311,5.654-5.162,5.654-5.164-2.532-5.164-5.654,2.312-5.654,5.164-5.654Z"/>
      </g>
    </g>
  </g>
</svg>