<svg width="40" height="20" viewBox="0 0 40 20" fill="none" xmlns="http://www.w3.org/2000/svg">
<g id="Group">
<g id="BALTIMORE_RAVENS">
<g id="Group_2">
<path id="Vector" d="M29.9717 3.68024C29.9717 4.44698 29.6618 4.92006 29.6618 4.92006C29.32 3.66687 27.5576 2.01646 27.5576 2.01646C27.8674 2.40797 27.7696 3.19098 27.7696 3.19098C27.6552 3.09313 26.7883 2.52306 26.7883 2.52306C25.0727 1.29797 22.2519 0.0273438 17.9276 0.0273438C6.99184 0.0273438 2.36914 7.05983 2.1777 7.3593C2.1777 7.3593 1.11247 8.88744 0.82666 9.74486L3.15778 8.35061C3.17676 8.33869 5.09525 7.1726 8.06715 7.1726C8.29783 7.1726 8.84755 7.19963 8.9703 7.45085C9.26338 8.05066 8.35005 9.87943 7.31311 11.211L5.08731 14.0691L8.23467 12.2686C8.24716 12.2614 9.50607 11.555 11.5921 11.555C12.0132 11.555 12.194 11.6233 12.2554 11.6547C12.2485 11.7687 12.1407 12.0121 12.0204 12.1749L10.4779 14.2602L12.8699 13.2614C12.8845 13.2554 14.3538 12.6506 16.4508 12.6506C17.6852 12.6506 18.5299 12.8914 18.7684 13.3115C18.9891 13.7001 18.7156 14.3297 18.6023 14.5195L18.1094 15.3455L19.0405 15.5826C19.1453 15.6087 19.2783 15.6407 19.8162 15.5319C19.8115 15.6083 19.8051 15.6853 19.8051 15.7596C19.8051 16.967 20.389 17.8914 20.4232 17.9446L21.3652 19.4041L21.7229 17.7043C22.0395 16.2003 23.2439 15.549 23.9938 15.2846C23.9943 15.2864 24.2089 16.0902 24.2089 16.0902L24.9572 15.7911C25.629 15.5224 26.7348 14.7154 27.1333 14.4166C27.4584 14.3577 28.3146 14.2224 29.3597 14.2224C29.9774 14.2224 30.7006 14.2808 31.4662 14.3426C32.428 14.4202 33.5182 14.5082 34.6949 14.5082C36.3749 14.5082 37.9144 14.2199 38.5553 14.0823C38.7116 14.1865 39.921 14.9928 39.921 14.9928L39.9816 13.7329C39.9868 13.6263 39.9892 13.5212 39.9892 13.4175C39.9892 10.7795 38.3571 9.11037 36.5879 8.14948C36.5981 8.1488 36.6992 8.14338 36.6992 8.14338L34.7879 6.94783C34.5233 6.78245 34.0056 6.65544 33.4888 6.56224C33.5232 6.49306 33.5833 6.37331 33.5833 6.37331L32.7342 6.14845C31.8974 5.92697 31.1798 5.90071 30.641 5.93705C30.9013 4.57729 29.9717 3.68014 29.9717 3.68014L29.9717 3.68024Z" fill="#D1B336"/>
<path id="Vector_2" d="M2.77949 7.74454C2.77949 7.74454 7.25716 0.742188 17.9274 0.742188C25.7871 0.742188 28.4072 5.12452 28.4072 5.12452C28.4072 5.12452 28.5501 4.45777 28.3594 4.1242C28.3594 4.1242 29.2646 5.07705 29.3121 6.22037C29.3121 6.22037 29.8362 5.69633 29.8362 5.50585C29.8362 5.50585 30.0743 6.31551 29.8362 6.79198C29.8362 6.79198 30.9319 6.41075 32.5513 6.83946L32.4083 7.12526C32.4083 7.12526 34.0281 7.31583 34.409 7.55397C34.409 7.55397 33.5038 7.60174 33.5038 7.83978C33.5038 7.83978 39.5059 8.74506 39.2677 13.699L38.6961 13.3179C38.6961 13.3179 36.7907 13.7942 34.6948 13.7942C32.5989 13.7942 30.7886 13.5085 29.3596 13.5085C27.9306 13.5085 26.835 13.7468 26.835 13.7468C26.835 13.7468 25.406 14.8424 24.6915 15.1281L24.5007 14.4136C24.5007 14.4136 21.5951 14.8424 21.0233 17.5576C21.0233 17.5576 20.0707 16.0809 20.7851 14.5565C20.7851 14.5565 19.4038 14.9376 19.2133 14.8898C19.2133 14.8898 21.0243 11.9365 16.4503 11.9365C14.1639 11.9365 12.592 12.6034 12.592 12.6034C12.592 12.6034 13.9257 10.8408 11.5916 10.8408C9.25761 10.8408 7.87615 11.6507 7.87615 11.6507C7.87615 11.6507 11.9277 6.45861 8.06672 6.45861C4.82761 6.45841 2.7793 7.74454 2.7793 7.74454H2.77949Z" fill="black"/>
<path id="Vector_3" d="M26.6921 8.31612C26.6921 8.31612 23.5484 7.74451 22.1906 8.53053C22.1906 8.53053 25.6919 8.53053 27.0493 9.31645C27.0493 9.31645 20.833 8.45903 18.2607 10.5312C18.2607 10.5312 22.0477 9.60235 24.9773 9.88796C24.9773 9.88796 23.9054 10.3168 25.0488 11.0313C26.1919 11.7458 26.9064 11.8887 26.6207 13.1034L27.216 12.2222L27.883 12.8891C27.883 12.8891 29.5978 12.7462 30.7886 12.8891C31.9795 13.032 33.5991 13.1749 34.5041 13.1749C35.4092 13.1749 37.8864 12.8416 37.8864 12.8416C37.8864 12.8416 32.6944 10.7932 28.026 10.7932C27.5018 10.7932 26.9302 10.8884 27.2637 11.4601C27.2637 11.4601 25.644 10.6617 25.644 10.233C25.644 9.80425 26.8826 10.0311 26.8826 10.0311C27.4542 10.0311 37.7433 11.079 38.7912 12.9368C38.7912 12.9368 38.7912 8.69726 30.2646 7.83984L31.2173 8.64979L29.6932 8.50689L30.5984 9.31654C30.5984 9.31654 28.2163 8.50679 26.6921 8.31612Z" fill="white"/>
<path id="Vector_4" d="M5.18535 6.17294C5.18535 6.17294 9.90125 1.45703 17.9038 1.45703C24.9062 1.45703 27.9071 5.38692 27.9071 5.38692C27.9071 5.38692 29.1932 7.31616 28.4787 8.03068C27.7642 8.74519 27.6213 6.24434 25.8349 5.67273L27.3354 6.17294C27.3354 6.17294 25.6921 4.02939 22.9053 4.5295C22.9053 4.5295 24.4773 4.88681 24.9059 5.38692C24.9059 5.38692 21.4047 5.74423 21.2618 6.03003C21.2618 6.03003 23.977 6.60164 24.1199 7.03035C24.1199 7.03035 21.5476 7.10176 20.8331 7.74487C20.8331 7.74487 25.6204 7.95918 26.6922 8.31648C26.6922 8.31648 23.5483 7.74487 22.1907 8.53089C22.1907 8.53089 25.6918 8.53089 27.0494 9.31681C27.0494 9.31681 20.833 8.45939 18.2608 10.5315C18.2608 10.5315 22.0477 9.60271 24.9772 9.88832C24.9772 9.88832 23.9055 10.3171 25.0487 11.0316C26.192 11.7462 26.9065 11.8891 26.6207 13.1038C26.6207 13.1038 26.0491 13.9613 25.1917 14.3185L25.1202 13.3182C25.1202 13.3182 22.4051 13.5327 21.1903 16.0334C21.1903 16.0334 21.4047 13.9612 21.9763 13.4611L20.4044 13.9612C20.4044 13.9612 21.9763 11.389 18.0464 11.1745C14.1166 10.9601 13.9023 11.6033 13.9023 11.6033C13.9023 11.6033 14.4025 9.67402 9.97237 10.46C9.97237 10.46 14.1881 3.52908 5.18506 6.17284L5.18535 6.17294Z" fill="#2D2062"/>
<path id="Vector_5" d="M21.2359 3.18554C20.8016 2.55066 19.735 2.24219 17.9751 2.24219C12.9985 2.24219 10.1802 3.65814 10.0627 3.7184L8.14697 4.77259L10.3512 4.51847C10.3883 4.51023 13.4777 3.83117 15.9345 3.76781C12.6283 4.18587 11.4606 9.62985 11.4104 9.87196L11.2979 10.4146L16.4121 10.163C16.4121 10.163 16.5191 10.0183 16.5357 9.99578C16.7454 9.76229 18.2332 9.07432 19.4919 8.57091L19.6517 8.50697L20.1065 7.50635L20.1148 7.44357C20.1218 7.39135 20.1252 7.33972 20.1252 7.28866C20.1252 7.02203 20.0308 6.77275 19.848 6.56048C19.62 6.29589 19.2615 6.11055 18.872 5.98005C20.7976 5.50174 21.3494 4.17811 21.374 4.1164C21.394 4.06544 21.5457 3.63867 21.2359 3.18564V3.18554ZM14.8117 8.99914C15.0706 8.28753 15.6241 7.04916 15.7588 6.67887C16.0297 6.67887 17.4175 6.60069 17.4175 7.41054C17.4175 7.79158 16.7804 9.00669 14.8117 8.99914ZM16.2027 5.63379C16.4525 5.13426 16.9133 3.94569 17.0148 3.74262C17.346 3.78893 18.6005 3.9144 18.5229 4.45714C18.4276 5.12409 17.7409 5.64086 17.5702 5.71943L16.2027 5.63379Z" fill="white"/>
<path id="Vector_6" d="M16.9033 6.10155L15.6286 6.03015L16.4031 4.17241C13.0449 4.101 11.8302 9.96004 11.8302 9.96004L16.1888 9.74573C16.4746 9.31702 19.3327 8.1737 19.3327 8.1737L19.69 7.38778C19.855 6.14844 16.9033 6.10155 16.9033 6.10155ZM17.8323 7.60209C17.1486 9.45634 14.6169 9.45983 14.1882 9.45983L15.5608 6.25269C15.5608 6.25269 18.3759 6.12771 17.8323 7.60209ZM17.9752 2.67188C13.045 2.67188 10.2583 4.10091 10.2583 4.10091C10.2583 4.10091 14.7598 3.10058 17.3321 3.38639C20.6887 3.7593 18.1895 5.67284 18.1895 5.67284C20.4045 5.38704 20.9762 3.958 20.9762 3.958C20.9762 3.958 21.4764 2.67188 17.9752 2.67188Z" fill="#D1B336"/>
<path id="Vector_7" d="M25.5495 6.10938C25.9993 6.10938 26.3639 6.44527 26.3639 6.85964C26.3639 7.27401 25.9992 7.60991 25.5495 7.60991C25.0997 7.60991 24.7349 7.27401 24.7349 6.85964C24.7349 6.44527 25.0996 6.10938 25.5495 6.10938Z" fill="#C6332C"/>
<path id="Vector_8" d="M25.7161 6.2207C26.1239 6.2207 26.4544 6.56193 26.4544 6.98279C26.4544 7.40365 26.1239 7.74488 25.7161 7.74488C25.3083 7.74488 24.9775 7.40375 24.9775 6.98279C24.9775 6.56183 25.3082 6.2207 25.7161 6.2207Z" fill="white"/>
<path id="Vector_9" d="M25.8586 7.60221C26.1875 7.60221 26.4541 7.34629 26.4541 7.0306C26.4541 6.7149 26.1875 6.45898 25.8586 6.45898C25.5298 6.45898 25.2632 6.7149 25.2632 7.0306C25.2632 7.34629 25.5298 7.60221 25.8586 7.60221Z" fill="#C6332C"/>
<path id="Vector_10" d="M26.0018 6.45898C26.278 6.45898 26.5019 6.7042 26.5019 7.00676C26.5019 7.30933 26.278 7.55454 26.0018 7.55454C25.7256 7.55454 25.5015 7.30923 25.5015 7.00676C25.5015 6.70429 25.7255 6.45898 26.0018 6.45898Z" fill="black"/>
</g>
</g>
</g>
</svg>
