<svg width="168" height="68" viewBox="0 0 168 68" fill="none" xmlns="http://www.w3.org/2000/svg">
<g id="Group">
<path id="Vector" d="M141.385 45.3653L141.625 45.6884L142.139 46.27L142.447 46.9809C143.545 49.8891 143.819 52.3448 143.785 54.219C143.75 55.3176 143.51 56.4486 143.305 57.1918C143.099 57.9996 142.207 60.52 142.207 60.52L138.95 60.3907C135.179 60.2938 131.921 59.5829 129.692 58.8397C128.081 58.355 126.949 57.9026 126.332 57.6441C122.698 56.6748 118.549 53.9928 115.737 51.9571C113.714 50.4707 111.966 49.0812 110.937 48.2734C109.874 48.1765 108.537 48.2734 107.234 48.4996C105.794 48.7581 104.697 49.1135 104.663 49.1135C101.748 50.0506 101.714 51.3108 102.091 52.668C102.571 54.5421 104.045 56.4486 104.388 56.804L107.817 60.7785L102.948 63.105C95.165 66.7887 88.8903 66.6594 84.2615 65.1084L81.8271 66.0455C78.9469 67.1441 76.1353 67.4996 74.0781 67.5642C72.2265 67.6611 70.8893 67.5319 70.5122 67.4996C64.9576 67.1441 56.5914 64.2036 50.1796 61.7156C43.425 59.0336 32.3844 53.8312 32.3844 53.8312L35.0588 51.3108C32.5901 50.1799 29.8128 48.8227 27.3098 47.4979C21.961 44.7836 9.51456 37.9656 9.51456 37.9656L18.9436 34.3466C17.7436 33.4418 16.5092 32.5371 15.3092 31.6323C10.8518 28.3041 0.222656 20.2582 0.222656 20.2582L7.97163 17.8994C14.6234 15.896 27.8584 13.0847 38.2818 10.9844L34.8531 9.78884L45.9623 5.94361C51.6883 4.03715 62.0774 3.13239 70.375 2.68001C72.0894 2.58307 73.7352 2.51845 75.2781 2.45382C75.5182 2.29226 75.7924 2.1307 75.9981 2.00145C76.581 1.67832 77.3011 1.3875 78.0554 1.09668C79.3584 0.611991 81.6213 -0.00195312 81.6213 -0.00195312L82.5471 0.385804C83.9529 0.353491 86.7301 0.288864 91.9418 0.062674C106.823 -0.518957 117.932 4.23103 118.172 4.36028C126.538 7.65619 132.95 8.98102 137.167 9.53033C139.19 9.78884 141.316 9.78884 142.962 9.72421C144.642 9.65958 150.196 9.07796 150.196 9.07796L148.345 13.9895C159.248 16.1222 163.054 20.6459 163.946 22.0354C167.237 27.0439 167.683 31.5354 167.066 34.9282C166.792 36.6085 166.243 37.901 165.729 38.8704C165.317 39.6459 164.974 40.1629 164.803 40.4537C160.551 46.3023 155.785 48.6289 151.465 48.8874C149.374 49.0166 147.693 48.6612 146.493 48.2411C145.636 47.9826 144.573 47.3363 143.922 46.9809C143.545 46.787 142.448 46.0438 141.419 45.3976L141.385 45.3653Z" fill="#DADEDE"/>
<path id="Vector_2" d="M145.224 38.2883C145.224 38.2883 145.087 38.2237 144.984 38.1914C144.641 38.0945 144.161 38.0298 143.612 37.9975C142.515 37.9006 141.315 37.9006 140.835 37.9652H140.492L140.149 37.9329C137.886 37.5451 136.858 39.1931 136.549 39.7747C136.412 40.9703 137.132 42.6183 138.092 44.137C139.052 45.688 140.046 46.8512 140.115 46.9482L140.389 47.2713L140.526 47.6591C141.555 50.3733 141.795 52.6029 141.761 54.2509C141.761 55.1556 141.521 56.0927 141.315 56.8682C141.144 57.5791 140.766 58.6454 140.766 58.6454H138.949C135.418 58.4839 132.4 57.773 130.274 57.1267C128.629 56.642 127.497 56.1573 127.051 55.9311C123.76 55.1556 119.817 52.6029 116.902 50.5026C114.571 48.8223 112.651 47.239 111.828 46.5604C110.285 46.2373 108.399 46.4312 106.856 46.6897C105.244 46.9482 104.01 47.3683 103.976 47.3683C99.9642 48.6285 99.5527 50.955 100.101 53.1522C100.684 55.4788 102.433 57.6114 102.776 58.0315L104.662 60.2288L101.987 61.489C94.3754 65.0757 88.5464 64.7849 84.4662 63.2662C83.7462 63.04 83.129 62.7168 82.5461 62.3937L82.4775 63.8478L81.0718 64.3648C78.5002 65.3665 75.86 65.6573 73.9742 65.7542C72.2598 65.7866 71.0255 65.6896 70.7512 65.6573C65.5395 65.3988 57.4476 62.5876 50.933 60.0026C44.2469 57.3529 35.7436 53.3461 35.7436 53.3461L38.5209 50.7288C35.5379 49.5009 31.6976 47.6267 28.2689 45.8495C22.9543 43.1353 14.0053 38.256 14.0053 38.256L22.8858 34.8309C21 33.506 18.7027 31.7935 16.5425 30.1778C12.1195 26.8496 4.33618 21.001 4.33618 21.001L8.58786 19.7408C16.714 17.2527 34.7835 13.569 45.4127 11.5333L40.6124 9.85305L46.6814 7.75271C52.0988 5.91088 62.145 5.03843 70.5112 4.58605C72.4656 4.48911 74.3514 4.39217 76.1344 4.32755C76.2029 4.26292 76.2372 4.1983 76.3058 4.16599C76.5115 4.00442 76.7858 3.81055 77.0258 3.6813C77.5058 3.39048 78.1573 3.13197 78.8088 2.90578C80.0431 2.4534 81.5518 2.03334 81.5518 2.03334L82.169 2.32416C83.4719 2.32416 86.2491 2.25953 92.0437 2.00103C106.479 1.45171 117.245 6.00782 117.417 6.07244C125.954 9.46529 132.537 10.8547 136.96 11.4364C139.121 11.6949 141.349 11.6949 143.064 11.6302C144.812 11.5656 147.281 11.2748 147.281 11.2748L145.67 15.4432L147.59 15.734C158.356 17.7374 161.648 22.035 162.23 22.9721C165.282 27.5928 165.659 31.5996 165.111 34.5724C164.836 36.0264 164.356 37.1897 163.945 37.9975C163.568 38.6761 163.293 39.0962 163.156 39.29C159.145 44.8155 154.927 46.722 151.327 46.9159C149.613 47.0128 148.173 46.722 147.144 46.3665C146.527 46.1727 145.635 45.688 144.95 45.3002C144.264 44.8802 142.858 43.9754 142.858 43.9754L145.087 42.0689C145.875 41.3904 145.978 40.5825 145.875 39.9363C145.841 39.5808 145.738 39.29 145.67 39.0639C145.601 38.9669 145.567 38.87 145.532 38.8053L145.327 38.4176L145.258 38.2237L145.224 38.2883Z" fill="#1A3833"/>
<g id="Group_2">
<path id="Vector_3" d="M142.481 17.2205L143.716 13.9569C143.716 13.9569 133.909 15.0879 116.388 8.10833C116.388 8.10833 105.999 3.68147 92.1472 4.23079C78.295 4.78011 81.3466 4.39235 81.3466 4.39235L86.2155 6.2665C86.2155 6.2665 57.4825 6.39575 47.4705 9.82091L53.9851 12.1474C53.9851 12.1474 21.1377 18.2222 9.27417 21.809C9.27417 21.809 26.3494 34.7664 27.8238 35.348L19.4233 38.6116C19.4233 38.6116 38.1786 48.8548 42.876 49.8242L39.7901 52.7C39.7901 52.7 61.597 62.9432 70.9918 63.3633C70.9918 63.3633 75.6892 63.9449 80.1808 62.2323L80.3865 57.8055C80.3865 57.8055 86.8669 66.1099 100.959 59.4211C100.959 59.4211 91.8044 48.7902 103.256 45.2035C103.256 45.2035 108.948 43.297 113.028 44.4603C113.028 44.4603 122.389 52.5708 127.909 53.734C127.909 53.734 132.607 56.0283 139.121 56.2544C139.121 56.2544 140.15 53.1847 138.333 48.3378C138.333 48.3378 133.464 42.9739 134.252 39.1286C134.252 39.1286 135.932 34.8957 140.596 35.6712C140.596 35.6712 146.939 35.1219 147.487 37.6099C147.487 37.6099 149.75 41.0674 146.664 43.7494C146.664 43.7494 153.865 48.2409 161.202 38.03C161.202 38.03 165.694 32.4722 160.208 24.2001C160.208 24.2001 157.774 19.9671 147.144 17.9961L142.447 17.2205H142.481Z" fill="#221E1F"/>
<path id="Vector_4" d="M55.391 14.0859C55.391 14.0859 30.9096 17.6727 21.6863 23.392C21.6863 23.392 27.9952 28.7883 35.5385 31.7288C35.5385 31.7288 64.3743 21.2271 71.3004 21.2594L74.9692 21.0978C74.9692 21.0978 40.0302 31.1794 33.0698 38.4498C33.0698 38.4498 38.7615 44.0399 48.1563 45.6233C48.1563 45.6233 68.7974 31.4379 89.1985 31.8903L94.2731 31.7288C94.2731 31.7288 66.363 34.3461 53.2308 51.0518C53.2308 51.0518 57.9282 55.0909 72.1576 58.2253C72.1576 58.2253 75.2777 39.3869 109.325 39.8716L55.3567 14.1506L55.391 14.0859Z" fill="#DADEDE"/>
<g id="Group_3">
<path id="Vector_5" d="M107.507 41.5209C107.507 41.5209 91.5978 38.6127 82.4087 53.5736C82.4087 53.5736 83.6088 55.8678 90.9463 56.8695C90.9463 56.8695 89.7462 43.7828 107.507 41.5209Z" fill="#DADEDE"/>
<path id="Vector_6" d="M91.7703 57.6766L90.8446 57.5473C83.3356 56.5456 81.8955 54.1545 81.7584 53.8637L81.5869 53.5405L81.7926 53.2174C91.1531 37.998 107.543 40.8093 107.68 40.8416V42.231C90.8103 44.3637 91.6675 56.3194 91.7018 56.8364L91.7703 57.7089V57.6766ZM83.3013 53.5405C83.8499 54.0898 85.5986 55.3177 90.1931 56.0609C90.296 53.4113 91.4617 45.4946 101.714 42.1018C96.502 42.5865 88.7873 44.913 83.267 53.5405H83.3013Z" fill="#CBCED3"/>
</g>
<g id="Group_4">
<path id="Vector_7" d="M110.766 27.2044L113.646 25.5241C113.646 25.5241 112 24.4901 109.977 23.1007C108.571 22.099 106.857 21.8082 106.857 21.8082C106.857 21.8082 107.406 21.2912 108.091 21.1619C109.292 20.9357 110.114 21.065 110.114 21.065C110.114 21.065 106.206 16.1534 98.6966 15.3779C91.2219 14.6024 96.7766 20.7418 99.1081 22.5837C101.405 24.3609 109.977 27.8507 109.977 27.8507L110.766 27.2367V27.2044Z" fill="#CBCED3"/>
<path id="Vector_8" d="M110.08 28.6257L109.668 28.4641C109.326 28.3349 100.959 24.9097 98.6278 23.1002C97.462 22.1954 93.3132 18.3179 94.3418 15.9914C95.0962 14.3111 97.8735 14.6019 98.765 14.6989C106.48 15.5067 110.526 20.4506 110.697 20.6444L111.829 22.0662L109.977 21.7431C109.977 21.7431 109.566 21.6784 108.914 21.7431C109.394 21.9369 109.908 22.2278 110.388 22.5509C112.411 23.9403 114.023 24.942 114.023 24.9744L114.983 25.5883L111.177 27.8179L110.08 28.6903V28.6257ZM97.4963 15.9914C96.502 15.9914 95.8505 16.1853 95.7133 16.5084C95.2333 17.5747 97.6677 20.5475 99.5535 22.0016C101.474 23.488 108.091 26.2992 109.84 27.01L110.354 26.6223L112.24 25.5237C111.554 25.0713 110.594 24.425 109.497 23.6818C108.228 22.8094 106.685 22.5186 106.685 22.4863L105.314 22.2278L106.308 21.2907C106.308 21.2907 107.028 20.6121 107.92 20.4505C108.091 20.4182 108.263 20.3859 108.434 20.3536C106.857 18.9318 103.497 16.5407 98.5935 16.0237C98.182 15.9914 97.8049 15.9591 97.4963 15.9591V15.9914Z" fill="#CBCED3"/>
</g>
<g id="Group_5">
<path id="Vector_9" d="M119.234 22.9414L120.64 23.4261C120.64 23.4261 120.915 24.4924 120.194 24.7509C119.509 25.0741 118.994 25.3326 118.994 25.3326C118.994 25.3326 119.783 24.1047 119.2 22.9414H119.234Z" fill="white"/>
<path id="Vector_10" d="M119.371 25.9459L118.377 24.9765C118.377 24.9765 118.96 24.0394 118.549 23.2316L117.794 21.7129L121.257 22.8761L121.36 23.2316C121.532 23.8455 121.532 24.9765 120.469 25.3966C119.851 25.6551 119.371 25.9459 119.371 25.9459Z" fill="white"/>
</g>
<path id="Vector_11" d="M138.813 15.6694C138.813 15.6694 131.886 17.1558 119.92 11.9857C119.92 11.9857 107.165 6.68641 99.1418 6.52484C94.6844 6.46022 89.0613 6.36328 89.0613 6.36328L94.1359 8.07586C94.1359 8.07586 75.0034 7.81736 56.831 10.4347L67.2201 12.5997C67.2201 12.5997 43.7331 14.4415 29.8467 24.7816C29.8467 24.7816 47.1962 19.45 54.1223 19.6762C54.1223 19.6762 43.7332 22.7136 39.8244 26.1387C39.8244 26.1387 61.2541 18.7068 80.4208 20.0962C80.4208 20.0962 59.4025 24.0707 45.6875 38.4499C45.6875 38.4499 57.3453 29.4346 76.3406 27.9806C76.3406 27.9806 66.9458 30.6625 65.5057 33.5384C65.5057 33.5384 75.1063 28.9499 94.273 31.6965L97.736 32.2782C97.736 32.2782 76.9921 33.7646 71.4375 42.0043C71.4375 42.0043 84.0896 34.3785 98.1475 35.154C98.1475 35.154 89.3699 36.4788 85.4954 40.7118C85.4954 40.7118 92.6615 37.0928 103.051 37.4805C103.051 37.4805 106.102 38.0622 109.36 39.8071H110.765C110.765 39.8071 106.068 37.319 105.279 36.3496C105.279 36.3496 121.6 37.8683 126.332 27.3666C126.332 27.3666 123.246 30.6302 119.371 30.7918C119.371 30.7918 124.48 28.8853 124.103 25.7833C124.103 25.7833 124.24 24.5231 125.475 23.3598L124.309 23.4891H122.903C122.903 23.4891 123.726 27.5282 120.057 28.4976C120.057 28.4976 117.246 29.6285 113.783 28.4653C108.4 26.6557 107.062 23.166 107.062 23.166C107.062 23.166 104.731 22.5843 103.736 22.4228C102.125 22.0996 97.2903 20.8394 97.2903 20.8394C97.2903 20.8394 102.091 21.0333 103.839 21.1626C105.348 21.2595 107.234 21.001 106.377 20.5809C105.588 20.1932 103.051 17.7697 102.536 17.5112C101.919 17.2204 101.062 16.1864 99.279 15.7663C96.296 15.1524 92.1471 15.1847 92.1471 15.1847L88.2727 15.5724C88.2727 15.5724 88.6842 14.4092 93.9645 14.0537C98.0447 13.7629 100.891 13.666 102.536 13.8922C104.182 14.0537 105.588 14.2799 108.845 15.217C112.103 16.2187 113.303 17.1558 113.303 17.1558C113.303 17.1558 113.92 17.7374 113.508 16.1864C113.097 14.6354 112.103 14.4415 112.103 14.4415C112.103 14.4415 114.948 14.6354 115.943 15.9925C116.971 17.3496 118.994 19.4823 121.017 19.87C123.04 20.2901 128.183 21.2272 132.264 19.87C136.344 18.5452 138.195 16.6064 138.813 15.6694Z" fill="white"/>
<path id="Vector_12" d="M149.545 42.9096C149.545 42.9096 163.637 40.7446 157.637 26.7209C157.637 26.7209 154.414 22.1001 145.191 21.1954C145.191 21.1954 138.059 20.5814 137.339 20.6783C137.339 20.6783 134.904 22.5848 130.893 23.6188C130.893 23.6188 126.675 36.7055 112.617 38.3858C112.617 38.3858 119.715 51.0847 137.442 54.316C137.442 54.316 138.642 48.1443 132.436 42.748L132.196 39.3552L131.373 38.5474C131.373 38.5474 129.83 39.9045 130.927 42.5218C130.927 42.5218 135.179 48.4351 135.384 49.6953C135.556 50.9555 135.693 51.6017 135.693 51.6017C135.693 51.6017 129.11 52.248 118.755 40.8739C118.755 40.8739 127.43 32.7957 136.516 31.9232C136.516 31.9232 145.774 30.9861 148.551 32.9249C148.551 32.9249 155.683 34.7667 149.408 42.6511L149.511 42.9096H149.545Z" fill="#DADEDE"/>
<path id="Vector_13" d="M138.059 55.1234L137.339 54.9941C119.475 51.7628 112.069 38.8377 112 38.7084L111.52 37.8037L112.583 37.6744C126.024 36.0588 130.207 23.5214 130.241 23.3922L130.344 23.0367L130.756 22.9398C134.527 21.9704 136.893 20.1609 136.927 20.1286L137.099 19.9993H137.304C138.059 19.8378 143.648 20.3224 145.328 20.484C154.757 21.3888 158.186 26.1064 158.323 26.3003C160.38 31.0503 160.449 34.9602 158.597 38.0299C155.854 42.586 149.957 43.5554 149.717 43.5877L149.477 42.1982C149.477 42.1982 154.963 41.2935 157.328 37.319C158.94 34.637 158.837 31.1472 157.02 26.9466C157.02 26.9466 153.797 22.7136 145.191 21.8735C142.07 21.615 138.607 21.3565 137.716 21.3565C137.064 21.8411 134.87 23.2952 131.578 24.2C130.756 26.3326 126.127 36.8989 113.92 38.9346C115.84 41.7459 122.904 50.6642 136.893 53.5077C136.996 51.7951 136.722 47.3683 132.024 43.2646L133.019 42.2305C139.465 47.8207 138.299 54.1863 138.265 54.4448L138.127 55.1234H138.059Z" fill="#CBCED3"/>
<path id="Vector_14" d="M131.715 42.7793L131.475 39.6449L130.823 38.9987L131.886 38.0293L132.915 39.031L133.189 42.6823L131.715 42.7793Z" fill="#CBCED3"/>
<path id="Vector_15" d="M135.486 52.2788C134.081 52.2788 127.635 51.6649 118.206 41.2925L117.76 40.8078L118.24 40.3554C118.617 40.0323 127.223 32.0833 136.447 31.2109C137.407 31.1139 145.876 30.3384 148.893 32.2772C149.476 32.4711 151.705 33.2789 152.459 35.4438C153.213 37.5119 152.39 40.0646 150.024 43.0697L148.824 42.2295C150.847 39.6768 151.636 37.4795 151.053 35.8962C150.436 34.1513 148.344 33.602 148.344 33.5697L148.104 33.4727C146.047 32.051 139.087 32.3741 136.584 32.6003C129.075 33.3112 121.737 39.2244 119.749 40.9047C127.395 49.1122 132.846 50.5662 134.801 50.8247C134.766 50.5339 134.698 50.1785 134.629 49.7584C134.526 49.1122 132.332 45.7516 130.275 42.9081C128.938 39.7738 130.721 38.0935 130.823 38.0289L131.852 39.0306L131.338 38.5136L131.852 38.9983C131.852 38.9983 130.72 40.1292 131.578 42.2295C132.229 43.102 135.864 48.2074 136.104 49.5322C136.275 50.7924 136.412 51.4387 136.412 51.4387L136.549 52.1496L135.761 52.2142C135.761 52.2142 135.624 52.2142 135.486 52.2142V52.2788Z" fill="#CBCED3"/>
<g id="Group_6">
<path id="Vector_16" d="M138.779 24.3301H133.91C134.321 25.7195 131.955 27.2705 131.955 27.2705C133.704 27.012 135.83 26.6243 136.961 26.3335C138.23 25.978 139.807 24.9763 138.779 24.3301Z" fill="#221E1F"/>
<path id="Vector_17" d="M132.058 27.9814L131.509 26.7212C132.126 26.3011 133.395 25.2025 133.189 24.4916L132.949 23.6191H139.018L139.19 23.7807C139.67 24.1038 139.91 24.5562 139.841 25.0409C139.67 26.1072 138.024 26.8181 137.167 27.0443C135.967 27.3351 133.738 27.7229 132.058 27.9814ZM134.664 25.0086C134.595 25.4287 134.389 25.8487 134.115 26.2042C135.144 26.0103 136.138 25.8487 136.755 25.6872C137.338 25.5256 137.818 25.2671 138.127 25.0409H134.664V25.0086Z" fill="#221E1F"/>
</g>
<g id="Group_7">
<path id="Vector_18" d="M111.485 19.5156L113.097 20.9051C113.097 20.9051 112.994 20.6789 112.96 21.8421C112.96 22.9731 112.857 24.1364 113.371 25.0411C113.92 25.9459 114.331 26.8506 116.251 27.1091C118.137 27.3676 119.097 27.5292 120.606 27.0122C122.115 26.4952 123.452 25.9782 123.452 25.9782L123.04 25.4612C123.04 25.4612 119.989 26.6891 119.029 26.6891C118.069 26.6891 115.806 26.6891 114.914 25.7197C114.331 25.0734 113.988 23.3932 113.988 22.65C113.988 21.9068 114.331 20.7112 114.331 20.7112L111.485 19.5479V19.5156Z" fill="white"/>
<path id="Vector_19" d="M118.583 28.0128C117.863 28.0128 117.075 27.9159 116.115 27.7543C113.989 27.4958 113.337 26.4295 112.857 25.557L112.72 25.3631C112.171 24.4261 112.206 23.3597 112.206 22.3257V21.8087C112.206 21.5502 112.206 21.324 112.24 21.0978L110.971 19.9992L111.76 18.8359L115.189 20.2254L115.017 20.807C114.949 21.1302 114.709 22.0349 114.709 22.5842C114.709 23.2951 115.052 24.7492 115.429 25.2016C116.08 25.9125 118.24 25.9125 118.96 25.9125C119.44 25.9125 121.258 25.2985 122.664 24.7492L123.212 24.523L124.549 26.2033L123.658 26.5587C123.658 26.5587 122.286 27.0757 120.778 27.5927C119.92 27.8835 119.235 27.9805 118.515 27.9805L118.583 28.0128Z" fill="white"/>
</g>
</g>
</g>
</svg>
