<svg width="21" height="21" viewBox="0 0 21 21" fill="none" xmlns="http://www.w3.org/2000/svg">
<path d="M17.292 2.30664H16.292V1.30664C16.292 0.706641 15.892 0.306641 15.292 0.306641C14.692 0.306641 14.292 0.706641 14.292 1.30664V2.30664H6.29199V1.30664C6.29199 0.706641 5.89199 0.306641 5.29199 0.306641C4.69199 0.306641 4.29199 0.706641 4.29199 1.30664V2.30664H3.29199C1.59199 2.30664 0.291992 3.60664 0.291992 5.30664V6.30664H20.292V5.30664C20.292 3.60664 18.992 2.30664 17.292 2.30664ZM0.291992 17.3066C0.291992 19.0066 1.59199 20.3066 3.29199 20.3066H17.292C18.992 20.3066 20.292 19.0066 20.292 17.3066V8.30664H0.291992V17.3066ZM15.292 10.3066C15.892 10.3066 16.292 10.7066 16.292 11.3066C16.292 11.9066 15.892 12.3066 15.292 12.3066C14.692 12.3066 14.292 11.9066 14.292 11.3066C14.292 10.7066 14.692 10.3066 15.292 10.3066ZM15.292 14.3066C15.892 14.3066 16.292 14.7066 16.292 15.3066C16.292 15.9066 15.892 16.3066 15.292 16.3066C14.692 16.3066 14.292 15.9066 14.292 15.3066C14.292 14.7066 14.692 14.3066 15.292 14.3066ZM10.292 10.3066C10.892 10.3066 11.292 10.7066 11.292 11.3066C11.292 11.9066 10.892 12.3066 10.292 12.3066C9.69199 12.3066 9.29199 11.9066 9.29199 11.3066C9.29199 10.7066 9.69199 10.3066 10.292 10.3066ZM10.292 14.3066C10.892 14.3066 11.292 14.7066 11.292 15.3066C11.292 15.9066 10.892 16.3066 10.292 16.3066C9.69199 16.3066 9.29199 15.9066 9.29199 15.3066C9.29199 14.7066 9.69199 14.3066 10.292 14.3066ZM5.29199 10.3066C5.89199 10.3066 6.29199 10.7066 6.29199 11.3066C6.29199 11.9066 5.89199 12.3066 5.29199 12.3066C4.69199 12.3066 4.29199 11.9066 4.29199 11.3066C4.29199 10.7066 4.69199 10.3066 5.29199 10.3066ZM5.29199 14.3066C5.89199 14.3066 6.29199 14.7066 6.29199 15.3066C6.29199 15.9066 5.89199 16.3066 5.29199 16.3066C4.69199 16.3066 4.29199 15.9066 4.29199 15.3066C4.29199 14.7066 4.69199 14.3066 5.29199 14.3066Z" fill="#FF3B30"/>
</svg>
