<svg width="23" height="19" viewBox="0 0 23 19" fill="none" xmlns="http://www.w3.org/2000/svg">
<path fill-rule="evenodd" clip-rule="evenodd" d="M2.7032 0.306641C2.11589 0.306641 1.55265 0.539946 1.13736 0.955231C0.722075 1.37052 0.48877 1.93377 0.48877 2.52107V15.8076C0.48877 16.3949 0.722075 16.9582 1.13736 17.3735C1.55265 17.7888 2.11589 18.0221 2.7032 18.0221H20.4186C21.0059 18.0221 21.5692 17.7888 21.9845 17.3735C22.3997 16.9582 22.633 16.3949 22.633 15.8076V2.52107C22.633 1.93377 22.3997 1.37052 21.9845 0.955231C21.5692 0.539946 21.0059 0.306641 20.4186 0.306641H2.7032ZM13.7753 5.84271C13.7753 5.54906 13.892 5.26744 14.0996 5.05979C14.3073 4.85215 14.5889 4.7355 14.8826 4.7355H18.2042C18.4978 4.7355 18.7795 4.85215 18.9871 5.05979C19.1948 5.26744 19.3114 5.54906 19.3114 5.84271C19.3114 6.13636 19.1948 6.41799 18.9871 6.62563C18.7795 6.83327 18.4978 6.94992 18.2042 6.94992H14.8826C14.5889 6.94992 14.3073 6.83327 14.0996 6.62563C13.892 6.41799 13.7753 6.13636 13.7753 5.84271ZM13.7753 9.16435C13.7753 8.8707 13.892 8.58908 14.0996 8.38143C14.3073 8.17379 14.5889 8.05714 14.8826 8.05714H18.2042C18.4978 8.05714 18.7795 8.17379 18.9871 8.38143C19.1948 8.58908 19.3114 8.8707 19.3114 9.16435C19.3114 9.458 19.1948 9.73963 18.9871 9.94727C18.7795 10.1549 18.4978 10.2716 18.2042 10.2716H14.8826C14.5889 10.2716 14.3073 10.1549 14.0996 9.94727C13.892 9.73963 13.7753 9.458 13.7753 9.16435ZM13.7753 12.486C13.7753 12.1923 13.892 11.9107 14.0996 11.7031C14.3073 11.4954 14.5889 11.3788 14.8826 11.3788H18.2042C18.4978 11.3788 18.7795 11.4954 18.9871 11.7031C19.1948 11.9107 19.3114 12.1923 19.3114 12.486C19.3114 12.7796 19.1948 13.0613 18.9871 13.2689C18.7795 13.4766 18.4978 13.5932 18.2042 13.5932H14.8826C14.5889 13.5932 14.3073 13.4766 14.0996 13.2689C13.892 13.0613 13.7753 12.7796 13.7753 12.486ZM4.91763 6.94992C4.91763 6.06897 5.26758 5.2241 5.89051 4.60117C6.51344 3.97824 7.35831 3.62828 8.23927 3.62828C9.12022 3.62828 9.96509 3.97824 10.588 4.60117C11.211 5.2241 11.5609 6.06897 11.5609 6.94992C11.5609 7.83088 11.211 8.67575 10.588 9.29868C9.96509 9.92161 9.12022 10.2716 8.23927 10.2716C7.35831 10.2716 6.51344 9.92161 5.89051 9.29868C5.26758 8.67575 4.91763 7.83088 4.91763 6.94992ZM7.06783 11.3788C6.37054 11.3785 5.69086 11.5977 5.12509 12.0053C4.55933 12.4129 4.13617 12.9882 3.9156 13.6497L3.86688 13.7969L3.86245 13.8102C3.81595 13.9497 3.80155 13.9951 3.81595 14.0261C3.82259 14.0405 3.83809 14.0516 3.85802 14.0693C3.89345 14.097 3.9466 14.1402 4.01968 14.2409C4.12226 14.3832 4.25717 14.499 4.41329 14.5789C4.5694 14.6588 4.74226 14.7004 4.91763 14.7004H11.5609C11.7363 14.7004 11.9091 14.6588 12.0652 14.5789C12.2214 14.499 12.3563 14.3832 12.4589 14.2409C12.5037 14.1758 12.5582 14.1179 12.6205 14.0693C12.6415 14.0516 12.6548 14.0405 12.6626 14.025C12.6781 13.9951 12.6626 13.9497 12.6161 13.8102L12.6117 13.7969L12.5629 13.6497C12.3424 12.9884 11.9194 12.4132 11.3539 12.0056C10.7883 11.5981 10.1089 11.3788 9.41181 11.3788H7.06783Z" fill="#FF3B30"/>
</svg>
