<svg width="113" height="24" viewBox="0 0 113 24" fill="none" xmlns="http://www.w3.org/2000/svg">
<g id="Cards">
<path id="Vector" d="M97.3267 15.6992C91.7928 15.6992 89.701 13.1868 91.0513 8.16211C92.3683 3.22591 95.7938 0.757812 101.328 0.757812H112.119L110.342 7.39844H99.5513C98.4445 7.39844 97.8247 7.65299 97.6919 8.16211C97.5259 8.75977 97.9963 9.05859 99.103 9.05859H104.083C109.617 9.05859 111.726 11.5267 110.409 16.4629C109.058 21.4876 105.616 24 100.083 24H89.2915L91.0679 17.3594H101.859C102.966 17.3594 103.602 17.0605 103.768 16.4629C103.901 15.9538 103.414 15.6992 102.307 15.6992H97.3267Z" fill="black"/>
<path id="Vector_2" d="M80.4082 0.757812C83.6178 0.757812 86.0527 1.89225 87.7129 4.16113C89.373 6.43001 89.777 9.16927 88.9248 12.3789C88.0615 15.5885 86.1911 18.3278 83.3135 20.5967C80.4359 22.8656 77.3923 24 74.1826 24H65.0518L71.2773 0.757812H80.4082ZM73.4688 17.3594H75.959C77.3314 17.3594 78.6318 16.8724 79.8604 15.8984C81.0999 14.9245 81.9079 13.7513 82.2842 12.3789C82.6494 11.0065 82.4723 9.83333 81.7529 8.85938C81.0446 7.88542 80.0042 7.39844 78.6318 7.39844H76.1416L73.4688 17.3594Z" fill="black"/>
<path id="Vector_3" d="M53.8608 7.39844L52.9644 10.7188H57.9448C59.0516 10.7188 59.7544 10.1654 60.0532 9.05859C60.3521 7.95182 59.9481 7.39844 58.8413 7.39844H53.8608ZM51.188 17.3594L49.4116 24H42.771L48.9966 0.757812H60.6177C66.1515 0.757812 68.1769 3.52474 66.6939 9.05859C65.5096 13.4857 63.0304 16.1419 59.2563 17.0273L64.353 24H56.0522L51.188 17.3594Z" fill="black"/>
<path id="Vector_4" d="M34.0532 7.73047L30.1021 14.0391H34.6011L34.0532 7.73047ZM25.9517 20.6797L23.8765 24H17.2358L31.7622 0.757812H40.063L42.1382 24H35.4976L35.1987 20.6797H25.9517Z" fill="black"/>
<path id="Vector_5" d="M15.3585 0.757812H22.8292L21.0529 7.39844H13.5822C12.2098 7.39844 10.9038 7.88542 9.66419 8.85938C8.43568 9.83333 7.6388 11.0065 7.27357 12.3789C6.89726 13.7513 7.06328 14.9245 7.77161 15.8984C8.49101 16.8724 9.53691 17.3594 10.9093 17.3594H18.38L16.6036 24H9.13294C5.92331 24 3.48841 22.8656 1.82825 20.5967C0.168097 18.3278 -0.23034 15.5885 0.632941 12.3789C1.48515 9.16927 3.35006 6.43001 6.22767 4.16113C9.10527 1.89225 12.1489 0.757812 15.3585 0.757812Z" fill="black"/>
</g>
</svg>
